<svg width="138" height="42" viewBox="0 0 138 42" fill="none" xmlns="http://www.w3.org/2000/svg">
<rect x="2" y="1" width="135" height="40" rx="5" stroke="#333333"/>
<path fill-rule="evenodd" clip-rule="evenodd" d="M75.6792 30.0762C74.0444 30.0762 72.8481 29.2676 72.7104 28.0362L70.8081 28.0361C70.9282 30.2822 72.7876 31.7031 75.5415 31.7031C78.4848 31.7031 80.3354 30.248 80.3354 27.9248C80.3354 26.1084 79.2768 25.0849 76.729 24.4824L75.3608 24.1465C73.7602 23.751 73.1059 23.2344 73.1059 22.3565C73.1059 21.2549 74.1303 20.4981 75.6274 20.4981C77.1245 20.4981 78.1489 21.2461 78.2612 22.4854H80.1372C80.0767 20.3428 78.2778 18.8711 75.6538 18.8711C73.0024 18.8711 71.1353 20.3428 71.1353 22.4854C71.1353 24.2158 72.1939 25.2822 74.4741 25.833L76.0835 26.2207C77.6929 26.6162 78.3726 27.1934 78.3726 28.1572C78.3726 29.2676 77.2456 30.0762 75.6792 30.0762ZM43.3022 28.1397H38.5688L37.4321 31.4962H35.4272L39.9106 19.0782H41.9936L46.477 31.4962H44.438L43.3022 28.1397ZM39.0591 26.5909H42.8111L40.9615 21.1436H40.9097L39.0591 26.5909ZM52.3813 31.5909C54.6538 31.5909 56.1597 29.7833 56.1597 26.9698C56.1597 24.1641 54.645 22.3477 52.3472 22.3477C51.1648 22.3096 50.0572 22.9245 49.4644 23.9483H49.4302V22.4424H47.6313V34.4913H49.4897V30.0069H49.5327C50.1003 31.0371 51.2067 31.6523 52.3813 31.5909ZM54.2495 26.9698C54.2495 25.1368 53.3022 23.9317 51.8569 23.9317C50.437 23.9317 49.4819 25.1622 49.4819 26.9698C49.4819 28.794 50.437 30.0157 51.8569 30.0157C53.3022 30.0157 54.2495 28.8194 54.2495 26.9698ZM62.3462 31.5909C64.6186 31.5909 66.1245 29.7833 66.1245 26.9698C66.1245 24.1641 64.6099 22.3477 62.312 22.3477C61.1296 22.3096 60.022 22.9245 59.4292 23.9483H59.395V22.4424H57.5962V34.4913H59.4546V30.0069H59.4976C60.0651 31.0371 61.1716 31.6523 62.3462 31.5909ZM64.2143 26.9698C64.2143 25.1368 63.2671 23.9317 61.8218 23.9317C60.4018 23.9317 59.4468 25.1622 59.4468 26.9698C59.4468 28.794 60.4018 30.0157 61.8218 30.0157C63.2671 30.0157 64.2144 28.8194 64.2143 26.9698ZM84.3462 20.2999V22.4424H86.0679V23.9141H84.3462V28.9053C84.3462 29.6807 84.6909 30.042 85.4477 30.042C85.6521 30.0385 85.8562 30.0241 86.0591 29.999V31.4619C85.7188 31.5255 85.3729 31.5543 85.0268 31.5479C83.1938 31.5479 82.479 30.8594 82.479 29.1035V23.9141H81.1626V22.4424H82.479V20.2999H84.3462ZM91.3589 22.3311C88.7427 22.3311 87.065 24.1212 87.065 26.9698C87.065 29.8262 88.7261 31.6085 91.3589 31.6085C93.9927 31.6085 95.6538 29.8262 95.6538 26.9698C95.6538 24.1211 93.9839 22.3311 91.3589 22.3311ZM93.7603 26.9698C93.7603 25.0157 92.8648 23.8624 91.3589 23.8624C89.8531 23.8624 88.9585 25.0245 88.9585 26.9698C88.9585 28.9317 89.8531 30.0762 91.3589 30.0762C92.8648 30.0762 93.7602 28.9317 93.7602 26.9698H93.7603ZM98.9585 22.4424H97.186L97.186 31.4961H99.0444V26.126C98.9826 25.5827 99.1612 25.0395 99.5335 24.6391C99.9058 24.2386 100.435 24.0208 100.981 24.043C101.264 24.0348 101.546 24.0727 101.816 24.1553V22.417C101.607 22.3702 101.393 22.3469 101.179 22.3477C100.158 22.3087 99.2487 22.9914 99.0015 23.9834H98.9585V22.4424ZM110.384 28.837C110.134 30.4805 108.534 31.6084 106.486 31.6084C103.852 31.6084 102.217 29.8438 102.217 27.0127C102.217 24.1729 103.861 22.3311 106.408 22.3311C108.913 22.3311 110.488 24.0518 110.488 26.7969V27.4336H104.093V27.5459C104.034 28.22 104.266 28.8872 104.732 29.3778C105.198 29.8685 105.853 30.1353 106.529 30.1104C107.431 30.1949 108.281 29.677 108.62 28.837L110.384 28.837ZM108.628 26.1348H104.102C104.1 25.5236 104.343 24.937 104.776 24.5055C105.209 24.074 105.796 23.8333 106.408 23.837C107.014 23.8239 107.599 24.0645 108.02 24.5007C108.442 24.9369 108.662 25.5292 108.628 26.1348Z" fill="#333333"/>
<path fill-rule="evenodd" clip-rule="evenodd" d="M60.0937 9.43701H60.9824V15.6978H60.0937V9.43701ZM40.9317 10.5489C40.3879 9.97456 39.6151 9.6744 38.8262 9.73101H36.6709V15.6979H38.8262C40.6035 15.6979 41.6338 14.6021 41.6338 12.6959C41.7333 11.9112 41.4756 11.1232 40.9317 10.5489ZM38.7226 14.854H37.5976V10.5742H38.7226C39.2835 10.5431 39.8289 10.7642 40.2096 11.1771C40.5904 11.5901 40.7668 12.1515 40.6904 12.708C40.7728 13.2668 40.5989 13.833 40.2172 14.2493C39.8355 14.6656 39.2865 14.8877 38.7226 14.854ZM42.6807 13.4444C42.6034 12.6372 42.9905 11.8561 43.6794 11.4286C44.3683 11.0011 45.2401 11.0011 45.929 11.4286C46.6179 11.8561 47.0049 12.6372 46.9277 13.4444C47.0064 14.2523 46.6197 15.035 45.9302 15.4634C45.2407 15.8918 44.3677 15.8918 43.6782 15.4634C42.9886 15.035 42.602 14.2523 42.6807 13.4444ZM44.8057 11.8975C45.5752 11.8975 46.0137 12.4683 46.0137 13.4444H46.0137C46.0137 14.4243 45.5752 14.9946 44.8057 14.9947C44.0332 14.9947 43.5987 14.4283 43.5987 13.4444C43.5987 12.4683 44.0332 11.8975 44.8057 11.8975ZM52.5732 15.6978H51.6514L50.7207 12.3814H50.6504L49.7236 15.6978H48.8105L47.5693 11.1948H48.4707L49.2773 14.6308H49.3438L50.2695 11.1948H51.1221L52.0479 14.6308H52.1182L52.9209 11.1948H53.8096L52.5732 15.6978ZM55.709 11.1948H54.8535L54.8535 15.6978H55.7422V13.0635C55.7103 12.7638 55.8109 12.4652 56.0175 12.2458C56.2242 12.0265 56.5163 11.9084 56.8174 11.9224C57.4746 11.9224 57.7891 12.2822 57.7891 13.0059V15.6977H58.6777V12.7827C58.7429 12.3424 58.6043 11.8964 58.3011 11.5706C57.9979 11.2448 57.563 11.0745 57.1191 11.1079C56.5459 11.0613 56.0063 11.3835 55.7754 11.9102H55.709V11.1948ZM63.2167 11.4285C62.5277 11.8561 62.1406 12.6372 62.2178 13.4444C62.1392 14.2524 62.5259 15.035 63.2155 15.4634C63.9051 15.8918 64.778 15.8918 65.4676 15.4634C66.1572 15.035 66.5439 14.2524 66.4653 13.4444C66.5425 12.6372 66.1554 11.8561 65.4664 11.4285C64.7774 11.001 63.9057 11.001 63.2167 11.4285ZM65.5508 13.4444C65.5508 12.4683 65.1123 11.8975 64.3428 11.8975C63.5703 11.8975 63.1358 12.4683 63.1358 13.4444C63.1358 14.4283 63.5703 14.9947 64.3428 14.9947C65.1123 14.9946 65.5508 14.4243 65.5508 13.4444ZM69.0757 13.0801C68.0044 13.1465 67.4009 13.6138 67.4009 14.4243C67.4024 14.8087 67.5664 15.1744 67.8524 15.4312C68.1383 15.6879 68.5196 15.8117 68.9019 15.772C69.4472 15.7972 69.9638 15.5271 70.2544 15.065H70.3247V15.6978H71.1802V12.6211C71.1802 11.6699 70.5435 11.1079 69.4146 11.1079C68.3931 11.1079 67.6655 11.604 67.5747 12.3775H68.4351C68.5337 12.0591 68.8774 11.877 69.3735 11.877C69.981 11.877 70.2954 12.1455 70.2954 12.6211V13.0098L69.0757 13.0801ZM70.2954 14.0396V13.6631L69.1958 13.7334C68.5757 13.7749 68.2944 13.9859 68.2944 14.3828C68.2944 14.7881 68.646 15.0239 69.1294 15.0239C69.4156 15.0529 69.7013 14.9645 69.9211 14.7789C70.1409 14.5934 70.276 14.3266 70.2954 14.0396ZM74.2173 11.1201C73.0796 11.1201 72.3481 12.0215 72.3481 13.4444C72.3481 14.8706 73.0718 15.772 74.2173 15.772C74.798 15.7934 75.3427 15.4907 75.6313 14.9863H75.7017V15.6978H76.5532V9.43701H75.6645V11.9101H75.5981C75.3298 11.4015 74.7918 11.0937 74.2173 11.1201ZM73.2661 13.4444C73.2661 14.3994 73.7163 14.9741 74.4693 14.9741C75.2183 14.9741 75.6812 14.3911 75.6812 13.4483C75.6812 12.5098 75.2134 11.9185 74.4693 11.9185C73.7212 11.9185 73.2661 12.4971 73.2661 13.4444H73.2661ZM81.2287 11.4286C80.5398 11.8561 80.1528 12.6372 80.23 13.4444C80.1513 14.2523 80.538 15.035 81.2275 15.4634C81.917 15.8918 82.79 15.8918 83.4795 15.4634C84.1691 15.035 84.5557 14.2523 84.4771 13.4444C84.5543 12.6372 84.1672 11.8561 83.4783 11.4286C82.7894 11.0011 81.9176 11.0011 81.2287 11.4286ZM83.563 13.4444C83.563 12.4683 83.1245 11.8975 82.355 11.8975C81.5825 11.8975 81.148 12.4683 81.148 13.4444C81.148 14.4283 81.5826 14.9947 82.355 14.9947C83.1245 14.9946 83.563 14.4243 83.563 13.4444ZM86.5249 11.1948H85.6694V15.6978H86.5581V13.0635C86.5262 12.7638 86.6268 12.4652 86.8335 12.2458C87.0401 12.0265 87.3323 11.9084 87.6333 11.9224C88.2905 11.9224 88.605 12.2822 88.605 13.0059V15.6977H89.4936V12.7827C89.5588 12.3424 89.4202 11.8964 89.117 11.5706C88.8138 11.2448 88.3789 11.0745 87.9351 11.1079C87.3619 11.0613 86.8222 11.3835 86.5913 11.9102H86.5249V11.1948ZM94.5151 10.0737V11.2153H95.4907V11.9639H94.5151V14.2793C94.5151 14.751 94.7095 14.9575 95.1519 14.9575C95.2651 14.9572 95.3783 14.9503 95.4907 14.937V15.6773C95.3311 15.7058 95.1694 15.721 95.0073 15.7227C94.019 15.7227 93.6255 15.375 93.6255 14.5068V11.9638H92.9106V11.2153H93.6255V10.0737H94.5151ZM97.5854 9.43701H96.7046L96.7046 15.6977H97.5933V13.0679C97.5658 12.7589 97.6761 12.4535 97.8947 12.2334C98.1133 12.0133 98.4179 11.9009 98.7271 11.9263C99.355 11.9263 99.69 12.2905 99.69 13.0098V15.6978H100.58V12.7905C100.638 12.3525 100.499 11.9111 100.199 11.5864C99.8991 11.2618 99.4701 11.0878 99.0288 11.1118C98.4469 11.0646 97.8978 11.3872 97.6558 11.9185H97.5854V9.43701ZM105.761 14.4819C105.512 15.3313 104.69 15.8801 103.81 15.7847C103.21 15.8005 102.633 15.5516 102.232 15.1041C101.831 14.6565 101.648 14.0555 101.73 13.4605C101.65 12.8638 101.833 12.2618 102.231 11.8105C102.63 11.3591 103.204 11.1028 103.806 11.1079C105.059 11.1079 105.815 11.9639 105.815 13.3779V13.688H102.635V13.7378C102.607 14.072 102.721 14.4025 102.95 14.6481C103.178 14.8936 103.499 15.0315 103.834 15.0278C104.269 15.08 104.692 14.8643 104.906 14.4819L105.761 14.4819ZM104.91 13.0308H102.635C102.631 12.7203 102.753 12.4213 102.972 12.2017C103.192 11.982 103.491 11.8604 103.801 11.8643C104.108 11.8572 104.403 11.9799 104.614 12.2021C104.825 12.4242 104.932 12.7252 104.91 13.0308Z" fill="#333333"/>
<path fill-rule="evenodd" clip-rule="evenodd" d="M23.1519 9.72021C23.2487 10.9844 22.8489 12.2366 22.0374 13.2108C21.25 14.1901 20.057 14.7542 18.8006 14.7412C18.7207 13.5134 19.1321 12.3041 19.9443 11.3798C20.7668 10.443 21.9121 9.85044 23.1519 9.72021ZM27.1256 17.1486C25.6802 18.0371 24.7908 19.6042 24.769 21.3006C24.7711 23.22 25.9205 24.9521 27.6882 25.6998C27.3483 26.8042 26.8358 27.8479 26.1698 28.7923C25.2754 30.1302 24.3377 31.4373 22.8493 31.4614C22.1414 31.4778 21.6636 31.2742 21.1657 31.0621C20.6464 30.8409 20.1052 30.6103 19.2583 30.6103C18.3602 30.6103 17.7947 30.8483 17.2494 31.0778C16.7781 31.2761 16.3219 31.4682 15.6789 31.4948C14.2615 31.5473 13.1782 30.0669 12.2513 28.7415C10.3987 26.0349 8.95607 21.1139 10.8901 17.7654C11.7982 16.1335 13.4963 15.0979 15.363 15.0376C16.1669 15.021 16.9383 15.3309 17.6147 15.6025C18.1319 15.8103 18.5935 15.9957 18.9715 15.9957C19.3038 15.9957 19.7525 15.8176 20.2755 15.6101C21.0992 15.2831 22.1072 14.8831 23.1344 14.9909C24.7305 15.0408 26.2096 15.8405 27.1256 17.1486Z" fill="#333333"/>
</svg>
