<svg width="260" height="130" viewBox="0 0 260 130" fill="none" xmlns="http://www.w3.org/2000/svg">
<g clip-path="url(#clip0)">
<path opacity="0.1" d="M153.56 7.43022C172.217 1.32025 196.605 -0.266761 205.641 27.7968C221.073 75.7244 189.515 92.8376 189.515 92.8376C189.515 92.8376 167.499 97.3341 155.292 105.428C137.967 116.934 116.751 120.769 96.7874 115.373C84.0204 111.935 73.0658 106.248 69.9206 96.9903C61.1516 71.0956 64.9364 66.1495 49.0776 59.3253C33.2453 52.5012 50.0637 27.4265 60.9117 19.9411C69.894 13.7518 85.2464 1.9815 100.412 0.39449C128.665 -2.51502 140.393 11.768 153.56 7.43022Z" fill="#079D49"/>
<path opacity="0.1" d="M194.845 130H153.398C152.439 130 151.666 129.233 151.666 128.281C151.666 127.329 152.439 126.562 153.398 126.562H194.845C195.804 126.562 196.577 127.329 196.577 128.281C196.577 129.233 195.804 130 194.845 130Z" fill="#252223"/>
<path opacity="0.1" d="M109.607 130H69.0938C68.1343 130 67.3613 129.233 67.3613 128.281C67.3613 127.329 68.1343 126.562 69.0938 126.562H109.607C110.567 126.562 111.34 127.329 111.34 128.281C111.34 129.233 110.567 130 109.607 130Z" fill="#252223"/>
<path opacity="0.1" d="M215.715 118.441H187.676C186.716 118.441 185.943 117.674 185.943 116.722C185.943 115.77 186.716 115.003 187.676 115.003H215.715C216.675 115.003 217.448 115.77 217.448 116.722C217.448 117.674 216.675 118.441 215.715 118.441Z" fill="#252223"/>
<path opacity="0.1" d="M190.181 123.837H178.854C177.894 123.837 177.121 123.07 177.121 122.118C177.121 121.166 177.894 120.399 178.854 120.399H190.181C191.141 120.399 191.914 121.166 191.914 122.118C191.887 123.07 191.114 123.837 190.181 123.837Z" fill="#252223"/>
<path opacity="0.1" d="M127.039 125.001H115.711C114.751 125.001 113.979 124.234 113.979 123.282C113.979 122.33 114.751 121.562 115.711 121.562H127.039C127.998 121.562 128.771 122.33 128.771 123.282C128.771 124.234 127.998 125.001 127.039 125.001Z" fill="#252223"/>
<path d="M91.7503 61.3884C91.7503 61.3884 87.9655 61.2032 86.1797 65.4617L88.312 66.8107C88.312 66.8107 88.7118 64.1921 91.7503 64.0863V61.3884Z" fill="#E6E6E6"/>
<path d="M92.9492 64.0069L90.1773 61.4677C89.6709 61.0181 89.6442 60.2246 90.0973 59.722L91.1901 58.5318C91.6432 58.0292 92.4428 58.0028 92.9492 58.4524L95.7212 60.9916C96.2276 61.4413 96.2543 62.2348 95.8012 62.7373L94.7084 63.9276C94.2286 64.4566 93.4557 64.483 92.9492 64.0069Z" fill="#424242"/>
<path opacity="0.1" d="M92.9492 64.0069L90.1773 61.4677C89.6709 61.0181 89.6442 60.2246 90.0973 59.722L91.1901 58.5318C91.6432 58.0292 92.4428 58.0028 92.9492 58.4524L95.7212 60.9916C96.2276 61.4413 96.2543 62.2348 95.8012 62.7373L94.7084 63.9276C94.2286 64.4566 93.4557 64.483 92.9492 64.0069Z" fill="black"/>
<path d="M114.832 55.1463C114.832 55.1463 113.126 63.5309 111.1 64.0864C109.048 64.6418 101.132 61.9175 97.1069 61.9439H95.8275C95.8275 61.9439 94.868 61.9704 94.0417 61.2827C93.1888 60.595 92.2826 60.7272 92.3093 61.5736C92.3359 62.42 92.2293 63.6896 91.4563 63.6896C90.6834 63.6896 91.9628 63.2135 91.1098 60.9388C90.2569 58.6641 92.4159 57.8706 93.5087 58.1616C94.6015 58.4525 96.2007 59.1931 97.6933 59.0609C99.1859 58.9286 108.115 59.4047 109.101 58.3732C110.087 57.3416 110.061 53.427 110.061 53.427L114.832 55.1463Z" fill="#EFB7B9"/>
<path opacity="0.1" d="M115.765 55.3049C115.765 55.3049 113.126 63.5309 111.074 64.0863C109.021 64.6418 101.105 61.9174 97.0805 61.9439H95.8012C95.8012 61.9439 94.8416 61.9703 94.0154 61.2826C93.1625 60.5949 92.2562 60.7271 92.2829 61.5735C92.3095 62.4199 92.2029 63.6896 91.43 63.6896C90.657 63.6896 91.9364 63.2135 91.0835 60.9387C90.2306 58.664 92.3895 57.8705 93.4823 58.1615C94.5751 58.4524 96.1743 59.193 97.6669 59.0608C99.1595 58.9285 108.088 59.4046 109.075 58.3731C110.061 57.3415 110.541 52.7921 110.541 52.7921L115.765 55.3049Z" fill="black"/>
<path d="M161.582 76.0948L165.98 74.5606L167.206 80.2739L138.793 95.1388C138.793 95.1388 137.194 108.628 127.652 111.802C118.11 114.976 107.262 113.019 102.838 109.369C98.4133 105.719 97.6137 94.4776 97.6137 94.4776L82.3945 79.1101L86.7924 64.4832L96.2011 71.3866L110.008 69.3235C110.008 69.3235 111.74 69.059 113.819 70.1964C115.898 71.3337 125.707 75.4335 139.407 72.7356C153.106 70.0112 162.568 69.4029 162.568 69.4029L161.422 71.9421L161.582 76.0948Z" fill="black"/>
<path d="M157.131 128.096C167.317 128.096 175.575 119.901 175.575 109.792C175.575 99.6834 167.317 91.4886 157.131 91.4886C146.944 91.4886 138.687 99.6834 138.687 109.792C138.687 119.901 146.944 128.096 157.131 128.096Z" fill="black"/>
<path d="M157.13 122.382C164.137 122.382 169.818 116.746 169.818 109.792C169.818 102.839 164.137 97.2019 157.13 97.2019C150.124 97.2019 144.443 102.839 144.443 109.792C144.443 116.746 150.124 122.382 157.13 122.382Z" fill="#505D66"/>
<path d="M157.131 114.58C159.795 114.58 161.955 112.436 161.955 109.792C161.955 107.148 159.795 105.005 157.131 105.005C154.467 105.005 152.307 107.148 152.307 109.792C152.307 112.436 154.467 114.58 157.131 114.58Z" fill="black"/>
<path d="M71.7861 128.096C81.9726 128.096 90.2303 119.901 90.2303 109.792C90.2303 99.6834 81.9726 91.4886 71.7861 91.4886C61.5996 91.4886 53.3418 99.6834 53.3418 109.792C53.3418 119.901 61.5996 128.096 71.7861 128.096Z" fill="black"/>
<path d="M71.7867 122.382C78.7936 122.382 84.4738 116.746 84.4738 109.792C84.4738 102.839 78.7936 97.2019 71.7867 97.2019C64.7798 97.2019 59.0996 102.839 59.0996 109.792C59.0996 116.746 64.7798 122.382 71.7867 122.382Z" fill="#505D66"/>
<path d="M71.7862 114.58C74.4506 114.58 76.6105 112.436 76.6105 109.792C76.6105 107.148 74.4506 105.005 71.7862 105.005C69.1218 105.005 66.9619 107.148 66.9619 109.792C66.9619 112.436 69.1218 114.58 71.7862 114.58Z" fill="black"/>
<path d="M157.29 107.226L120.855 94.5833C119.549 94.3717 118.35 95.3503 118.35 96.6728C118.35 96.6728 118.323 98.5243 120.135 98.7624L156.224 111.379L157.29 107.226Z" fill="#808080"/>
<path d="M157.292 112.199C158.675 112.199 159.797 111.086 159.797 109.713C159.797 108.34 158.675 107.226 157.292 107.226C155.908 107.226 154.786 108.34 154.786 109.713C154.786 111.086 155.908 112.199 157.292 112.199Z" fill="#E6E6E6"/>
<path d="M61.1782 87.7328C61.1782 87.7328 79.4092 80.3268 90.0706 95.6943H97.6136C97.6136 95.6943 95.8278 88.2089 111.687 84.9291C111.687 84.9291 116.591 84.0033 121.309 86.8864C126.026 89.7695 134.156 91.1978 139.993 90.9068C145.83 90.6159 160.516 85.4846 163.181 77.2321L159.743 76.8089L161.422 70.1964C161.422 70.1964 123.574 83.1305 120.935 81.5435C118.297 79.9565 115.178 67.8688 104.703 68.4242C95.508 68.9268 95.9344 72.2595 94.2286 74.7987C92.5228 77.3379 88.9512 82.4692 83.5672 78.5546C83.5672 78.5546 87.0588 77.7082 87.9916 75.5658C88.9245 73.4233 86.3924 71.9156 86.3924 71.9156C86.3924 71.9156 86.2059 69.1913 87.0588 66.6785C87.9117 64.1393 90.3638 60.3041 89.8841 57.9764C89.8841 57.9764 83.194 61.7324 80.7152 67.2604C78.2364 72.7885 78.5563 75.1426 81.0884 77.6553C81.0884 77.6289 61.0715 75.5658 61.1782 87.7328Z" fill="#FFAA2E"/>
<path opacity="0.1" d="M157.664 78.3694C157.664 78.3694 140.286 82.1253 130.105 89.1346C130.078 89.1346 138.021 74.9044 157.664 78.3694Z" fill="black"/>
<path opacity="0.1" d="M93.1094 76.3592C93.1094 76.3592 103.931 67.5513 118.963 79.11C118.963 79.11 114.219 69.297 107.129 68.53C100.039 67.7629 96.8675 70.3021 96.1479 71.3866C95.4549 72.4975 93.1094 76.3592 93.1094 76.3592Z" fill="black"/>
<path d="M81.0087 66.652C81.0087 66.652 84.4737 77.3378 80.3957 76.8088C80.3957 76.8088 78.7698 74.9573 79.1963 71.7304C79.6228 68.5035 81.0087 66.652 81.0087 66.652Z" fill="#079D49"/>
<path d="M162.968 73.3175L177.707 73.7671C177.707 73.7671 175.628 69.5616 166.459 70.1699L162.968 73.3175Z" fill="black"/>
<path d="M161.422 70.2227C161.422 70.2227 169.658 64.1392 166.487 70.1698L162.995 73.3174L177.734 73.767L167.206 80.2737L165.447 75.5656L163.181 77.2584L159.743 76.8352L160.33 73.0529L161.422 70.2227Z" fill="#808080"/>
<path d="M115.446 112.358C115.446 112.358 116.085 114.077 114.486 114.501C112.887 114.924 112.034 113.892 112.034 113.892L109.235 110.533V109.264L115.446 112.358Z" fill="black"/>
<path d="M112.114 109.025L115.446 112.358C115.446 112.358 115.872 114.051 114.006 114.077C112.247 114.103 109.235 109.263 109.235 109.263L112.114 109.025Z" fill="#CCCCCC"/>
<path d="M130.584 112.094C130.584 112.094 131.224 113.813 129.624 114.236C128.025 114.659 127.172 113.628 127.172 113.628L124.4 110.242V108.973L130.584 112.094Z" fill="black"/>
<path d="M127.253 108.76L130.584 112.093C130.584 112.093 131.011 113.786 129.145 113.812C127.386 113.839 124.374 108.999 124.374 108.999L127.253 108.76Z" fill="#CCCCCC"/>
<path d="M94.868 60.7007H90.1237L78.1562 93.2872L80.3418 94.5568L91.8828 63.0812H94.868V60.7007Z" fill="#999999"/>
<path d="M93.2956 62.7373C93.2956 62.7373 90.1505 59.6691 91.883 52.9772C91.883 52.9772 90.6036 53.0566 90.4704 51.787C90.3371 50.5174 90.4704 48.9039 90.4704 48.9039C90.4704 48.9039 90.1239 46.7879 94.575 46.8673V53.6121C94.575 53.6121 93.1624 53.903 92.496 53.2682C92.496 53.2682 91.3233 59.8807 93.7221 61.9174L93.2956 62.7373Z" fill="#424242"/>
<path d="M81.0618 94.213C81.0618 94.213 78.7163 94.3717 78.2632 92.0441L76.9305 94.2923L76.5573 93.9749L67.9482 111.247L74.3184 109.29L80.3155 96.858L79.8091 96.4348L81.0618 94.213Z" fill="#079D49"/>
<path d="M114.912 57.3946C114.912 57.3946 110.914 58.2145 109.048 57.1565C109.048 57.1565 110.167 45.2275 113.179 43.905C115.205 43.0322 116.191 48.9041 116.191 48.9041L114.912 57.3946Z" fill="#93278F"/>
<path opacity="0.05" d="M114.725 58.6377C114.725 58.6377 110.46 59.6693 109.048 57.1565C109.048 57.1565 110.167 45.2275 113.179 43.905C115.205 43.0322 116.191 48.9041 116.191 48.9041L114.725 58.6377Z" fill="black"/>
<path d="M116.138 37.4247C116.138 37.4247 115.845 39.2233 116.538 40.2284L117.231 41.9476L112.779 45.6507C112.779 45.6507 111.127 41.9741 110.887 40.4135C110.674 38.853 116.138 37.4247 116.138 37.4247Z" fill="#EFB7B9"/>
<path d="M116.537 40.2284C116.537 40.2284 123.681 41.7096 126.666 49.0627C128.505 53.6121 131.597 62.2878 133.702 68.239C135.115 72.2859 132.023 76.5444 127.705 76.4121C127.359 76.4121 127.012 76.3857 126.639 76.3328C122.001 75.7773 117.897 71.9156 117.897 71.9156C117.897 71.9156 107.022 48.2957 112.566 45.1217C112.859 44.9894 116.911 42.7147 116.537 40.2284Z" fill="#662D91"/>
<path d="M102.57 27.8762C102.57 27.8762 102.97 32.5314 102.997 34.092C103.023 35.6526 103.21 44.3282 114.271 39.144C125.332 33.9597 115.817 20.0999 102.57 27.8762Z" fill="#EFB7B9"/>
<path d="M112.113 26.2099C112.113 26.2099 101.265 22.6656 101.078 23.3533C100.892 24.0146 98.0929 25.8396 99.6122 27.4795C101.158 29.1194 101.585 28.8549 103.051 29.4104C104.516 29.9394 110.06 26.7654 111.393 34.5681C111.766 36.6841 112.113 26.2099 112.113 26.2099Z" fill="black"/>
<path d="M120.349 59.6164C120.349 59.6164 119.016 68.0539 116.431 68.4243C113.845 68.7946 101.664 63.8219 96.6269 63.2929L95.0277 63.1078C95.0277 63.1078 93.855 63.002 92.8155 62.1027C91.776 61.2034 90.6565 61.2298 90.6299 62.2085C90.6032 63.2136 90.4167 64.6683 89.4305 64.5625C88.471 64.4567 90.0968 64.0864 89.1373 61.3092C88.1778 58.5319 90.9497 57.9236 92.2824 58.4261C93.6151 58.9287 95.5875 60.0131 97.4532 60.066C99.3456 60.1189 113.099 63.0813 113.259 61.415C113.392 59.8809 113.605 57.7384 113.605 57.7384L120.349 59.6164Z" fill="#EFB7B9"/>
<path opacity="0.1" d="M122.534 61.3885C122.534 61.3885 115.285 62.182 113.499 60.4627C113.499 60.4627 112.486 45.0952 115.738 44.6985C122.215 43.905 123.094 51.7607 122.534 61.3885Z" fill="black"/>
<path d="M121.468 60.4628C121.468 60.4628 114.272 60.9918 112.699 59.0345C112.699 59.0345 111.446 45.3333 114.698 44.8308C121.468 43.7992 122.028 50.8349 121.468 60.4628Z" fill="#93278F"/>
<path d="M101.424 24.4377C101.424 24.4377 110.406 26.6859 110.886 30.0451C111.366 33.4043 111.819 37.7685 111.126 39.5407C111.126 39.5407 116.83 39.1175 118.376 38.1388C119.922 37.1602 124.666 32.5314 123.387 26.2363C122.107 19.9412 116.723 16.0794 109.767 17.0581C102.837 18.0367 100.011 23.0623 101.424 24.4377Z" fill="#079D49"/>
<path d="M115.284 33.9861C116.697 33.9861 117.843 32.8493 117.843 31.4469C117.843 30.0446 116.697 28.9077 115.284 28.9077C113.871 28.9077 112.726 30.0446 112.726 31.4469C112.726 32.8493 113.871 33.9861 115.284 33.9861Z" fill="#444053"/>
<path d="M111.126 39.5144C111.126 39.5144 110.06 40.8898 108.114 40.784C108.114 40.784 109.234 41.4981 110.966 40.8898C111.366 40.7575 112.272 40.0169 112.405 39.4086L111.126 39.5144Z" fill="#444053"/>
<path d="M117.976 105.983C117.976 105.983 118.829 107.941 118.909 109.263C119.016 110.586 119.496 110.692 118.349 111.538C117.15 112.411 110.46 113.389 106.435 112.755C105.342 112.596 104.49 111.406 104.703 110.321C104.809 109.739 105.076 109.157 105.689 108.734C107.395 107.57 111.02 109.263 112.619 107.279L112.219 105.983H117.976Z" fill="#42210B"/>
<path d="M118.643 71.6511C118.643 71.6511 103.424 80.459 101.798 82.046C100.172 83.633 112.593 107.306 112.593 107.306C112.593 107.306 113.766 107.517 115.551 106.883C117.337 106.274 118.776 107.623 118.51 106.645C118.243 105.666 114.139 90.5629 111.633 87.4682C111.633 87.4682 110.274 87.1773 114.565 85.5638C118.856 83.9768 135.542 79.2952 135.035 73.4232C134.289 64.9857 118.643 71.6511 118.643 71.6511Z" fill="#808080"/>
<path d="M91.6163 65.7791L89.9105 63.1076C89.6173 62.6315 89.7505 62.0232 90.2303 61.7322L91.9894 60.6213C92.4692 60.3304 93.0822 60.4626 93.3754 60.9387L95.0812 63.6102C95.3744 64.0863 95.2412 64.6946 94.7614 64.9856L93.0023 66.0965C92.5225 66.3874 91.9095 66.2287 91.6163 65.7791Z" fill="#424242"/>
<path d="M134.316 105.269C134.316 105.269 138.607 108.84 136.075 112.569C135.089 114.024 124.187 113.363 121.948 112.464C119.71 111.564 119.017 108.496 122.002 108.655C129.491 109.025 128.905 104.449 128.319 104.37L134.316 105.269Z" fill="#8C6239"/>
<path opacity="0.1" d="M135.115 106.168C134.582 107.993 128.665 108.232 128.452 106.195L128.292 104L135.089 104.819C135.355 105.163 134.875 105.825 135.115 106.168Z" fill="black"/>
<path d="M146.298 34.0137C150.345 33.9489 153.574 30.6401 153.509 26.6233C153.443 22.6065 150.109 19.4028 146.061 19.4676C142.014 19.5323 138.785 22.8411 138.851 26.8579C138.916 30.8747 142.25 34.0784 146.298 34.0137Z" fill="#FFB9B9"/>
<path d="M144.631 32.1612C145.777 33.9333 145.111 37.5041 145.111 37.5041L144.604 43.3496L157.185 36.0493C156.359 35.2558 155.426 34.5946 154.413 34.1185C152.947 33.4837 152.121 27.9821 152.121 27.9821C152.121 27.9821 143.485 30.389 144.631 32.1612Z" fill="#FFB9B9"/>
<path d="M144.951 26.8181C145.271 27.2942 146.257 24.7021 147.083 24.3847C147.909 24.0673 149.375 28.5903 149.375 29.0664C149.375 29.5425 151.987 30.5212 152.307 31.3411C152.627 32.1611 153.773 32.3198 153.773 31.4998C153.773 30.6799 156.705 25.3634 157.531 22.93C158.357 20.4966 153.293 17.5871 152.147 16.7936C151.001 15.9736 145.457 15.4975 144.977 16.1588C144.498 16.82 141.379 16.6349 141.379 16.6349C141.379 16.6349 140.553 16.9523 140.393 17.4548C140.233 17.9309 140.233 18.0896 140.073 17.7722C139.913 17.4548 139.753 17.9309 139.753 17.9309C139.753 17.9309 139.593 19.227 139.433 19.0683C139.273 18.9096 138.954 19.0683 138.954 19.0683C138.954 19.0683 138.794 19.8882 138.474 19.8882C138.154 19.8882 138.794 20.8669 139.114 22.0042C139.433 23.1416 144.018 23.459 144.018 23.459C144.018 23.459 144.631 26.342 144.951 26.8181Z" fill="#3F3D56"/>
<path d="M139.78 18.2219C139.78 18.2219 148.549 20.4172 149.002 23.6706C149.481 26.9504 149.908 31.2089 149.242 32.9281C149.242 32.9281 154.812 32.5049 156.305 31.5792C157.797 30.6534 162.435 26.104 161.182 19.9676C159.93 13.8311 154.679 10.0752 147.909 11.0274C141.166 11.9796 138.42 16.8994 139.78 18.2219Z" fill="#079D49"/>
<path d="M153.294 27.5323C154.677 27.5323 155.799 26.4191 155.799 25.046C155.799 23.6728 154.677 22.5597 153.294 22.5597C151.91 22.5597 150.788 23.6728 150.788 25.046C150.788 26.4191 151.91 27.5323 153.294 27.5323Z" fill="#444053"/>
<path d="M149.242 32.9546C149.242 32.9546 147.003 34.8326 145.111 34.7004C145.084 35.15 147.296 35.4939 149.109 34.3565C149.562 34.0655 150.681 33.4307 150.788 32.8224L149.242 32.9546Z" fill="#444053"/>
<path d="M162.675 69.5086C162.675 69.5086 163.368 75.9095 158.011 79.11C155.612 80.5383 153.026 81.5698 144.524 81.5698C140.206 81.5698 136.021 81.0144 135.435 83.2362C134.715 85.9606 136.235 92.335 136.155 94.9271C136.048 99.6353 135.115 106.142 135.115 106.142C135.115 106.142 131.091 108.232 128.452 106.168C128.452 106.168 127.839 97.2812 127.546 95.0858C127.252 92.8905 123.814 78.6074 126.08 75.4334C128.345 72.2594 142.232 71.4394 143.831 70.2492C145.43 69.0589 162.675 69.5086 162.675 69.5086Z" fill="#4C495E"/>
<path opacity="0.1" d="M154.412 35.2293C154.412 35.2293 159.796 34.8326 162.355 42.3708C164.914 49.9091 162.568 73.0529 162.568 73.0529C162.568 73.0529 159.85 74.7193 158.597 74.6135C157.344 74.5077 152.36 72.7091 150.414 72.2859C148.469 71.8627 143.698 72.9471 142.045 72.4181C140.393 71.8891 141.859 51.1523 142.712 45.8358C143.618 40.0432 145.11 38.6149 145.11 38.6149C145.11 38.6149 145.67 45.1216 154.412 35.2293Z" fill="black"/>
<path d="M154.412 34.1183C154.412 34.1183 159.796 33.7216 162.355 41.2599C164.914 48.7982 162.568 71.942 162.568 71.942C162.568 71.942 159.85 73.6084 158.597 73.5026C157.344 73.3968 152.36 71.5982 150.414 71.175C148.469 70.7518 143.698 71.8362 142.045 71.3072C140.393 70.7782 141.859 50.0413 142.712 44.7248C143.618 38.9323 145.11 37.504 145.11 37.504C145.11 37.504 145.67 44.0107 154.412 34.1183Z" fill="#079D49"/>
<path d="M162.116 51.5491C162.116 51.5491 161.05 64.8799 159.77 66.2289C156.172 70.0377 140.18 72.9472 140.18 72.9472C140.18 72.9472 134.689 79.6126 131.997 78.0785C126.826 75.1161 138.821 70.117 138.821 70.117C138.821 70.117 153.373 63.7426 154.173 62.4994C154.946 61.2563 154.013 51.5491 154.013 51.5491H162.116V51.5491Z" fill="#FFB9B9"/>
<path opacity="0.1" d="M162.222 53.1625C162.062 53.665 152.2 55.1462 151.4 53.956C150.787 53.0567 152.307 44.5397 153.026 40.7309C153.239 39.62 154.092 38.7472 155.185 38.5356L157.584 38.0594C160.702 38.1388 162.382 52.6599 162.222 53.1625Z" fill="black"/>
<path d="M163.208 51.8664C163.048 52.3425 153.692 53.8766 152.919 52.7922C152.306 51.9458 153.612 44.0372 154.252 40.4929C154.439 39.4613 155.238 38.6414 156.278 38.4298L158.543 37.9537C161.502 37.9272 163.368 51.3903 163.208 51.8664Z" fill="#079D49"/>
</g>
<defs>
<clipPath id="clip0">
<rect width="260" height="130" fill="white"/>
</clipPath>
</defs>
</svg>
