<svg width="22" height="22" viewBox="0 0 22 22" fill="none" xmlns="http://www.w3.org/2000/svg">
<path fill-rule="evenodd" clip-rule="evenodd" d="M11.593 21.7043H1.19791C0.53613 21.7043 0 21.1679 0 20.5064V1.19791C0 0.536213 0.536214 0 1.19791 0H20.5065C21.168 0 21.7043 0.536213 21.7043 1.19791V20.5064C21.7043 21.168 21.168 21.7043 20.5065 21.7043H14.9757V13.2992H17.7969L18.2193 10.0236H14.9757V7.93233C14.9757 6.98396 15.239 6.33767 16.599 6.33767L18.3335 6.33691V3.40717C18.0336 3.36725 17.0039 3.27807 15.806 3.27807C13.3051 3.27807 11.593 4.80459 11.593 7.60792V10.0236H8.76454V13.2992H11.593V21.7043Z" fill="#4460A0"/>
</svg>
