<svg width="137" height="42" viewBox="0 0 137 42" fill="none" xmlns="http://www.w3.org/2000/svg">
<rect x="1" y="1" width="135" height="40" rx="5" stroke="#333333"/>
<path fill-rule="evenodd" clip-rule="evenodd" d="M48.7401 24.06V25.86H53.0601C52.9924 26.7078 52.6399 27.5078 52.0601 28.13C51.1861 29.0202 49.9766 29.4997 48.7301 29.45C46.0791 29.45 43.9301 27.301 43.9301 24.65C43.9301 21.999 46.0791 19.85 48.7301 19.85C49.9479 19.8302 51.1239 20.2941 52.0001 21.14L53.2701 19.87C52.075 18.6599 50.4408 17.9853 48.7401 18C46.3191 17.9058 44.0405 19.1437 42.802 21.2261C41.5634 23.3085 41.5634 25.9016 42.802 27.984C44.0405 30.0663 46.3191 31.3042 48.7401 31.21C50.4719 31.2883 52.1528 30.6137 53.3501 29.36C54.3978 28.2089 54.9571 26.6958 54.9101 25.14C54.9133 24.761 54.8798 24.3826 54.8101 24.01L48.7401 24.06ZM59.8301 22.75C57.4842 22.7555 55.5864 24.6608 55.5901 27.0067C55.5938 29.3526 57.4975 31.2518 59.8434 31.25C62.1893 31.2482 64.0901 29.3459 64.0901 27C64.1066 25.8644 63.6613 24.7707 62.8564 23.9695C62.0514 23.1683 60.9556 22.7282 59.8201 22.75H59.8301ZM64.9101 27.0133C64.9028 24.6687 66.7955 22.761 69.1401 22.75C70.2756 22.7282 71.3714 23.1683 72.1764 23.9695C72.9813 24.7707 73.4266 25.8644 73.4101 27C73.4101 29.3446 71.5113 31.2463 69.1667 31.25C66.8221 31.2536 64.9175 29.3579 64.9101 27.0133ZM66.6321 28.1185C67.0888 29.0743 68.0833 29.6539 69.1401 29.58C69.8034 29.5646 70.4323 29.282 70.8842 28.7962C71.3361 28.3104 71.5726 27.6627 71.5401 27C71.5375 25.9407 70.8876 24.9905 69.9013 24.6041C68.9149 24.2176 67.7926 24.4734 67.0711 25.2491C66.3495 26.0247 66.1755 27.1626 66.6321 28.1185ZM57.3154 28.1261C57.7753 29.0814 58.7728 29.6581 59.8301 29.58H59.8201C60.4834 29.5646 61.1123 29.282 61.5642 28.7962C62.0161 28.3104 62.2526 27.6627 62.2201 27C62.2172 25.9398 61.566 24.9893 60.5785 24.6037C59.5909 24.2181 58.4679 24.4759 57.7474 25.2537C57.0269 26.0315 56.8556 27.1708 57.3154 28.1261ZM90.4101 22.75C92.068 22.8111 93.5162 23.8892 94.0501 25.46L94.2601 25.91L88.5701 28.26C88.9267 29.0722 89.7437 29.5838 90.6301 29.55C91.486 29.5522 92.2798 29.104 92.7201 28.37L94.1701 29.37C93.3807 30.5515 92.051 31.2577 90.6301 31.25C89.5007 31.2666 88.413 30.8231 87.6171 30.0216C86.8213 29.22 86.3855 28.1293 86.4101 27C86.341 25.8965 86.7317 24.8137 87.4895 24.0085C88.2472 23.2034 89.3045 22.7479 90.4101 22.75ZM88.2501 26.88C88.2091 26.2552 88.4214 25.6402 88.8391 25.1736C89.2567 24.7071 89.8446 24.4282 90.4701 24.4C91.1295 24.3566 91.7512 24.7107 92.0501 25.3L88.2501 26.88ZM85.5001 31H83.6301V18.5H85.5001V31ZM80.5701 23.7H80.5001C79.9301 23.0627 79.1152 22.6989 78.2601 22.7C75.9902 22.8101 74.2064 24.6825 74.2064 26.955C74.2064 29.2275 75.9902 31.0999 78.2601 31.21C79.1179 31.2244 79.9381 30.8583 80.5001 30.21H80.5601V30.82C80.5601 32.45 79.6901 33.32 78.2901 33.32C77.3364 33.2977 76.4908 32.701 76.1501 31.81L74.5201 32.49C75.1478 34.0168 76.6393 35.0099 78.2901 35C80.4801 35 82.2901 33.71 82.2901 30.57V23H80.5701V23.7ZM78.427 29.5797L78.4301 29.58H78.4201L78.427 29.5797ZM80.1121 28.7778C79.6829 29.2634 79.0743 29.553 78.427 29.5797C77.0914 29.4604 76.0675 28.3413 76.0675 27C76.0675 25.6577 77.093 24.5379 78.4301 24.42C79.0762 24.4532 79.6816 24.7458 80.1089 25.2315C80.5363 25.7172 80.7495 26.3549 80.7001 27C80.7552 27.6481 80.5428 28.2904 80.1121 28.7778ZM102.81 18.5H98.3401V31H100.21V26.26H102.82C104.273 26.3644 105.662 25.6485 106.42 24.405C107.178 23.1615 107.178 21.5986 106.42 20.355C105.662 19.1115 104.273 18.3957 102.82 18.5H102.81ZM100.2 24.5H102.81L102.85 24.53C104.035 24.53 104.995 23.5697 104.995 22.385C104.995 21.2004 104.035 20.24 102.85 20.24H100.2V24.5ZM114.34 22.7C112.949 22.6169 111.641 23.3671 111.01 24.61L112.67 25.3C113.005 24.6837 113.671 24.3229 114.37 24.38C114.85 24.324 115.332 24.463 115.708 24.7657C116.084 25.0685 116.322 25.5096 116.37 25.99V26.12C115.769 25.802 115.1 25.6371 114.42 25.64C112.63 25.64 110.82 26.64 110.82 28.45C110.856 29.2297 111.205 29.9618 111.789 30.4798C112.373 30.9978 113.142 31.2575 113.92 31.2C114.879 31.2689 115.8 30.8087 116.32 30H116.38V31H118.18V26.19C118.18 24 116.52 22.73 114.39 22.73L114.34 22.7ZM112.65 28.49C112.65 29.24 113.5 29.55 114.11 29.55L114.16 29.58C115.287 29.5526 116.221 28.6994 116.35 27.58C115.831 27.2904 115.244 27.1454 114.65 27.16C113.71 27.16 112.65 27.49 112.65 28.49ZM124.74 23L122.6 28.42H122.54L120.32 23H118.32L121.65 30.58L119.75 34.79H121.7L126.82 23H124.74ZM109.8 31H107.93V18.5H109.8V31Z" fill="#333333"/>
<path fill-rule="evenodd" clip-rule="evenodd" d="M70.2102 8.76997C69.0304 10.0187 69.0304 11.9712 70.2102 13.22C71.4272 14.4302 73.3932 14.4302 74.6102 13.22C75.7949 11.9732 75.7949 10.0167 74.6102 8.76997C74.0282 8.18372 73.2362 7.854 72.4102 7.854C71.5841 7.854 70.7922 8.18372 70.2102 8.76997ZM47.6702 13.24C48.1834 12.7041 48.4545 11.9812 48.4202 11.24C48.4202 11.0891 48.4068 10.9385 48.3802 10.79H45.4702V11.51H47.6402C47.6253 11.9635 47.4479 12.3965 47.1402 12.73C46.4548 13.3925 45.4381 13.5776 44.5631 13.1992C43.6881 12.8208 43.1268 11.9532 43.1402 11C43.1184 10.3692 43.3546 9.75676 43.7942 9.30391C44.2338 8.85106 44.839 8.59687 45.4702 8.59997C46.098 8.56566 46.7055 8.82865 47.1102 9.30997L47.6402 8.77997C47.3841 8.48553 47.062 8.25592 46.7002 8.10997C46.3115 7.94364 45.8929 7.85856 45.4702 7.85997C44.6407 7.84149 43.8407 8.1673 43.2602 8.75997C42.3667 9.65929 42.0994 11.0066 42.5819 12.1789C43.0643 13.3512 44.2025 14.12 45.4702 14.13C46.2966 14.1594 47.0966 13.8358 47.6702 13.24ZM50.3002 8.73997H53.0002V7.99997H49.5002V14H53.0002V13.26H50.3002V11.36H52.7602V10.64H50.3002V8.73997ZM56.2802 14H55.5102V8.73997H53.8302V7.99997H58.0002V8.73997H56.2802V14ZM61.7102 7.99997H60.9402V14H61.7102V7.99997ZM65.1302 14H64.3602V8.73997H62.6802V7.99997H66.8002V8.73997H65.1302V14ZM77.5202 7.99997H76.5802V14H77.3602V9.10997L80.4102 14H81.2102V7.99997H80.4402V12.67L77.5202 7.99997ZM70.7802 12.72C71.6815 13.6175 73.1388 13.6175 74.0402 12.72C74.9254 11.7441 74.9254 10.2558 74.0402 9.27997C73.1388 8.38241 71.6815 8.38241 70.7802 9.27997C69.895 10.2558 69.895 11.7441 70.7802 12.72Z" fill="#333333"/>
<path d="M11.4401 8.54009C11.1142 8.9312 10.9497 9.43189 10.9801 9.94009V32.0601C10.9497 32.5683 11.1142 33.069 11.4401 33.4601L11.5101 33.5301L23.9001 21.1501V20.8601L11.5101 8.47009L11.4401 8.54009Z" fill="url(#paint0_linear)"/>
<path d="M28.0004 25.2801L23.9004 21.1501V20.8601L28.0004 16.7201L28.0904 16.7701L33.0004 19.5601C34.4004 20.3501 34.4004 21.6501 33.0004 22.4501L28.1104 25.2301L28.0004 25.2801Z" fill="url(#paint1_linear)"/>
<path d="M28.1204 25.22L23.9004 21L11.4404 33.46C12.0291 33.9775 12.9029 34.0027 13.5204 33.52L28.1304 25.22" fill="url(#paint2_linear)"/>
<path d="M28.1202 16.7801L13.5102 8.48005C12.8926 7.99733 12.0189 8.02253 11.4302 8.54005L23.9002 21.0001L28.1202 16.7801Z" fill="url(#paint3_linear)"/>
<path opacity="0.2" d="M28.0004 25.13L13.5104 33.38C12.9175 33.8233 12.1034 33.8233 11.5104 33.38L11.4404 33.45L11.5104 33.52C12.1023 33.9667 12.9186 33.9667 13.5104 33.52L28.1204 25.22L28.0004 25.13Z" fill="black"/>
<path opacity="0.12" fill-rule="evenodd" clip-rule="evenodd" d="M28.0001 25.13L33.0001 22.3C33.5169 22.045 33.8862 21.5648 34.0001 21C33.9486 21.6244 33.5672 22.1736 33.0001 22.44L28.0901 25.22L28.0001 25.13ZM10.978 32.1147C10.9945 32.5546 11.156 32.979 11.4401 33.32L11.5101 33.4L11.4401 33.47C11.1238 33.0904 10.9595 32.6075 10.978 32.1147ZM10.978 32.1147C10.9785 32.0998 10.9793 32.0849 10.9801 32.07V31.92C10.9762 31.9851 10.9755 32.05 10.978 32.1147Z" fill="black"/>
<path opacity="0.25" d="M13.5102 8.62006L33.0002 19.7001C33.5169 19.9551 33.8862 20.4352 34.0002 21.0001C33.9487 20.3757 33.5673 19.8264 33.0002 19.5601L13.5102 8.48006C12.1102 7.69006 10.9702 8.35006 10.9702 9.95006V10.1001C11.0002 8.49006 12.1202 7.83006 13.5102 8.62006Z" fill="white"/>
<defs>
<linearGradient id="paint0_linear" x1="18.4734" y1="-6.55888" x2="-1.36605" y2="-1.28254" gradientUnits="userSpaceOnUse">
<stop stop-color="#00A0FF"/>
<stop offset="0.01" stop-color="#00A1FF"/>
<stop offset="0.26" stop-color="#00BEFF"/>
<stop offset="0.51" stop-color="#00D2FF"/>
<stop offset="0.76" stop-color="#00DFFF"/>
<stop offset="1" stop-color="#00E3FF"/>
</linearGradient>
<linearGradient id="paint1_linear" x1="34.8304" y1="10.7998" x2="10.6404" y2="10.7998" gradientUnits="userSpaceOnUse">
<stop stop-color="#FFE000"/>
<stop offset="0.41" stop-color="#FFBD00"/>
<stop offset="0.78" stop-color="#FFA500"/>
<stop offset="1" stop-color="#FF9C00"/>
</linearGradient>
<linearGradient id="paint2_linear" x1="11.0743" y1="14.5275" x2="-4.86212" y2="41.3341" gradientUnits="userSpaceOnUse">
<stop stop-color="#FF3A44"/>
<stop offset="1" stop-color="#C31162"/>
</linearGradient>
<linearGradient id="paint3_linear" x1="1.71019" y1="5.09606" x2="8.82348" y2="17.0665" gradientUnits="userSpaceOnUse">
<stop stop-color="#32A071"/>
<stop offset="0.07" stop-color="#2DA771"/>
<stop offset="0.48" stop-color="#15CF74"/>
<stop offset="0.8" stop-color="#06E775"/>
<stop offset="1" stop-color="#00F076"/>
</linearGradient>
</defs>
</svg>
