<svg width="21" height="19" viewBox="0 0 21 19" fill="none" xmlns="http://www.w3.org/2000/svg">
<path fill-rule="evenodd" clip-rule="evenodd" d="M20.7999 18.774H16.4027V12.4157C16.4027 10.7514 15.7149 9.61525 14.2024 9.61525C13.0455 9.61525 12.4021 10.382 12.1026 11.1209C11.9903 11.3861 12.0079 11.7555 12.0079 12.125V18.774H7.65161C7.65161 18.774 7.70776 7.51088 7.65161 6.48707H12.0079V8.41541C12.2652 7.57227 13.6573 6.36894 15.8787 6.36894C18.6347 6.36894 20.7999 8.13629 20.7999 11.942V18.774ZM3.2462 4.95019H3.21813C1.81439 4.95019 0.904297 4.01092 0.904297 2.82033C0.904297 1.60658 1.84129 0.687012 3.2731 0.687012C4.70375 0.687012 5.58342 1.60428 5.6115 2.81687C5.6115 4.00746 4.70374 4.95019 3.2462 4.95019ZM1.40612 6.48707H5.28396V18.774H1.40612V6.48707Z" fill="#007EBB"/>
</svg>
