<svg width="231" height="160" viewBox="0 0 231 160" fill="none" xmlns="http://www.w3.org/2000/svg">
<path d="M219.258 81.8319C219.258 123.243 180.64 156.817 132.999 156.817C85.3575 156.817 81.8509 136.448 43.9491 115.334C-2.48969 89.4624 102.183 -27.3106 132.999 6.84693C153.735 29.8371 219.258 17.3949 219.258 81.8319Z" fill="#CECECE"/>
<path d="M157.829 141.583C179.273 141.332 200.716 141.475 222.159 142.005C224.004 142.05 225.913 142.113 227.547 142.588C229.181 143.064 230.43 144.088 229.98 145.075C221.608 145.317 213.227 145.389 204.847 145.3C203.02 146.17 201.019 147.49 202.139 148.675C202.919 149.492 204.837 149.734 206.508 149.734C209.546 149.734 212.594 149.249 215.586 149.537C218.579 149.824 221.562 151.359 220.69 152.957C220.02 154.169 217.496 154.77 215.201 154.878C212.906 154.986 210.547 154.761 208.307 155.049C206.168 155.318 204.323 156.027 202.322 156.53C199.174 157.311 195.676 157.553 192.243 157.76C165.852 159.34 139.241 159.322 112.694 159.313C101.945 159.304 91.0492 159.295 80.6764 157.76C74.7649 156.889 69.092 155.524 63.0978 154.824C55.9378 153.98 48.5483 154.097 41.2323 154.124C28.3903 154.169 15.5483 153.926 2.72466 153.397C1.76999 153.361 0.59505 153.226 0.338026 152.715C0.0351046 152.122 1.25596 151.664 2.28406 151.431C8.12218 150.111 14.0704 149.24 20.0462 148.836C23.0754 148.63 26.1964 148.522 28.987 147.84C31.7775 147.158 34.2101 145.712 34.1826 144.034C34.1734 143.522 33.9531 142.974 34.3937 142.526C34.972 141.924 36.404 141.789 37.6341 141.718C51.2839 140.991 65.0071 140.685 78.7212 140.811C83.5404 140.856 88.3871 140.946 93.1788 140.631C97.0984 140.371 100.945 139.833 104.809 139.384C109.995 138.782 132.586 135.658 135.882 138.19C138.351 140.084 133.256 140.497 139.875 141.269C145.639 141.942 151.991 141.655 157.829 141.583Z" fill="#F2F2F2"/>
<path d="M74.3524 132.929C74.3524 132.929 66.4029 148.316 73.1682 148.316C79.9334 148.316 165.21 148.648 167.579 144.348C169.24 141.332 168.322 130.604 167.625 124.446C167.34 121.959 165.128 120.128 162.576 120.263C144.134 121.259 75.2336 124.949 75.5365 124.491C76.1332 123.584 75.7017 123.827 75.7017 123.827C75.7017 123.827 73.003 132.265 74.3524 132.929Z" fill="#DBAD46"/>
<path opacity="0.1" d="M167.798 124.446C167.514 121.959 165.301 120.128 162.75 120.263C144.308 121.259 75.4074 124.949 75.7103 124.491C76.3069 123.584 75.8756 123.827 75.8756 123.827C75.8756 123.827 75.2697 125.712 74.774 127.768C74.8474 127.759 74.8933 127.821 74.6638 128.216C74.6455 128.306 74.6271 128.396 74.5996 128.486C77.3626 128.755 143.537 125.209 161.556 124.24C164.108 124.105 166.32 125.936 166.605 128.423C167.119 133.001 167.762 140.102 167.376 144.689C167.523 144.609 167.651 144.492 167.743 144.357C169.405 141.332 168.496 130.604 167.798 124.446Z" fill="black"/>
<path d="M83.8351 109.867C82.9539 109.606 81.834 109.265 81.935 108.709C81.9901 108.413 82.3939 108.179 82.6877 107.937C83.2568 107.461 83.4037 106.788 82.7978 106.321C82.192 105.863 80.7325 105.8 80.1909 106.285C79.9155 106.536 79.9338 106.851 79.7869 107.138C79.3463 108.027 77.5472 108.413 76.0234 108.754C74.4996 109.095 72.7923 109.741 72.9391 110.657C73.0952 111.653 75.4452 112.542 74.4997 113.395C74.1601 113.7 73.4348 113.88 73.2788 114.23C73.1686 114.481 73.3889 114.732 73.6 114.957L75.0963 116.573C75.6929 117.219 76.308 117.91 76.1061 118.628C75.7114 120.047 72.4985 120.585 69.9466 120.424C69.0103 120.37 67.918 120.289 67.2755 120.666C66.7798 120.962 66.7797 121.42 66.9449 121.815C67.3672 122.83 68.7166 123.709 70.4515 124.095C68.5147 124.472 67.7528 126.043 69.093 126.914C68.3219 127.175 67.4957 127.192 66.7154 126.977C66.0545 127.57 66.4401 128.395 67.2846 128.916C68.1291 129.437 69.3133 129.733 70.4699 130.011L69.3867 130.999C70.1669 131.591 71.856 131.385 72.9943 131.008C74.1325 130.631 75.3625 130.128 76.6385 130.325C77.8318 130.514 78.7405 131.286 79.9522 131.16C80.8977 131.053 81.3475 130.46 81.6412 129.957L82.8896 127.785C84.6704 128.054 86.5339 126.869 85.8179 125.918C87.8098 126.124 89.765 124.867 89.1133 123.79C90.1689 124.589 90.9216 125.514 91.2796 126.492C91.4448 126.923 91.5458 127.39 91.9864 127.758C92.5739 128.189 93.3358 128.324 94.0426 128.117C93.6754 128.808 93.3909 129.607 94.1344 130.191C94.8779 130.774 97.026 130.613 96.9342 129.895C98.0724 130.37 99.3484 130.819 100.762 130.855C102.185 130.891 103.736 130.361 103.865 129.571C105.866 130.218 107.959 130.55 110.07 130.55C110.254 130.02 111.502 129.85 112.438 129.975C113.375 130.101 114.247 130.415 115.21 130.415C116.174 130.415 117.212 129.85 116.716 129.383C118.745 129.796 120.828 129.904 122.894 129.688C124.84 129.482 126.685 129.006 128.658 128.898C130.659 128.781 132.66 129.087 134.524 129.805C135.166 130.074 135.974 130.406 136.681 130.2C137.085 130.083 137.278 129.832 137.553 129.625C138.728 128.754 141.133 128.916 142.997 129.266C144.851 129.607 147.017 130.02 148.642 129.419C149.257 129.185 149.707 128.835 150.358 128.647C152.699 127.956 155.499 129.724 157.977 129.212C158.785 129.051 159.446 128.656 160.3 128.602C161.814 128.512 162.824 129.527 164.302 129.742C165.835 129.966 167.496 129.051 167.12 128.198C168.589 128.234 170.057 128.027 171.471 127.605L170.774 126.385C172.508 126.358 173.784 125.146 172.977 124.284C174.711 123.961 176.088 123.09 176.446 122.085C176.804 121.079 176.134 119.984 174.748 119.311C173.931 118.916 172.857 118.637 172.389 118.09C172.049 117.695 172.105 117.237 171.967 116.815C171.682 115.872 170.443 115.047 168.837 114.723C168.139 114.58 167.377 114.526 166.744 114.31C166.11 114.095 165.661 113.619 166.019 113.26C166.211 113.072 166.579 112.955 166.826 112.784C167.799 112.084 166.129 111.195 164.706 110.8L168.102 110.693L168.837 107.452C167.487 108.52 163.999 108.296 163.127 107.084C164.219 107.434 165.688 106.985 166.22 106.348C166.753 105.71 166.624 104.965 166.478 104.265C166.45 103.915 166.239 103.601 165.908 103.439C165.578 103.287 165.046 103.224 164.935 102.981C164.825 102.739 165.257 102.533 165.321 102.29C165.44 101.823 164.339 101.617 163.595 101.384C161.842 100.845 160.988 99.3457 158.987 99.3906C157.004 99.4355 156.444 100.917 156.444 102.03C156.444 103.143 155.774 104.624 153.782 104.606C152.993 104.597 152.295 104.319 151.662 104.05L145.971 101.653C145.218 101.312 144.438 101.033 143.639 100.836C142.492 100.576 141.225 100.54 139.986 100.513L132.027 100.333C131.623 100.306 131.21 100.333 130.825 100.432C130.402 100.567 130.2 100.836 129.953 101.069C128.842 102.084 126.244 102.488 124.362 101.922C123.867 101.77 123.417 101.572 122.894 101.455C121.232 101.105 119.488 101.752 117.753 101.994C114.917 102.38 111.401 101.716 109.354 102.883C108.675 103.269 108.307 103.798 107.683 104.211C107.05 104.624 105.912 104.903 105.113 104.597C105.214 105.36 105.306 106.15 104.783 106.851C104.259 107.551 102.91 108.125 101.588 107.946C100.881 107.766 100.946 107.183 101.276 106.797C101.606 106.411 102.121 106.007 101.955 105.585C101.79 105.163 101.037 104.921 100.477 104.633C99.9175 104.337 99.5411 103.789 100.138 103.52C99.7339 103.017 98.2927 103.08 97.6502 103.502C97.0168 103.924 96.9526 104.526 96.8791 105.073C96.8057 105.63 96.6588 106.231 95.9245 106.599C94.6669 107.228 92.2527 106.904 91.4265 107.721C91.1603 107.982 91.142 108.296 90.9951 108.583C90.3158 109.867 87.3968 110.199 85.0193 110.307C84.9734 110.576 84.955 110.845 84.9825 111.115C85.7811 110.747 84.4226 110.046 83.8351 109.867Z" fill="#61AB43"/>
<path opacity="0.1" d="M166.477 108.404C166.624 109.104 166.753 109.849 166.22 110.486C166.138 110.576 166.055 110.666 165.954 110.738C166.67 110.711 167.395 110.693 168.111 110.666C168.359 109.589 168.598 108.512 168.846 107.425C168.286 107.865 167.359 108.09 166.404 108.108C166.431 108.206 166.459 108.305 166.477 108.404Z" fill="black"/>
<path opacity="0.1" d="M167.1 112.22C167.018 111.78 166.274 111.34 165.448 111.017C164.723 111.358 163.896 111.43 163.116 111.214C163.722 112.058 165.567 112.417 167.1 112.22Z" fill="black"/>
<path opacity="0.1" d="M168.157 114.571C168.138 114.652 168.12 114.733 168.102 114.823C166.972 114.859 165.834 114.894 164.705 114.93C166.128 115.325 167.799 116.214 166.826 116.914C166.587 117.085 166.211 117.202 166.018 117.39C165.651 117.749 166.11 118.225 166.743 118.44C167.376 118.656 168.138 118.71 168.836 118.853C170.442 119.177 171.681 120.002 171.966 120.945C172.095 121.376 172.049 121.834 172.388 122.22C172.856 122.767 173.93 123.046 174.747 123.441C174.83 123.476 174.903 123.521 174.977 123.557C175.711 123.144 176.244 122.624 176.446 122.049C176.804 121.044 176.134 119.949 174.747 119.275C173.93 118.88 172.856 118.602 172.388 118.054C172.049 117.659 172.104 117.202 171.966 116.78C171.681 115.837 170.442 115.011 168.836 114.688C168.606 114.643 168.386 114.607 168.157 114.571Z" fill="black"/>
<path opacity="0.1" d="M68.5509 129.482C68.8171 128.934 69.4873 128.44 70.4603 128.252C69.5332 128.063 68.6611 127.677 67.8992 127.121C67.5045 127.13 67.1006 127.085 66.7242 126.977C66.0633 127.57 66.4488 128.395 67.2934 128.916C67.6881 129.149 68.1103 129.338 68.5509 129.482Z" fill="black"/>
<path opacity="0.1" d="M74.5449 113.35C75.0315 113.17 75.5271 113.027 76.032 112.919C77.5558 112.578 79.3549 112.183 79.7956 111.303C79.9332 111.016 79.9241 110.702 80.1995 110.45C80.7319 109.966 82.2006 110.02 82.8064 110.486C83.4123 110.944 83.2562 111.617 82.6963 112.102C82.4025 112.354 81.9987 112.578 81.9436 112.874C81.8426 113.431 82.9625 113.772 83.8437 114.032C84.2568 114.167 84.6515 114.364 84.9911 114.625C85.0003 114.562 85.0095 114.508 85.0095 114.445C87.3962 114.337 90.3152 114.005 90.9853 112.722C91.1322 112.434 91.1505 112.12 91.4167 111.86C92.2521 111.043 94.6663 111.366 95.9147 110.738C96.649 110.37 96.8051 109.759 96.8694 109.212C96.9428 108.655 96.9979 108.063 97.6404 107.641C98.2738 107.219 99.7241 107.156 100.128 107.659C99.5313 107.928 99.9077 108.484 100.468 108.772C101.028 109.068 101.78 109.31 101.946 109.723C102.111 110.145 101.606 110.549 101.266 110.935C100.936 111.33 100.881 111.905 101.578 112.084C102.9 112.264 104.25 111.689 104.773 110.989C105.296 110.289 105.204 109.499 105.103 108.736C105.902 109.05 107.04 108.772 107.673 108.35C108.307 107.928 108.665 107.407 109.344 107.021C111.391 105.854 114.907 106.518 117.743 106.132C119.469 105.899 121.213 105.244 122.884 105.594C123.416 105.702 123.857 105.908 124.353 106.061C126.234 106.617 128.841 106.222 129.943 105.208C130.191 104.974 130.402 104.705 130.815 104.57C131.21 104.472 131.613 104.436 132.017 104.472C134.67 104.535 137.323 104.588 139.976 104.651C141.215 104.678 142.482 104.714 143.629 104.974C144.428 105.181 145.217 105.45 145.961 105.791C147.861 106.59 149.752 107.389 151.652 108.188C152.286 108.458 152.974 108.736 153.773 108.745C155.755 108.763 156.425 107.282 156.435 106.168C156.435 105.055 156.995 103.574 158.977 103.529C160.978 103.484 161.832 104.983 163.585 105.522C164.329 105.746 165.43 105.953 165.311 106.429C165.256 106.644 164.907 106.842 164.907 107.048C165.403 106.931 165.853 106.68 166.202 106.321C166.734 105.684 166.605 104.939 166.459 104.238C166.431 103.888 166.22 103.574 165.889 103.412C165.559 103.26 165.027 103.197 164.917 102.955C164.806 102.712 165.238 102.506 165.302 102.263C165.421 101.797 164.32 101.59 163.576 101.357C161.823 100.818 160.969 99.3189 158.968 99.3638C156.985 99.4087 156.426 100.89 156.426 102.003C156.426 103.116 155.755 104.597 153.763 104.579C152.974 104.57 152.276 104.292 151.643 104.023C149.743 103.224 147.852 102.425 145.952 101.626C145.199 101.285 144.419 101.007 143.62 100.809C142.473 100.549 141.206 100.513 139.967 100.486C137.314 100.423 134.661 100.369 132.008 100.306C131.604 100.279 131.191 100.306 130.806 100.405C130.383 100.54 130.181 100.809 129.934 101.043C128.823 102.057 126.225 102.461 124.343 101.895C123.848 101.743 123.398 101.545 122.875 101.429C121.213 101.078 119.469 101.725 117.734 101.967C114.898 102.353 111.382 101.689 109.335 102.856C108.656 103.242 108.289 103.772 107.664 104.184C107.04 104.597 105.893 104.876 105.094 104.57C105.195 105.334 105.287 106.123 104.764 106.824C104.24 107.524 102.891 108.098 101.569 107.919C100.862 107.739 100.917 107.156 101.257 106.77C101.588 106.375 102.102 105.98 101.936 105.558C101.771 105.136 101.018 104.894 100.458 104.606C99.8985 104.31 99.5222 103.763 100.119 103.493C99.7149 102.99 98.2738 103.053 97.6312 103.475C96.9979 103.897 96.9336 104.499 96.8602 105.046C96.7868 105.594 96.6399 106.204 95.9055 106.572C94.6479 107.201 92.2337 106.878 91.4076 107.694C91.1413 107.955 91.123 108.269 90.9761 108.556C90.2969 109.84 87.3778 110.172 85.0003 110.28C84.9911 110.343 84.9911 110.397 84.982 110.459C84.6331 110.199 84.2476 110.002 83.8345 109.867C82.9533 109.607 81.8335 109.265 81.9344 108.709C81.9895 108.413 82.3934 108.179 82.6871 107.937C83.2562 107.461 83.4031 106.788 82.7972 106.321C82.1914 105.854 80.7319 105.8 80.1903 106.285C79.9149 106.536 79.9332 106.851 79.7864 107.138C79.3458 108.027 77.5466 108.413 76.0228 108.754C74.499 109.095 72.7917 109.741 72.9385 110.657C73.0946 111.635 75.3711 112.506 74.5449 113.35Z" fill="black"/>
<path opacity="0.1" d="M70.4593 124.095C70.0371 124.167 69.6423 124.329 69.2751 124.544C69.5046 124.553 69.7341 124.571 69.9452 124.58C72.4971 124.742 75.71 124.194 76.1047 122.785C76.3066 122.067 75.6915 121.375 75.0949 120.729C74.8562 120.469 74.6176 120.217 74.3789 119.957C73.1305 120.37 71.4323 120.514 69.9452 120.424C69.0089 120.37 67.9166 120.289 67.2741 120.666C66.7784 120.962 66.7783 121.42 66.9435 121.815C67.3749 122.83 68.7244 123.709 70.4593 124.095Z" fill="black"/>
<path d="M148.246 119.104C162.264 119.104 173.628 111.769 173.628 102.721C173.628 93.6728 162.264 86.3379 148.246 86.3379C134.229 86.3379 122.865 93.6728 122.865 102.721C122.865 111.769 134.229 119.104 148.246 119.104Z" fill="#EA565C"/>
<path opacity="0.2" d="M139.617 101.563C139.617 101.563 128.115 102.721 131.493 97.9183C134.88 93.1156 139.103 91.4638 141.141 92.7924C143.169 94.112 144.014 97.7567 143.674 97.7567C143.335 97.7567 138.433 94.9469 136.735 97.0924C135.055 99.2469 139.617 101.563 139.617 101.563Z" fill="white"/>
<path opacity="0.2" d="M149.586 102.03C149.586 102.03 159.087 108.485 153.322 109.966C147.558 111.447 143.243 110.011 142.591 107.713C141.931 105.415 143.711 102.111 143.968 102.327C144.225 102.542 146.07 107.802 148.788 107.246C151.514 106.698 149.586 102.03 149.586 102.03Z" fill="white"/>
<path opacity="0.2" d="M151.808 97.9902C151.808 97.9902 152.56 86.7061 156.829 90.7637C161.097 94.8213 162.07 99.1842 160.39 100.917C158.72 102.658 154.91 102.865 154.965 102.533C155.02 102.2 158.674 97.9453 156.792 95.9524C154.901 93.9685 151.808 97.9902 151.808 97.9902Z" fill="white"/>
<path d="M122.359 117.615C136.376 117.615 147.74 110.28 147.74 101.232C147.74 92.1836 136.376 84.8486 122.359 84.8486C108.341 84.8486 96.9775 92.1836 96.9775 101.232C96.9775 110.28 108.341 117.615 122.359 117.615Z" fill="#EA565C"/>
<path opacity="0.2" d="M113.731 100.073C113.731 100.073 102.229 101.231 105.607 96.4286C108.995 91.6258 113.217 89.9741 115.255 91.3027C117.284 92.6223 118.128 96.267 117.789 96.267C117.449 96.267 112.547 93.4571 110.849 95.6027C109.16 97.7571 113.731 100.073 113.731 100.073Z" fill="white"/>
<path opacity="0.2" d="M123.7 100.549C123.7 100.549 133.201 107.004 127.436 108.485C121.672 109.966 117.357 108.53 116.706 106.232C116.045 103.934 117.826 100.63 118.083 100.846C118.34 101.061 120.185 106.322 122.902 105.765C125.628 105.217 123.7 100.549 123.7 100.549Z" fill="white"/>
<path opacity="0.2" d="M125.922 96.5005C125.922 96.5005 126.675 85.2164 130.943 89.274C135.221 93.3406 136.185 97.6944 134.505 99.427C132.834 101.169 129.025 101.375 129.08 101.043C129.135 100.711 132.788 96.4556 130.906 94.4627C129.015 92.4877 125.922 96.5005 125.922 96.5005Z" fill="white"/>
<path d="M91.7365 116.295C105.754 116.295 117.118 108.96 117.118 99.9119C117.118 90.8638 105.754 83.5288 91.7365 83.5288C77.7189 83.5288 66.3555 90.8638 66.3555 99.9119C66.3555 108.96 77.7189 116.295 91.7365 116.295Z" fill="#EA565C"/>
<path opacity="0.2" d="M83.1102 98.7534C83.1102 98.7534 71.6083 99.9114 74.9863 95.1087C78.3736 90.306 82.5961 88.6543 84.6339 89.9829C86.6626 91.3025 87.5071 94.9471 87.1675 94.9471C86.8278 94.9471 81.9261 92.1373 80.2279 94.2829C78.5389 96.4373 83.1102 98.7534 83.1102 98.7534Z" fill="white"/>
<path opacity="0.2" d="M93.0783 99.2207C93.0783 99.2207 102.579 105.675 96.8143 107.156C91.0496 108.638 86.7353 107.201 86.0836 104.903C85.4227 102.605 87.2035 99.3015 87.4605 99.5169C87.7175 99.7324 89.5626 104.993 92.2797 104.436C94.9968 103.889 93.0783 99.2207 93.0783 99.2207Z" fill="white"/>
<path opacity="0.2" d="M95.2998 95.1807C95.2998 95.1807 96.0526 83.8965 100.321 87.9541C104.589 92.0118 105.562 96.3746 103.883 98.1071C102.212 99.8487 98.4025 100.055 98.4576 99.723C98.5127 99.3999 102.166 95.1358 100.284 93.1429C98.3933 91.1589 95.2998 95.1807 95.2998 95.1807Z" fill="white"/>
<path opacity="0.1" d="M104.946 85.9702C110.472 88.9775 113.988 93.475 113.988 98.5021C113.988 107.551 102.624 114.885 88.6071 114.885C83.8063 114.885 79.3175 114.023 75.4805 112.524C79.8958 114.921 85.5962 116.366 91.8199 116.366C105.837 116.366 117.201 109.032 117.201 99.9833C117.201 94.0495 112.29 88.8429 104.946 85.9702Z" fill="black"/>
<path opacity="0.1" d="M135.568 87.1279C141.095 90.1352 144.61 94.6327 144.61 99.6598C144.61 108.709 133.246 116.043 119.229 116.043C114.428 116.043 109.94 115.181 106.103 113.682C110.518 116.079 116.218 117.524 122.442 117.524C136.459 117.524 147.823 110.19 147.823 101.141C147.823 95.2072 142.912 90.0006 135.568 87.1279Z" fill="black"/>
<path opacity="0.1" d="M161.456 88.7803C166.982 91.7876 170.498 96.2851 170.498 101.312C170.498 110.361 159.134 117.695 145.117 117.695C140.316 117.695 135.827 116.833 131.99 115.334C136.406 117.731 142.106 119.176 148.33 119.176C162.347 119.176 173.711 111.842 173.711 102.793C173.711 96.8596 168.8 91.6529 161.456 88.7803Z" fill="black"/>
<path d="M76.3172 96.7698C76.3172 96.7698 98.1459 73.9323 151.607 83.3671C193.869 90.827 159.162 103.655 142.767 108.709C138.012 110.172 133.083 111.043 128.098 111.295C109.602 112.219 63.0805 113.054 76.3172 96.7698Z" fill="#714B4F"/>
<path opacity="0.1" d="M142.765 103.575C138.01 105.038 133.081 105.909 128.096 106.16C113.116 106.914 79.7301 107.605 74.6355 99.1849C68.1915 112.794 110.637 112.004 128.096 111.124C133.081 110.873 138.001 110.002 142.765 108.539C154.781 104.84 176.637 96.9586 170.808 90.0732C166.889 95.4774 151.954 100.747 142.765 103.575Z" fill="black"/>
<path opacity="0.1" d="M122.93 83.4478L128.85 94.8665" stroke="black" stroke-width="0.4627" stroke-miterlimit="10"/>
<path opacity="0.1" d="M104.653 87.5864L109.73 97.1829" stroke="black" stroke-width="0.4627" stroke-miterlimit="10"/>
<path opacity="0.1" d="M133.588 83.4478L141.537 94.8665" stroke="black" stroke-width="0.4627" stroke-miterlimit="10"/>
<path opacity="0.1" d="M104.653 98.1796L157.949 91.5635" stroke="black" stroke-width="0.4627" stroke-miterlimit="10"/>
<path opacity="0.1" d="M155.92 85.6021L159.647 90.7369" stroke="black" stroke-width="0.4627" stroke-miterlimit="10"/>
<path opacity="0.1" d="M94.1602 91.5635L96.5285 96.3572" stroke="black" stroke-width="0.4627" stroke-miterlimit="10"/>
<path d="M154.157 73.4023C154.157 73.4023 161.115 77.2984 163.034 77.8819C164.962 78.4564 174.728 80.6288 169.101 83.3848C163.474 86.1317 133.439 89.175 119.376 99.8845L106.654 106.976C106.654 106.976 104.139 105.818 105.323 104.086C106.507 102.353 117.605 77.1996 117.605 77.1996L136.101 77.1727C136.101 77.1727 141.572 74.1295 146.612 74.1295C151.642 74.1295 154.157 73.4023 154.157 73.4023Z" fill="#FAD375"/>
<path d="M103.552 76.5896C103.552 76.5896 135.809 76.446 136.112 76.1587C136.406 75.8715 143.217 75.7188 144.548 77.595C145.879 79.4712 146.319 80.342 144.548 80.6382C142.776 80.9255 84.3215 110.595 84.3215 110.595C84.3215 110.595 81.0628 110.882 82.6967 107.704C84.3123 104.508 103.552 76.5896 103.552 76.5896Z" fill="#FFDB8A"/>
<path d="M74.3978 76.1495C74.3978 76.1495 68.9269 113.62 74.8385 111.887C80.75 110.154 94.5192 78.8875 119.827 77.8731C119.827 77.8731 121.598 77.2986 119.386 76.1405C117.165 74.9825 101.037 76.724 101.037 76.724L74.3978 76.1495Z" fill="#FFDB8A"/>
<path d="M109.812 85.7369C109.812 87.5234 101.027 91.8593 90.1862 91.8593C79.3453 91.8593 70.5605 87.5234 70.5605 85.7369C70.5605 83.9505 79.3453 83.2593 90.1862 83.2593C101.027 83.2593 109.812 83.9505 109.812 85.7369Z" fill="#61AB43"/>
<path opacity="0.1" d="M109.812 85.7369C109.812 87.5234 101.027 91.8593 90.1862 91.8593C79.3453 91.8593 70.5605 87.5234 70.5605 85.7369C70.5605 83.9505 79.3453 83.2593 90.1862 83.2593C101.027 83.2593 109.812 83.9505 109.812 85.7369Z" fill="black"/>
<path d="M90.1862 88.8791C101.025 88.8791 109.812 87.4362 109.812 85.6563C109.812 83.8765 101.025 82.4336 90.1862 82.4336C79.3472 82.4336 70.5605 83.8765 70.5605 85.6563C70.5605 87.4362 79.3472 88.8791 90.1862 88.8791Z" fill="#61AB43"/>
<path d="M133.495 82.7569C133.495 84.5434 124.711 88.8793 113.87 88.8793C103.029 88.8793 94.2441 84.5434 94.2441 82.7569C94.2441 80.9705 103.029 80.2793 113.87 80.2793C124.711 80.2793 133.495 80.9795 133.495 82.7569Z" fill="#61AB43"/>
<path opacity="0.1" d="M133.495 82.7569C133.495 84.5434 124.711 88.8793 113.87 88.8793C103.029 88.8793 94.2441 84.5434 94.2441 82.7569C94.2441 80.9705 103.029 80.2793 113.87 80.2793C124.711 80.2793 133.495 80.9795 133.495 82.7569Z" fill="black"/>
<path d="M113.87 85.8986C124.709 85.8986 133.495 84.4557 133.495 82.6759C133.495 80.896 124.709 79.4531 113.87 79.4531C103.031 79.4531 94.2441 80.896 94.2441 82.6759C94.2441 84.4557 103.031 85.8986 113.87 85.8986Z" fill="#61AB43"/>
<path d="M157.188 79.7755C157.188 81.5619 148.403 85.8978 137.562 85.8978C126.721 85.8978 117.937 81.5619 117.937 79.7755C117.937 77.9891 126.721 77.2979 137.562 77.2979C148.403 77.2979 157.188 77.9981 157.188 79.7755Z" fill="#61AB43"/>
<path opacity="0.1" d="M157.188 79.7755C157.188 81.5619 148.403 85.8978 137.562 85.8978C126.721 85.8978 117.937 81.5619 117.937 79.7755C117.937 77.9891 126.721 77.2979 137.562 77.2979C148.403 77.2979 157.188 77.9981 157.188 79.7755Z" fill="black"/>
<path d="M137.562 82.9182C148.401 82.9182 157.188 81.4753 157.188 79.6954C157.188 77.9156 148.401 76.4727 137.562 76.4727C126.723 76.4727 117.937 77.9156 117.937 79.6954C117.937 81.4753 126.723 82.9182 137.562 82.9182Z" fill="#61AB43"/>
<path d="M76.9588 80.9075C76.9588 80.9075 68.89 79.6238 73.0208 73.1962C77.1515 66.7687 78.5377 59.5691 80.346 57.9622C82.3655 56.1668 123.948 24.6216 156.342 59.5242C159.776 63.2677 162.566 67.5228 164.604 72.1369C164.999 73.0077 165.43 73.7887 165.852 74.2016C167.165 75.4854 168.294 79.157 165.852 80.9973C163.401 82.8286 91.5082 89.9922 76.9588 80.9075Z" fill="#DBAD46"/>
<path d="M114.787 54.1917C114.291 54.5328 113.704 54.7213 113.098 54.7392C112.162 54.7392 111.409 54.4969 111.409 54.1917C111.409 53.8864 112.162 53.644 113.098 53.644C113.704 53.662 114.282 53.8505 114.787 54.1917Z" fill="#F2F2F2"/>
<path d="M101.267 50.6999C100.771 51.0411 100.183 51.2296 99.5777 51.2475C98.6414 51.2475 97.8887 51.0051 97.8887 50.6999C97.8887 50.3947 98.6414 50.1523 99.5777 50.1523C100.183 50.1703 100.771 50.3678 101.267 50.6999Z" fill="#F2F2F2"/>
<path d="M137.984 55.7898C137.405 55.9694 136.79 55.9783 136.203 55.8257C135.312 55.5564 134.67 55.0986 134.762 54.8024C134.853 54.5151 135.652 54.4971 136.543 54.7664C137.112 54.9639 137.616 55.323 137.984 55.7898Z" fill="#F2F2F2"/>
<path d="M113.016 46.427C112.438 46.6066 111.822 46.6155 111.235 46.4629C110.345 46.1936 109.702 45.7358 109.794 45.4396C109.886 45.1523 110.684 45.1343 111.575 45.4036C112.144 45.6011 112.649 45.9602 113.016 46.427Z" fill="#F2F2F2"/>
<path d="M140.242 49.7303C139.664 49.9098 139.049 49.9188 138.462 49.7662C137.571 49.4968 136.929 49.039 137.02 48.7428C137.112 48.4555 137.911 48.4376 138.801 48.7069C139.361 48.9044 139.866 49.2635 140.242 49.7303Z" fill="#F2F2F2"/>
<path d="M134.68 49.2361C134.184 49.5772 133.597 49.7657 132.991 49.7837C132.054 49.7837 131.302 49.5413 131.302 49.2361C131.302 48.9308 132.054 48.6885 132.991 48.6885C133.597 48.7064 134.184 48.8949 134.68 49.2361Z" fill="#F2F2F2"/>
<path d="M118.541 45.9324C118.045 46.2735 117.458 46.462 116.852 46.48C115.916 46.48 115.163 46.2376 115.163 45.9324C115.163 45.6271 115.916 45.3848 116.852 45.3848C117.458 45.4027 118.036 45.5912 118.541 45.9324Z" fill="#F2F2F2"/>
<path d="M130.926 45.9324C130.43 46.2735 129.843 46.462 129.237 46.48C128.301 46.48 127.548 46.2376 127.548 45.9324C127.548 45.6271 128.301 45.3848 129.237 45.3848C129.843 45.4027 130.43 45.5912 130.926 45.9324Z" fill="#F2F2F2"/>
<path d="M126.235 53.0876C125.739 53.4288 125.151 53.6173 124.545 53.6352C123.609 53.6352 122.856 53.3928 122.856 53.0876C122.856 52.7824 123.609 52.54 124.545 52.54C125.151 52.558 125.739 52.7555 126.235 53.0876Z" fill="#F2F2F2"/>
<path d="M186.11 50.5651C189.421 50.5651 192.105 48.021 192.105 44.8826C192.105 41.7443 189.421 39.2002 186.11 39.2002C182.8 39.2002 180.116 41.7443 180.116 44.8826C180.116 48.021 182.8 50.5651 186.11 50.5651Z" fill="#FFB9B9"/>
<path d="M190.975 45.8252C190.975 45.8252 191.645 50.1162 192.838 50.6189C193.674 51.0049 194.435 51.5166 195.105 52.136L184.834 57.8364L185.256 53.2672C185.256 53.2672 185.788 50.4932 184.852 49.1018C183.916 47.7193 190.975 45.8252 190.975 45.8252Z" fill="#FFB9B9"/>
<path d="M184.312 41.7139C184.312 41.7139 180.585 41.4357 180.319 40.4841C180.053 39.5236 179.52 38.6977 179.786 38.6977C180.053 38.6977 180.19 38.0154 180.19 38.0154C180.19 38.0154 180.457 37.8808 180.594 38.0154C180.732 38.1501 180.86 37.0549 180.86 37.0549C180.86 37.0549 180.998 36.6419 181.127 36.9202C181.264 37.1985 181.264 37.0549 181.393 36.6419C181.531 36.229 182.191 35.9597 182.191 35.9597C182.191 35.9597 184.725 36.0943 185.12 35.5467C185.524 34.9991 190.049 35.4121 190.976 36.0943C191.912 36.7766 196.034 39.2453 195.373 41.301C194.703 43.3567 192.307 47.8811 192.307 48.5634C192.307 49.2457 191.371 49.111 191.105 48.4287C190.838 47.7465 188.709 46.9206 188.709 46.5077C188.709 46.0947 187.506 42.2615 186.845 42.5309C186.175 42.8091 185.377 44.9995 185.111 44.5866C184.844 44.1826 184.312 41.7139 184.312 41.7139Z" fill="#3F3D56"/>
<path d="M112.585 51.8038C112.723 51.2292 113.035 50.6996 113.466 50.2956C114.164 49.6852 114.898 49.3799 115.1 49.6044C115.311 49.8288 114.907 50.511 114.219 51.1125C113.751 51.4895 113.191 51.7319 112.585 51.8038Z" fill="#F2F2F2"/>
<path d="M104.14 49.7842C104.277 49.2097 104.59 48.6801 105.021 48.2761C105.719 47.6657 106.453 47.3604 106.655 47.5848C106.866 47.8093 106.462 48.4915 105.774 49.093C105.305 49.47 104.736 49.7124 104.14 49.7842Z" fill="#F2F2F2"/>
<path d="M89.4971 59.6953C89.6348 59.1208 89.9468 58.5912 90.3783 58.1872C91.0759 57.5768 91.8103 57.2716 92.0122 57.496C92.2234 57.7204 91.8195 58.4027 91.131 59.0041C90.6629 59.3901 90.0937 59.6235 89.4971 59.6953Z" fill="#F2F2F2"/>
<path d="M121.974 48.6797C122.111 48.1052 122.423 47.5755 122.855 47.1716C123.552 46.5611 124.287 46.2559 124.489 46.4804C124.7 46.7048 124.296 47.387 123.608 47.9885C123.139 48.3745 122.57 48.6079 121.974 48.6797Z" fill="#F2F2F2"/>
<path d="M118.597 55.2959C118.734 54.7214 119.047 54.1918 119.478 53.7878C120.176 53.1773 120.91 52.8721 121.112 53.0966C121.323 53.321 120.919 54.0032 120.231 54.6047C119.762 54.9817 119.193 55.2241 118.597 55.2959Z" fill="#F2F2F2"/>
<path d="M181.503 136.897C181.503 136.897 180.888 138.136 179.282 139.321C178.52 139.878 175.84 140.264 174.426 140.012C173.012 139.761 170.442 142.275 172.498 143.029C174.554 143.783 186.12 145.883 187.406 145.165C189.443 144.025 187.663 138.127 187.663 138.127L181.503 136.897Z" fill="#8C6239"/>
<path d="M202.203 135.919C202.203 135.919 202.396 137.239 200.964 138.612C200.147 139.402 196.696 140.165 195.264 140.156C193.823 140.147 191.73 143.047 193.887 143.451C196.044 143.855 207.785 145.165 208.95 143.065C210.401 140.461 207.977 136.09 207.977 136.09L202.203 135.919Z" fill="#8C6239"/>
<path d="M202.828 66.2388C202.828 66.2388 205.784 73.6538 202.828 80.8175C199.872 87.9811 198.587 89.1122 198.587 89.1122L197.688 79.6864L198.725 78.7707C198.725 78.7707 199.349 75.907 198.844 74.2194C198.339 72.5227 199.11 67.2442 199.11 67.2442L202.828 66.2388Z" fill="#FFB9B9"/>
<path d="M199.852 57.2354L200.742 57.9266C201.486 58.5011 201.954 59.3539 202.028 60.2875C202.11 61.3019 202.275 62.5498 202.569 62.9717C203.083 63.7257 203.983 67.6218 203.469 67.7474C202.955 67.8731 198.328 68.6272 198.328 68.6272L198.071 62.846L199.852 57.2354Z" fill="#079D49"/>
<path opacity="0.1" d="M199.852 57.2354L200.742 57.9266C201.486 58.5011 201.954 59.3539 202.028 60.2875C202.11 61.3019 202.275 62.5498 202.569 62.9717C203.083 63.7257 203.983 67.6218 203.469 67.7474C202.955 67.8731 198.328 68.6272 198.328 68.6272L198.071 62.846L199.852 57.2354Z" fill="black"/>
<path d="M180.723 82.3264C180.723 82.3264 176.996 90.6211 177.381 94.6428C177.767 98.6645 180.723 115.631 180.723 115.631C180.723 115.631 180.337 137.499 181.494 137.499C182.65 137.499 188.177 139.51 188.177 138.127C188.177 136.745 189.333 103.566 189.333 103.566C189.333 103.566 195.887 118.145 196.53 119.276C197.172 120.407 201.285 138.127 202.698 138.127C204.112 138.127 208.481 136.871 208.096 135.991C207.71 135.111 203.341 115.505 200.899 110.478C198.457 105.451 198.972 86.4737 198.972 86.4737L194.859 77.6763L180.723 82.3264Z" fill="#3F3D56"/>
<path opacity="0.1" d="M201.055 63.9139C201.79 61.6607 201.367 59.201 199.926 57.3068C198.302 55.1793 196.245 52.6926 195.382 52.4772C194.253 52.1989 192.087 51.5885 191.004 51.2743C190.572 51.1486 190.132 51.1217 189.682 51.1935C188.617 51.364 186.607 51.7321 185.863 52.0912C184.835 52.5939 180.98 53.4736 180.851 54.9817C180.723 56.4899 181.88 70.9429 181.237 72.3253C180.594 73.7078 178.41 86.904 179.438 86.6527C180.466 86.4013 186.194 88.87 189.076 89.0765C192.684 89.3458 199.229 88.9149 199.229 88.9149C199.348 87.9005 199.522 86.895 199.743 85.8986C200.128 84.1391 198.715 79.866 198.715 79.866C198.715 79.866 198.843 69.9375 199.357 68.8064C199.623 68.2229 200.385 65.9517 201.055 63.9139Z" fill="black"/>
<path d="M201.055 63.2225C201.79 60.9693 201.367 58.5096 199.926 56.6154C198.302 54.4879 196.245 52.0012 195.382 51.7858C194.253 51.5075 192.087 50.897 191.004 50.5829C190.572 50.4572 190.132 50.4302 189.682 50.5021C188.617 50.6726 186.607 51.0407 185.863 51.3998C184.835 51.9025 180.98 52.7822 180.851 54.2904C180.723 55.7985 181.88 70.2515 181.237 71.634C180.594 73.0164 178.41 86.2126 179.438 85.9613C180.466 85.7099 186.194 88.1786 189.076 88.3851C192.684 88.6544 199.229 88.2235 199.229 88.2235C199.348 87.2091 199.522 86.2037 199.743 85.2072C200.128 83.4477 198.715 79.1747 198.715 79.1747C198.715 79.1747 198.843 69.2461 199.357 68.115C199.623 67.5315 200.385 65.2603 201.055 63.2225Z" fill="#079D49"/>
<path d="M179.437 63.9771C179.437 63.9771 178.152 72.1461 177.51 73.1516C176.867 74.157 173.654 88.2329 173.654 88.2329C173.654 88.2329 168.367 95.4146 170.937 95.2889C173.507 95.1632 176.224 88.7357 176.224 88.7357C176.224 88.7357 184.192 74.534 184.192 73.0259C184.192 71.5177 186.12 63.9771 186.12 63.9771H179.437Z" fill="#FFB9B9"/>
<path opacity="0.1" d="M183.404 52.9531L181.559 53.7162C181.559 53.7162 178.603 64.9464 179.246 65.907C179.888 66.8675 187.599 65.494 187.727 65.0811C187.865 64.6681 187.03 53.7611 183.404 52.9531Z" fill="black"/>
<path d="M183.165 52.917L180.852 53.7967C180.852 53.7967 177.896 64.1024 178.539 64.9821C179.181 65.8619 186.892 64.6051 187.02 64.228C187.149 63.851 185.607 52.917 183.165 52.917Z" fill="#079D49"/>
<path d="M20.8076 121.116C20.8076 133.36 28.6652 143.271 38.3679 143.271L20.8076 121.116Z" fill="#46455B"/>
<path d="M38.3691 143.27C38.3691 130.891 47.1356 120.864 57.9673 120.864L38.3691 143.27Z" fill="#079D49"/>
<path d="M27.1699 122.229C27.1699 133.863 32.1818 143.271 38.3688 143.271L27.1699 122.229Z" fill="#079D49"/>
<path d="M38.3691 143.271C38.3691 127.444 48.5033 114.643 61.024 114.643L38.3691 143.271Z" fill="#46455B"/>
<path d="M34.6787 143.432C34.6787 143.432 37.1663 143.36 37.919 142.831C38.6717 142.31 41.7468 141.682 41.9396 142.526C42.1323 143.369 45.6848 146.691 42.8667 146.718C40.0486 146.745 36.331 146.287 35.5875 145.847C34.8348 145.389 34.6787 143.432 34.6787 143.432Z" fill="#A8A8A8"/>
<path opacity="0.2" d="M42.9214 146.422C40.1125 146.44 36.3856 145.991 35.6421 145.551C35.073 145.21 34.8435 143.989 34.7701 143.433C34.715 143.433 34.6875 143.433 34.6875 143.433C34.6875 143.433 34.8435 145.399 35.5963 145.847C36.349 146.296 40.0666 146.745 42.8755 146.718C43.6833 146.709 43.9679 146.431 43.9495 146.009C43.8302 146.26 43.5181 146.422 42.9214 146.422Z" fill="black"/>
</svg>
