<svg width="173" height="74" viewBox="0 0 173 74" fill="none" xmlns="http://www.w3.org/2000/svg">
<path d="M15.4735 14.6347C14.0348 14.1855 12.7071 13.9609 11.4948 13.9609C10.3507 13.9609 9.4404 14.1605 8.76397 14.5569C8.08754 14.9547 7.75007 15.5669 7.75007 16.3963C7.75007 17.261 8.17487 17.9246 9.02447 18.3914C9.87408 18.8582 11.2181 19.35 13.0564 19.8682C14.9984 20.4554 16.594 21.0338 17.8417 21.6034C19.0895 22.173 20.173 23.0201 21.0921 24.1431C22.0113 25.2661 22.4702 26.743 22.4702 28.5736C22.4702 31.2674 21.4296 33.3402 19.35 34.7921C17.2689 36.2425 14.6505 36.9677 11.4948 36.9677C9.34419 36.9677 7.24681 36.6315 5.20124 35.9577C3.15419 35.2839 1.42094 34.3253 0 33.0819L2.34012 28.3666C3.58936 29.4382 5.07987 30.2765 6.81461 30.8798C8.54787 31.4847 10.1953 31.7856 11.7568 31.7856C13.0046 31.7856 14.0022 31.5698 14.7482 31.1382C15.4927 30.7066 15.8672 30.0592 15.8672 29.196C15.8672 28.2286 15.4335 27.5034 14.5662 27.0204C13.6988 26.536 12.2941 26.0016 10.3522 25.4144C8.47977 24.8624 6.95374 24.3178 5.77554 23.782C4.59586 23.2461 3.57308 22.4343 2.70719 21.3465C1.83982 20.2587 1.40614 18.8333 1.40614 17.0716C1.40614 14.3441 2.40228 12.2624 4.39752 10.8281C6.39128 9.39536 8.89718 8.67749 11.9137 8.67749C13.7521 8.67749 15.5638 8.93733 17.3488 9.45554C19.1354 9.97375 20.7206 10.699 22.109 11.6311L19.6638 16.502C18.308 15.7049 16.9122 15.0839 15.4735 14.6347Z" fill="#079D49"/>
<path d="M48.8197 11.6032C50.658 13.5205 51.5757 16.1203 51.5757 19.4014V36.7079H44.7626V21.37C44.7626 19.4351 44.2075 17.9069 43.0974 16.7839C41.9873 15.6623 40.479 15.1001 38.5711 15.1001C36.3168 15.1353 34.5318 15.8943 33.2129 17.3799C31.8941 18.8655 31.2355 20.7652 31.2355 23.0802V36.7079H24.4727V0H31.2355V14.2706C33.1419 10.6432 36.4885 8.79638 41.2753 8.72592C44.468 8.72739 46.9813 9.686 48.8197 11.6032Z" fill="#079D49"/>
<path d="M114.173 11.5533C116.01 13.4618 116.929 16.0513 116.929 19.3177V36.5493H110.114V21.279C110.114 19.3529 109.559 17.8306 108.45 16.7134C107.34 15.5963 105.832 15.0369 103.926 15.0369C101.671 15.0707 99.8848 15.8282 98.5674 17.3065C97.2486 18.7863 96.5899 20.6785 96.5899 22.9819V36.5508H89.8271V0H96.5899V14.2104C98.4964 10.5991 101.844 8.75968 106.63 8.69069C109.821 8.69069 112.334 9.6449 114.173 11.5533Z" fill="#079D49"/>
<path d="M141.196 10.4964C143.398 11.6664 145.115 13.3076 146.345 15.423C147.577 17.5384 148.193 19.9724 148.193 22.7235C148.193 25.5098 147.577 27.9687 146.345 30.1018C145.114 32.2348 143.397 33.8863 141.196 35.0549C138.993 36.2249 136.453 36.8092 133.576 36.8092C130.663 36.8092 128.097 36.2249 125.878 35.0549C123.658 33.8863 121.932 32.2348 120.702 30.1018C119.47 27.9702 118.854 25.5098 118.854 22.7235C118.854 19.9724 119.47 17.5384 120.702 15.423C121.932 13.3076 123.658 11.6664 125.878 10.4964C128.097 9.32781 130.663 8.74207 133.576 8.74207C136.453 8.74207 138.993 9.32634 141.196 10.4964ZM127.854 16.7898C126.397 18.3371 125.669 20.3497 125.669 22.8263C125.669 25.3028 126.397 27.314 127.854 28.8628C129.31 30.4115 131.217 31.1837 133.576 31.1837C135.864 31.1837 137.738 30.4101 139.195 28.8628C140.651 27.3155 141.379 25.3028 141.379 22.8263C141.379 20.3497 140.651 18.3371 139.195 16.7898C137.738 15.2425 135.866 14.4688 133.576 14.4688C131.217 14.4688 129.31 15.2425 127.854 16.7898Z" fill="#079D49"/>
<path d="M149.383 8.99899H172.583V13.4368L157.29 31.081L173 31.1324V36.6007L148.863 36.5493V32.113L164.156 14.4688L149.383 14.4175V8.99899Z" fill="#079D49"/>
<path fill-rule="evenodd" clip-rule="evenodd" d="M82.1793 9.38363C81.9721 9.22948 81.8403 8.88009 81.676 8.74797C78.1444 5.93377 73.4834 4.64486 67.7241 5.85744C67.3733 6.20243 66.4083 6.50484 65.6934 6.59146C65.5986 6.55916 65.5616 6.53861 65.5631 6.42557C65.5631 6.40795 65.5646 6.38887 65.5661 6.37125C66.022 6.06737 66.6806 5.84717 66.7813 5.67247C68.1253 5.14986 69.5684 4.91938 71.0101 4.8357C71.9219 4.78285 72.8351 4.78138 73.7484 4.78872C74.0829 4.79166 74.4174 4.79019 74.7519 4.80047C75.6489 4.95755 76.5503 5.11315 77.425 5.35831C78.5233 5.6666 79.5905 6.15985 80.6014 6.68393C80.6162 6.69274 80.6325 6.69568 80.6473 6.70009C80.6592 6.71036 80.674 6.72063 80.6917 6.72944C80.6947 6.73091 80.6991 6.73238 80.7021 6.73385C80.7302 6.75147 80.7598 6.76467 80.7909 6.77642C81.2675 7.00396 81.716 7.23885 82.16 7.52071C83.5469 8.54098 84.8362 9.92826 85.7687 11.6165C86.4421 11.8602 86.5842 13.0155 87.2236 13.3179C87.0534 12.3755 86.6967 11.4623 86.1949 10.7357C84.4469 8.19306 80.6755 5.24674 78.0482 4.3307C76.9188 3.9358 75.2759 3.3897 74.2457 3.36181C73.8224 3.35006 73.5012 3.66422 73.4405 3.24583C73.0838 3.30602 72.582 3.61871 72.5317 3.15775C72.6027 3.11812 72.7048 3.09609 72.8129 3.07847C72.8869 3.08581 72.9624 3.09316 73.0379 3.10197C73.1341 3.11224 73.1903 3.05792 73.2096 2.98746C73.2806 2.95369 73.328 2.90819 73.3309 2.83772C73.2673 2.79368 73.1918 2.76873 73.1104 2.75405C73.0897 2.7423 73.0645 2.73496 73.0364 2.73202C72.8795 2.71587 72.7226 2.7012 72.5672 2.68945C72.5465 2.69092 72.5257 2.69092 72.505 2.68945C72.4813 2.68652 72.4577 2.68358 72.434 2.68064C72.394 2.67771 72.3526 2.67477 72.3126 2.67184C72.3008 2.67331 72.2874 2.67477 72.2756 2.67477C72.1601 2.67917 72.0477 2.65422 71.9322 2.65275C71.9159 2.65275 71.8982 2.65128 71.8819 2.64834C71.5489 2.6366 71.2143 2.63513 70.8724 2.64834C70.122 2.67624 69.3567 2.66449 68.6196 2.82304C68.6137 2.82451 68.6093 2.82598 68.6034 2.82745C66.7117 3.00508 64.9829 3.93434 63.4495 4.80047C61.9116 5.49631 60.3263 6.14223 59.0682 7.2917C58.5857 7.73357 58.1268 8.2371 57.8175 8.81697C55.3353 12.0231 53.7648 15.7519 53.5576 20.2631C53.6523 22.8777 54.1956 25.962 55.4567 28.5428C58.4332 34.3752 63.7988 37.7781 69.6528 38.5048C70.307 38.5855 71.238 38.6193 71.8848 38.5723C74.1021 38.4108 77.4635 38.1348 78.9318 36.3761C80.0212 35.8741 81.0144 35.3177 81.3904 34.406C81.1328 34.5499 81.1343 34.2475 80.9981 34.1814C81.1239 33.3476 82.5375 32.8235 82.3125 32.0763C81.8833 32.1321 80.6991 32.9219 80.2255 32.9586C80.1308 32.4316 80.6829 32.3567 80.5215 32.0014C80.2107 31.9867 79.6083 32.4683 79.5357 32.0425C80.0138 31.6242 80.2581 31.0722 80.5748 30.5598C77.8306 31.4083 73.7173 33.4812 70.6016 32.9835C70.2907 33.0657 69.9814 33.1465 69.672 33.2287C65.9864 32.4095 63.0631 30.2809 60.9539 26.7562C60.8207 26.3628 60.7645 26.0648 60.5824 25.6434C60.1739 25.3513 60.877 24.9755 60.3263 24.836C58.8418 19.1606 60.1058 14.9577 62.8559 11.7134C64.043 10.5639 65.5661 9.62291 66.9707 9.09149C69.3567 8.18719 72.5776 7.52658 76.3327 8.334C79.5949 9.60971 81.676 11.2583 83.4641 14.3925C83.4581 14.4292 83.4655 14.4689 83.4907 14.5085C83.8726 15.1163 84.2781 15.7152 84.5224 16.3934C84.5416 16.4448 84.5756 16.48 84.6156 16.4991C84.6689 16.5813 84.7488 16.6327 84.8806 16.596C85.1322 16.527 85.1233 16.2099 85.1011 16.0029C85.0256 15.288 84.5786 14.5423 84.2411 13.9198C84.1361 13.7275 84.025 13.5381 83.9096 13.3517C83.8992 13.3062 83.8874 13.2607 83.877 13.2152C83.8178 13.1359 83.732 13.0419 83.6343 12.9392C83.4389 12.6617 83.2272 12.3945 82.9993 12.1406C82.9416 12.0246 82.909 11.9086 82.9164 11.8C82.9726 11.7648 83.0333 11.7486 83.0985 11.7501C83.1517 11.7677 83.211 11.7971 83.2731 11.8367C83.7098 12.3065 84.0206 12.9935 84.438 13.5C84.6008 13.8303 84.7651 14.1591 84.9279 14.4894C84.9516 14.67 85.0034 14.827 85.144 14.9269C85.1899 15.0194 85.2358 15.1118 85.2817 15.2043C85.6147 15.8767 85.9537 16.5505 86.1239 17.2845C86.2823 17.9715 86.3385 18.6968 86.3755 19.3999C86.3829 19.5365 86.3814 19.673 86.3755 19.808C86.3933 19.855 86.4022 19.9079 86.4022 19.9666C86.4007 20.5391 86.374 21.1087 86.3 21.6754C86.3548 21.7385 86.451 21.7546 86.5265 21.7238C86.5753 21.8163 86.6301 21.9132 86.6923 22.0174C86.8788 21.3172 86.75 20.4349 86.9661 19.7493C86.8299 17.0115 85.7953 13.8347 84.6127 12.2477C83.7335 11.0689 83.1118 10.0736 82.1793 9.38363ZM65.8902 4.30134C65.9346 4.29106 66.0501 4.23528 66.1803 4.16775C66.5815 4.01801 66.9367 3.76844 67.3541 3.65687C67.4992 3.61871 67.6457 3.58348 67.7937 3.54971C68.1504 3.47337 68.5101 3.41466 68.8742 3.37942C68.9112 3.37649 68.9423 3.36327 68.9675 3.34418C69.49 3.23702 71.6155 2.83185 72.4281 3.18271C69.8615 3.66422 69.339 3.58201 68.8535 3.64073C68.6848 3.67009 68.556 3.69651 68.5959 3.68624C67.921 3.84478 67.2505 4.20592 66.6851 4.23674C66.5874 4.24262 66.2706 4.4364 66.0679 4.5142C65.6549 4.67422 64.8867 4.82542 64.3894 4.9825C64.3154 4.45255 65.2774 4.45695 65.8902 4.30134Z" fill="black"/>
<path fill-rule="evenodd" clip-rule="evenodd" d="M86.408 22.2053C86.2274 22.2038 86.3902 22.8086 86.5457 22.7176C86.6907 22.6662 86.821 22.0438 86.408 22.2053Z" fill="#231F20"/>
<path fill-rule="evenodd" clip-rule="evenodd" d="M87.3066 13.6232C87.4443 13.8361 87.3362 14.4717 87.7063 14.2853C87.9165 14.0607 87.5982 13.4852 87.3066 13.6232Z" fill="#231F20"/>
<path fill-rule="evenodd" clip-rule="evenodd" d="M86.5546 23.0509C86.5487 22.9628 86.5191 22.8747 86.4302 22.8483C86.3089 22.8116 86.1771 22.8776 86.1683 23.0083C86.1668 23.0215 86.1712 23.0362 86.1757 23.0494C86.1742 23.0641 86.1742 23.0773 86.1801 23.092C86.2023 23.1463 86.223 23.2006 86.2437 23.2549C86.2482 23.2667 86.2556 23.2784 86.263 23.2887C86.2896 23.3621 86.3281 23.4179 86.4007 23.4164C86.4021 23.3401 86.4613 23.296 86.5087 23.2476C86.5146 23.2417 86.5205 23.2373 86.525 23.23C86.5635 23.1859 86.5872 23.1346 86.5546 23.0509Z" fill="#231F20"/>
<path fill-rule="evenodd" clip-rule="evenodd" d="M86.1612 25.0943C86.1568 24.9622 86.0413 24.7699 85.8874 24.8154C85.8474 24.8272 85.8237 24.8536 85.8148 24.8859C85.8119 24.8874 85.8074 24.8888 85.8045 24.8918C85.8074 24.9035 85.8074 24.9138 85.8089 24.9255C85.8074 24.9387 85.8089 24.9519 85.8119 24.9652C85.8208 25.2646 85.4744 25.3615 85.5839 25.7182C85.6905 25.7271 85.7542 25.7124 85.7941 25.6815C85.8666 25.6507 85.8903 25.5817 85.9244 25.5069C85.9451 25.4628 85.9747 25.4246 86.0073 25.3865C86.0931 25.3131 86.1642 25.2044 86.1612 25.0943Z" fill="#231F20"/>
<path fill-rule="evenodd" clip-rule="evenodd" d="M86.1195 23.5999C86.2927 24.0212 85.6992 24.4513 86.0855 24.7082C86.1255 24.4352 86.7279 23.6792 86.1195 23.5999Z" fill="#231F20"/>
<path d="M73.9511 23.5383C73.9511 23.5368 73.9496 23.5353 73.9496 23.5338C73.9215 23.5486 73.8919 23.5649 73.8623 23.5797C73.8682 23.5782 73.8741 23.5782 73.8815 23.5768C73.8919 23.5753 73.9023 23.5723 73.9126 23.5694C73.9185 23.5679 73.9245 23.5664 73.9289 23.5649C73.9467 23.5605 73.9629 23.5531 73.9777 23.5457C73.9718 23.5412 73.963 23.5368 73.9511 23.5383Z" fill="#0B9949"/>
<path d="M70.856 17.2038C70.7095 17.2772 70.5718 17.3579 70.4401 17.446C70.375 17.49 70.3113 17.5355 70.2491 17.5825C70.2491 17.584 70.2491 17.5869 70.2491 17.5898C70.2417 17.5972 70.2343 17.6031 70.2255 17.6104C70.2314 17.6221 70.2299 17.6354 70.221 17.6456C70.1056 17.7675 69.9901 17.8864 69.8791 18.0112C69.7977 18.1022 69.7503 18.2005 69.6985 18.2989C69.6985 18.3004 69.6985 18.3004 69.6985 18.3004H69.6971C69.6926 18.3092 69.6882 18.318 69.6837 18.3253C69.6793 18.3356 69.6748 18.3473 69.6674 18.3606C69.6674 18.3591 69.666 18.3606 69.6645 18.3606L69.663 18.362C69.6689 18.3723 69.6704 18.387 69.66 18.4002C69.6452 18.4193 69.6319 18.4384 69.6171 18.4574C69.6156 18.4618 69.6142 18.4663 69.6127 18.4707C69.6142 18.4736 69.6142 18.4736 69.6112 18.4736C69.589 18.5206 69.555 18.5705 69.5224 18.6101C69.5194 18.6175 69.515 18.6219 69.512 18.6292C69.5106 18.6321 69.5076 18.6321 69.5046 18.6321C69.5046 18.6321 69.5046 18.6336 69.5031 18.6351C69.5061 18.6424 69.5076 18.6527 69.5031 18.6615C69.4854 18.7114 69.4602 18.7569 69.4351 18.8024C69.4173 18.8347 69.4129 18.8509 69.401 18.8729C69.401 18.8773 69.401 18.8832 69.3981 18.8876C69.3833 18.9257 69.3684 18.9639 69.3536 19.0006C69.3536 19.0124 69.3507 19.0241 69.3433 19.0256C69.3418 19.03 69.3403 19.0344 69.3374 19.0388C69.3374 19.0402 69.3374 19.0432 69.3344 19.0447C69.3152 19.0916 69.2974 19.1386 69.2796 19.1841C69.2663 19.259 69.2323 19.3162 69.2323 19.397C69.1953 19.4792 69.1953 19.5731 69.176 19.6598C69.1731 19.6759 69.1612 19.6935 69.1568 19.7111C69.1464 19.7522 69.1405 19.8139 69.1346 19.8521C69.1361 19.8535 69.1376 19.855 69.1376 19.8579C69.1361 19.8609 69.1346 19.8623 69.1346 19.8623C69.1316 19.8785 69.1287 19.8961 69.1272 19.9123C69.1257 19.9372 69.1257 19.9578 69.1316 19.9812C69.1287 19.9739 69.1257 19.9739 69.1242 19.9768V19.9871C69.1257 20.0003 69.1302 20.0194 69.1257 20.0179L69.1242 20.0165V20.0238C69.1257 20.0282 69.1272 20.0341 69.1257 20.0385V20.0414C69.1257 20.0414 69.1242 20.0429 69.1242 20.0444C69.1242 20.0532 69.1257 20.0635 69.1257 20.0723C69.1257 20.0737 69.1272 20.0737 69.1272 20.0737C69.1272 20.0752 69.1272 20.0767 69.1257 20.0781C69.1272 20.084 69.1272 20.0884 69.1272 20.0943C69.1272 20.0972 69.1272 20.1002 69.1301 20.1016C69.1301 20.1046 69.1287 20.106 69.1272 20.109C69.1272 20.1398 69.1272 20.1706 69.1287 20.2015C69.1316 20.2059 69.1331 20.2103 69.1331 20.2176C69.1346 20.2293 69.1361 20.2426 69.1361 20.2572C69.1361 20.2572 69.1361 20.2558 69.1376 20.2572C69.1361 20.2587 69.1361 20.2602 69.1361 20.2631C69.1598 20.6257 69.256 20.9707 69.3684 21.3186C69.3699 21.3215 69.3729 21.3245 69.3744 21.3274C69.3951 21.3905 69.4173 21.4493 69.441 21.508C69.444 21.5139 69.4469 21.5212 69.4499 21.5271V21.5285C69.4691 21.5726 69.4898 21.6166 69.5135 21.6592C69.5194 21.6621 69.5254 21.6651 69.5313 21.6739C69.5579 21.7238 69.5846 21.7722 69.6127 21.8207C69.6186 21.8236 69.623 21.828 69.626 21.8354C69.6971 21.9778 69.7829 22.1084 69.8776 22.2391C69.9442 22.333 69.9886 22.4402 70.0478 22.5385C70.1219 22.6207 70.2003 22.7 70.2817 22.7749C70.2935 22.7852 70.2921 22.7881 70.2995 22.7969C70.3676 22.8586 70.446 22.9026 70.5037 22.9643C70.5763 23.0083 70.671 23.0758 70.7198 23.114C70.8249 23.183 70.9226 23.2388 71.0173 23.2858C71.0173 23.2828 71.044 23.296 71.0751 23.3122C71.1047 23.3269 71.1372 23.346 71.1491 23.3548L71.1787 23.3694L71.2645 23.4105C71.3001 23.4282 71.3356 23.4443 71.3726 23.459C71.3711 23.4575 71.3711 23.4561 71.3726 23.4561C71.3741 23.4561 71.377 23.4561 71.38 23.4575L71.3815 23.459C71.3859 23.4605 71.3918 23.4649 71.3948 23.4678L71.3963 23.4693L71.3977 23.4707V23.4737C71.3977 23.4737 71.3992 23.4751 71.4007 23.4751C71.4096 23.4722 71.4362 23.4839 71.4495 23.4957C71.5206 23.5265 71.5931 23.5544 71.6627 23.5794C71.6686 23.5808 71.6731 23.5823 71.6775 23.5852C71.7559 23.6087 71.8329 23.6307 71.9114 23.6498H71.9128C71.9173 23.6498 71.9217 23.6498 71.9276 23.6513L71.9306 23.6528C71.9321 23.6528 71.9336 23.6542 71.9336 23.6557C72.0224 23.6763 72.1112 23.6953 72.2015 23.7115C72.2074 23.7115 72.2133 23.713 72.2222 23.713C72.2192 23.713 72.2192 23.7144 72.2177 23.7144C72.2355 23.7174 72.2533 23.7218 72.271 23.7232C72.2755 23.7247 72.2799 23.7247 72.2829 23.7247H72.2858C71.9543 23.6498 71.6286 23.5383 71.3119 23.4061C71.3045 23.4017 71.3 23.3973 71.2971 23.3929L71.2956 23.3915C71.2808 23.368 71.3089 23.3283 71.3445 23.343C71.7633 23.5177 72.1955 23.6572 72.6411 23.7188C72.6603 23.7188 72.681 23.7203 72.7003 23.7203C72.7032 23.7188 72.7091 23.7174 72.721 23.7188C72.721 23.7188 72.721 23.7203 72.721 23.7218C72.8868 23.7232 73.0511 23.7232 73.2154 23.7203C73.2213 23.7203 73.2257 23.7203 73.2317 23.7188C73.2317 23.7188 73.2302 23.7188 73.2302 23.7203C73.2361 23.7203 73.242 23.7218 73.2465 23.7232C73.2983 23.7218 73.3545 23.71 73.3989 23.7071C73.4256 23.7042 73.4315 23.713 73.4448 23.6997C73.4507 23.7042 73.4714 23.7012 73.4818 23.7027C73.4862 23.7012 73.4892 23.7012 73.4936 23.7012C73.538 23.6821 73.5632 23.6807 73.6209 23.6763V23.6777C73.6239 23.6777 73.6268 23.6763 73.6298 23.6748C73.649 23.6704 73.6594 23.6719 73.6668 23.6733C73.6712 23.6748 73.6698 23.6777 73.6638 23.6807C73.6579 23.6821 73.6505 23.6851 73.6461 23.6821C73.6446 23.6821 73.6416 23.6807 73.6313 23.6836C73.5972 23.6968 73.5573 23.71 73.541 23.7027C73.5425 23.7115 73.5262 23.7115 73.4951 23.7115C73.4892 23.7115 73.4818 23.713 73.4759 23.713L73.4773 23.7144C73.4566 23.7174 73.3974 23.735 73.393 23.7247C73.393 23.7276 73.39 23.7291 73.3841 23.732C73.3871 23.732 73.39 23.732 73.3915 23.7335V23.735C73.393 23.7335 73.3959 23.7335 73.3974 23.7335C73.4034 23.732 73.4078 23.732 73.4137 23.7306L73.4226 23.7291C73.4315 23.7276 73.4403 23.7262 73.4478 23.7262V23.7247C73.5025 23.7159 73.5499 23.71 73.5972 23.7071C73.6579 23.6997 73.7186 23.688 73.7763 23.6733C73.8341 23.6572 73.8933 23.6396 73.9643 23.6146C73.9673 23.6131 73.9717 23.6117 73.9747 23.6117C74.0102 23.5984 74.0457 23.5852 74.0798 23.5706C74.0827 23.5676 74.0857 23.5647 74.0857 23.5647C74.1064 23.5559 74.1301 23.5471 74.1538 23.5383C74.1952 23.5192 74.2367 23.5001 74.2766 23.4781C74.2781 23.4781 74.2781 23.4766 74.2781 23.4751C74.2826 23.4722 74.2855 23.4722 74.2885 23.4722C74.2988 23.4678 74.3077 23.4634 74.3181 23.459C74.3181 23.4575 74.3196 23.4561 74.324 23.4531C74.361 23.4326 74.3995 23.4135 74.438 23.3929C74.438 23.3944 74.4394 23.3959 74.4394 23.3973C74.4735 23.3929 74.5016 23.4414 74.4661 23.4619C74.3314 23.5353 74.1893 23.6043 74.0413 23.6616C74.0369 23.6704 74.0309 23.6763 74.0191 23.6792C73.9451 23.6939 73.8829 23.7306 73.8133 23.7585C73.7823 23.7717 73.7512 23.7834 73.7157 23.7893C73.7083 23.7908 73.7038 23.7922 73.6964 23.7922C73.5854 23.8113 73.4729 23.8245 73.3604 23.8319C73.2568 23.8568 73.1488 23.8788 73.0452 23.8788C72.8838 23.9346 72.7062 23.9361 72.5315 23.9244C72.345 23.9493 72.1378 23.9067 71.9439 23.8627H71.935C71.9202 23.8627 71.9054 23.8627 71.8921 23.8612C71.8699 23.8847 71.8359 23.8979 71.7929 23.8847C71.7559 23.873 71.7189 23.8583 71.6819 23.8451C71.4303 23.7981 71.2038 23.688 70.967 23.5867C70.9404 23.5764 70.9167 23.5647 70.893 23.5529C70.8234 23.528 70.7568 23.4986 70.6917 23.4663C70.6917 23.4663 70.6917 23.4678 70.6902 23.4693C70.6858 23.4663 70.6828 23.4619 70.6814 23.4605C70.6355 23.4355 70.5911 23.4091 70.5481 23.3797C70.5452 23.3797 70.5422 23.3768 70.5393 23.3753C70.5378 23.3738 70.5363 23.3739 70.5363 23.3724C70.4919 23.3401 70.4475 23.3063 70.406 23.2667C70.3705 23.2403 70.3335 23.2153 70.298 23.1889C70.295 23.1874 70.2921 23.1859 70.2906 23.1845C70.2891 23.1845 70.2876 23.183 70.2847 23.183C70.2817 23.1801 70.2817 23.1801 70.2817 23.1786C70.2269 23.139 70.1722 23.0964 70.1204 23.0509C69.9442 22.8967 69.8066 22.7044 69.6512 22.5312C69.3744 22.2229 69.2145 21.8075 69.0976 21.4214C69.0946 21.4155 69.0946 21.4111 69.0946 21.4067C69.0783 21.3627 69.0606 21.3157 69.0502 21.2819C69.0265 21.2085 69.0162 21.1234 68.9895 21.0294C68.9777 20.9912 68.9629 20.9325 68.9525 20.8738C68.9407 20.8166 68.9318 20.7608 68.9288 20.727C68.9185 20.6404 68.9052 20.5435 68.9037 20.4686C68.9007 20.4275 68.9052 20.3424 68.9052 20.3424C68.9052 20.3174 68.9007 20.3233 68.9007 20.2866C68.9007 20.2866 68.9081 20.2704 68.9081 20.266C68.9096 20.2484 68.9007 20.2205 68.9007 20.1985C68.9007 20.1486 68.9052 20.1119 68.9081 20.0737C68.9126 19.9871 68.9111 19.8711 68.9229 19.786C68.9259 19.6818 68.9303 19.5761 68.9422 19.4718C68.6698 20.3629 68.7275 21.3539 69.1864 22.2493C69.5135 22.8909 70.0005 23.3988 70.5748 23.7497C71.044 24.0359 71.5709 24.218 72.1171 24.2825C72.7402 24.3574 73.3871 24.2781 74.0013 24.0256C74.0901 23.9889 74.1789 23.9493 74.2663 23.9053C74.3728 23.8509 74.475 23.7937 74.5741 23.732C74.5771 23.7291 74.5815 23.7247 74.5875 23.7218C74.5845 23.7174 74.583 23.713 74.5919 23.7174C74.5963 23.713 74.5993 23.7086 74.6038 23.7027C74.6852 23.6631 74.7473 23.5926 74.8213 23.5397C74.8332 23.5295 74.8554 23.5236 74.8702 23.5118C74.9087 23.4839 74.9605 23.437 74.9886 23.4135C75.0419 23.3694 75.0922 23.3225 75.1425 23.2711C75.1425 23.2696 75.144 23.2681 75.1455 23.2652C75.147 23.2652 75.147 23.2637 75.147 23.2637C75.1484 23.2637 75.1484 23.2623 75.1499 23.2608C75.1514 23.2608 75.1514 23.2608 75.1514 23.2608C75.1662 23.2447 75.181 23.227 75.1958 23.2094C75.2757 23.0876 75.3601 22.9657 75.4548 22.8542C75.483 22.8028 75.52 22.7529 75.5525 22.7074C75.5555 22.703 75.5585 22.7 75.5629 22.6971C75.7005 22.4578 75.8101 22.2068 75.8811 21.9513C75.8826 21.9455 75.8856 21.9411 75.8885 21.9381C75.9166 21.828 75.9433 21.7179 75.967 21.6063C75.9625 21.6034 75.964 21.6019 75.967 21.6005C75.9744 21.5623 75.9818 21.5256 75.9892 21.4874C75.9995 21.4008 76.0069 21.3142 76.0128 21.2276C76.0114 21.0426 76.004 20.8562 75.9951 20.6698C75.9892 20.5773 75.9862 20.4833 75.9803 20.3908V20.3894L75.9788 20.3879C75.9788 20.3864 75.9788 20.385 75.9803 20.385C75.9699 20.2205 75.9581 20.0576 75.93 19.8976C75.927 19.8844 75.924 19.8726 75.9226 19.8609C75.8885 19.7522 75.8486 19.6436 75.8056 19.5408C75.7997 19.5276 75.8027 19.5247 75.7982 19.5144C75.7627 19.4322 75.7124 19.3617 75.6872 19.2825C75.6413 19.2135 75.5836 19.1151 75.557 19.0623C75.4992 18.9683 75.44 18.8876 75.3808 18.8142C75.3542 18.7907 75.329 18.7672 75.3024 18.7422C75.292 18.7437 75.2817 18.7422 75.2743 18.7334C75.1218 18.5896 74.9693 18.4472 74.8124 18.3106C74.8095 18.3092 74.808 18.3077 74.8051 18.3062C74.8036 18.3048 74.8006 18.3004 74.7991 18.2989C74.5697 18.1007 74.3284 17.9172 74.065 17.7645C74.0546 17.7601 74.0442 17.7557 74.0339 17.7513C73.9584 17.7234 73.8874 17.697 73.8267 17.6442C73.8237 17.6412 73.8222 17.6383 73.8208 17.6354C73.8089 17.6265 73.7971 17.6192 73.7852 17.6119C73.7808 17.6089 73.7749 17.6075 73.7704 17.6045C73.763 17.6104 73.7527 17.6133 73.7423 17.6075C73.6994 17.5869 73.6535 17.5693 73.6091 17.5517C73.5824 17.5414 73.5543 17.5326 73.5277 17.5208C73.5262 17.5208 73.5247 17.5194 73.5247 17.5194C73.3678 17.4651 73.208 17.424 73.0407 17.4005C73.0318 17.399 73.0229 17.3946 73.0185 17.3873C72.9356 17.377 72.8527 17.3652 72.7698 17.3579C72.7491 17.3579 72.7284 17.3579 72.7062 17.3564C72.6855 17.3564 72.6633 17.3579 72.6411 17.3579C72.5759 17.3623 72.5093 17.3682 72.4442 17.3726C72.4383 17.3726 72.4338 17.3711 72.4294 17.3696C72.2844 17.3814 72.1393 17.3961 71.9957 17.4137C72.0771 17.4254 72.1704 17.421 72.2385 17.4166C72.2444 17.4166 72.2503 17.4181 72.2503 17.4195C72.2503 17.4225 72.2459 17.4254 72.2399 17.4254H72.2385C72.1615 17.4313 72.0505 17.4357 71.9602 17.4195C71.9276 17.424 71.9143 17.4152 71.8847 17.4181C71.8729 17.4137 71.8684 17.4093 71.8669 17.4034C71.8462 17.4049 71.8418 17.4078 71.8344 17.4063C71.8329 17.4078 71.8314 17.4078 71.8314 17.4078C71.827 17.4107 71.8196 17.4107 71.8107 17.4093L71.8048 17.4122H71.8033H71.8003C71.7826 17.4151 71.7693 17.4122 71.7693 17.4063L71.7678 17.4049L71.7722 17.4034L71.7737 17.4019H71.7693C71.8596 17.3491 71.9928 17.33 72.1141 17.3183C72.1482 17.3124 72.1807 17.3095 72.2148 17.3065C72.2148 17.3065 72.2163 17.3065 72.2177 17.3065C72.2192 17.3065 72.2237 17.305 72.2251 17.305C72.2251 17.3036 72.2281 17.3021 72.237 17.3021C72.2414 17.3021 72.2444 17.3021 72.2488 17.3006C72.2503 17.3006 72.2518 17.3006 72.2533 17.2992C72.2533 17.2992 72.2547 17.2992 72.2547 17.3006C72.2562 17.3006 72.2592 17.3006 72.2607 17.3006C72.2695 17.3006 72.2784 17.2992 72.2858 17.2992C72.2873 17.2992 72.2903 17.2977 72.2947 17.2977C72.3347 17.2962 72.3746 17.2933 72.4161 17.2904H72.4264C72.4797 17.2874 72.5345 17.2845 72.5893 17.283H72.5907C72.6425 17.2816 72.6944 17.2816 72.7462 17.2845H72.7476H72.8394C72.8661 17.2845 72.8912 17.286 72.9179 17.2874C73.0526 17.2948 73.1872 17.3124 73.3205 17.3344C73.4241 17.3506 73.5425 17.355 73.6283 17.4166C73.6357 17.4181 73.6446 17.4196 73.6505 17.4225C73.7127 17.4357 73.7749 17.4519 73.8341 17.4709C73.9066 17.49 73.9762 17.5135 74.0443 17.5414C74.1464 17.581 74.2441 17.628 74.3403 17.6809C74.4676 17.7528 74.6023 17.8218 74.7162 17.9157C74.8494 17.995 74.9827 18.0787 75.1011 18.1741C75.1248 18.1917 75.1484 18.2093 75.1692 18.2284C75.1899 18.246 75.2077 18.2651 75.2254 18.2857C75.3335 18.3929 75.4238 18.5162 75.5214 18.6321H75.5229C75.5821 18.6835 75.6399 18.7364 75.6872 18.7907C75.6872 18.7922 75.6887 18.7922 75.6902 18.7936C75.6917 18.7966 75.6931 18.7995 75.6961 18.801C75.6976 18.8039 75.7005 18.8054 75.702 18.8068C75.702 18.8083 75.702 18.8083 75.7035 18.8098C75.9625 19.1283 76.1698 19.4851 76.2452 19.8888C76.2571 19.9269 76.2674 19.9651 76.2793 20.0018C76.2822 20.0077 76.2837 20.0135 76.2867 20.0194C76.2985 20.0547 76.3104 20.0884 76.3222 20.1222C76.2734 19.6935 76.1475 19.2663 75.9388 18.8582C74.993 17.01 72.7195 16.2701 70.856 17.2038Z" fill="#079D49"/>
<path d="M83.9173 19.0769C83.8241 18.522 83.6849 17.9789 83.5192 17.4416C83.2779 16.6576 83.0277 15.8781 82.7806 15.0957C82.7672 15.0531 82.7421 15.0105 82.7125 14.9768C82.6281 14.8784 82.5378 14.7859 82.449 14.6905C82.304 14.5349 82.1885 14.3602 82.15 14.1503C82.1249 14.0064 82.0612 13.8919 81.9606 13.7906C81.9443 13.773 81.9295 13.7554 81.9147 13.7377C81.3566 13.0698 80.7676 12.4312 80.1118 11.8572C79.4147 11.248 78.6598 10.7283 77.8072 10.354C77.7614 10.3334 77.7184 10.3099 77.674 10.2864C76.9058 9.87245 76.1036 9.53187 75.2658 9.2779C74.6471 9.08999 74.024 8.92557 73.3772 8.85951C72.8147 8.80225 72.2522 8.81987 71.6927 8.91382C70.9216 9.04301 70.1563 9.20449 69.3985 9.40121C68.7014 9.58177 68.0116 9.78877 67.3648 10.1044C66.8837 10.3393 66.4116 10.5918 65.9438 10.8531C64.6916 11.5533 63.6703 12.5061 62.8681 13.6908C62.692 13.9521 62.5321 14.2207 62.3826 14.4938C61.6647 15.6682 61.2118 16.9468 60.9483 18.3003C60.8506 18.8039 60.787 19.3104 60.7396 19.8212C60.6982 20.2704 60.7041 20.7197 60.7515 21.1674C60.8107 21.7164 60.9113 22.2581 61.0357 22.7969C61.1748 23.4091 61.3228 24.0183 61.4679 24.6305C61.4738 24.6525 61.4871 24.6789 61.4812 24.698C61.4605 24.7567 61.4871 24.8081 61.5019 24.8609C61.5878 25.1575 61.7002 25.4423 61.829 25.7212C61.9904 26.0706 62.1798 26.4038 62.4329 26.6989C62.5632 26.8486 62.6875 27.0028 62.8133 27.1584C62.8918 27.2523 62.9658 27.3507 63.0413 27.4476C63.1493 27.5826 63.2633 27.7118 63.3625 27.8542C64.0404 28.8173 64.8767 29.6188 65.8669 30.2618C67.347 31.2233 68.9855 31.7504 70.7262 31.9911C71.0296 32.0337 71.3346 32.0601 71.6395 32.0983C72.2093 32.1688 72.7762 32.1453 73.3431 32.063C73.6865 32.0131 74.0195 31.9192 74.357 31.8384C75.1178 31.6564 75.8801 31.4802 76.6409 31.3056C76.9606 31.2322 76.9636 31.2366 77.2181 31.0208C77.4461 30.8299 77.6977 30.7022 77.9982 30.6743C78.0381 30.6699 78.0811 30.6508 78.1151 30.6273C78.4156 30.413 78.7161 30.1972 79.0106 29.977C79.2667 29.7862 79.5124 29.5821 79.7684 29.3927C80.1888 29.0815 80.584 28.7439 80.9467 28.368C81.5343 27.7603 82.0197 27.0865 82.4164 26.3554C82.6858 25.9135 82.9226 25.4481 83.1225 24.9622C83.713 23.5192 83.9691 22.013 84.0091 20.2792C84.0209 19.9974 83.9943 19.535 83.9173 19.0769ZM77.6548 24.2576C77.3928 26.3774 76.9946 28.1904 76.9784 28.2667L76.8333 28.9259L76.3078 28.6954L76.2116 28.6528C76.1406 28.6205 74.434 27.8674 72.5571 26.8237C69.9698 25.3836 68.392 24.1299 67.8666 23.0993L67.8236 23.0156C67.7822 22.9408 67.76 22.8938 67.7363 22.8453C67.723 22.8175 67.7067 22.7852 67.6845 22.7397C66.4723 20.3629 67.3603 17.4562 69.6516 16.0161C69.8011 15.9222 69.9565 15.8341 70.1179 15.7533C70.8816 15.3702 71.7357 15.1661 72.5838 15.1661C74.5746 15.1661 76.3582 16.2319 77.2315 17.951C77.264 18.0126 77.2907 18.0655 77.3158 18.1183C77.341 18.1682 77.3662 18.2196 77.3973 18.2783L77.4091 18.2989L77.415 18.3121C77.9375 19.3338 78.0189 21.3348 77.6548 24.2576Z" fill="#079D49"/>
<path d="M73.7885 23.7452C73.7885 23.7438 73.787 23.7423 73.787 23.7408C73.7589 23.757 73.7293 23.7717 73.6997 23.7863C73.7056 23.7863 73.7115 23.7849 73.7189 23.7834C73.7293 23.7819 73.7397 23.779 73.75 23.7761C73.7559 23.7746 73.7619 23.7731 73.7663 23.7717C73.7841 23.7658 73.8003 23.7599 73.8151 23.7526C73.8092 23.7482 73.7989 23.7452 73.7885 23.7452ZM76.2115 28.6528C76.1405 28.6205 74.4338 27.8674 72.557 26.8237C69.9697 25.3835 68.3919 24.1299 67.8664 23.0993L67.8235 23.0156C67.7821 22.9408 67.7599 22.8938 67.7362 22.8453C67.7229 22.8174 67.7066 22.7852 67.6829 22.7396C67.3143 22.0174 67.1397 21.2467 67.1397 20.4818C67.1397 20.3923 67.1426 20.3027 67.1471 20.2132C67.1471 20.2044 67.1471 20.1956 67.1485 20.1868C67.1485 20.1706 67.15 20.1545 67.1515 20.1383C67.1559 20.0869 67.1589 20.0355 67.1634 19.9842C67.1693 19.9328 67.1752 19.8799 67.1811 19.8286C67.187 19.7889 67.1915 19.7493 67.1989 19.7096C67.2004 19.6994 67.2018 19.6891 67.2033 19.6788C67.2078 19.6568 67.2107 19.6348 67.2152 19.6113C67.2285 19.5379 67.2433 19.463 67.2596 19.3896C67.2625 19.3691 67.2684 19.3485 67.2729 19.328C67.2729 19.3265 67.2729 19.325 67.2744 19.3221C67.2847 19.2766 67.2966 19.2311 67.3084 19.1856C67.3202 19.1357 67.3351 19.0857 67.3499 19.0373C67.3513 19.0314 67.3528 19.0256 67.3558 19.0197C67.3706 18.9698 67.3854 18.9213 67.4017 18.8729C67.4372 18.7657 67.4771 18.6585 67.5186 18.5543C67.5378 18.5073 67.5571 18.4589 67.5778 18.4119C67.6 18.362 67.6222 18.3121 67.6459 18.2622C67.6681 18.2152 67.6903 18.1682 67.7154 18.1227C67.7243 18.1036 67.7347 18.086 67.7436 18.0684C67.7613 18.0346 67.7791 18.0009 67.7968 17.9686C67.822 17.9216 67.8487 17.8761 67.8753 17.8306C67.8768 17.8276 67.8783 17.8276 67.8797 17.8247C67.9079 17.7777 67.9375 17.7293 67.9671 17.6838C67.9685 17.6808 67.97 17.6779 67.9715 17.6764C67.9996 17.6324 68.0292 17.5884 68.0588 17.5458C68.0899 17.5003 68.1225 17.4548 68.155 17.4093C68.1876 17.3637 68.2217 17.3197 68.2557 17.2757C68.2898 17.2316 68.3253 17.1876 68.3608 17.145C68.3934 17.1068 68.4259 17.0672 68.4585 17.029C68.4688 17.0188 68.4777 17.0085 68.4866 16.9982C68.5177 16.963 68.5503 16.9263 68.5843 16.8925C68.5873 16.8896 68.5887 16.8866 68.5917 16.8837C68.6287 16.8455 68.6657 16.8074 68.7027 16.7707L68.7219 16.7516C68.756 16.7178 68.79 16.6855 68.8256 16.6518C68.867 16.6136 68.9099 16.5754 68.9529 16.5373C68.9958 16.4991 69.0402 16.4624 69.0831 16.4257C69.1275 16.389 69.1719 16.3537 69.2178 16.3185C69.2178 16.3185 69.2178 16.3185 69.2193 16.3185C69.2652 16.2833 69.3125 16.2481 69.3584 16.2143C69.3629 16.2128 69.3658 16.2084 69.3702 16.2055C69.4132 16.1747 69.4576 16.1438 69.502 16.113C69.5493 16.0807 69.5982 16.0499 69.6456 16.019C69.5834 16.0469 69.5227 16.0763 69.4606 16.1071C66.8274 17.4269 65.735 20.5611 67.0272 23.0934C67.0509 23.1375 67.0657 23.1712 67.0805 23.1991C67.1041 23.2476 67.1263 23.2946 67.1678 23.3694L67.2107 23.4531C67.7362 24.4851 69.314 25.7373 71.9013 27.1775C73.7767 28.2212 75.4833 28.9758 75.5543 29.0066L76.1775 29.2797L76.3062 28.6969L76.2115 28.6528ZM75.9969 20.6639C75.991 20.5714 75.988 20.4774 75.9821 20.3849V20.3835L75.9806 20.382C75.9806 20.3805 75.9806 20.3791 75.9821 20.3791C75.9717 20.2146 75.9599 20.0517 75.9318 19.8902C75.9288 19.877 75.9258 19.8667 75.9244 19.8535C75.8903 19.7449 75.8503 19.6377 75.8074 19.532C75.8015 19.5188 75.8045 19.5159 75.8 19.5056C75.7645 19.4234 75.7142 19.3529 75.6875 19.2736C75.6417 19.2046 75.5839 19.1063 75.5573 19.0534C75.4996 18.9595 75.4403 18.8787 75.3826 18.8053C75.356 18.7819 75.3308 18.7584 75.3027 18.7334C75.2938 18.7349 75.282 18.7334 75.2746 18.7246C75.1221 18.5807 74.9697 18.4383 74.8128 18.3018C74.8098 18.3003 74.8083 18.2989 74.8069 18.2974C74.8039 18.2959 74.8024 18.2915 74.7994 18.2901C74.57 18.0919 74.3288 17.9084 74.0653 17.7557C74.0549 17.7513 74.0446 17.7469 74.0342 17.7425C73.9602 17.7146 73.8877 17.6882 73.827 17.6353C73.824 17.6324 73.8225 17.6295 73.8211 17.6265C73.8092 17.6177 73.7974 17.6104 73.7855 17.603C73.7796 17.6001 73.7752 17.5986 73.7693 17.5957C73.7619 17.6016 73.7515 17.6045 73.7411 17.5986C73.6982 17.5781 73.6523 17.5605 73.6079 17.5428C73.5813 17.5326 73.5517 17.5238 73.5265 17.512C74.2607 17.8555 74.8897 18.4354 75.2835 19.2105C75.4922 19.6186 75.618 20.0458 75.6668 20.4745C75.6535 20.4407 75.6417 20.4055 75.6313 20.3717C75.6283 20.3659 75.6268 20.36 75.6239 20.3526C75.612 20.3159 75.6017 20.2763 75.5898 20.2396C75.5144 19.8359 75.3071 19.4777 75.0481 19.1606C75.0466 19.1606 75.0466 19.1606 75.0466 19.1577C75.0437 19.1562 75.0422 19.1547 75.0407 19.1503C75.0378 19.1474 75.0363 19.1459 75.0348 19.143C75.0348 19.1415 75.0333 19.1415 75.0318 19.1401C74.983 19.0872 74.9253 19.0329 74.866 18.9815C74.866 18.9815 74.866 18.9815 74.8646 18.9815C74.7669 18.8655 74.6751 18.7422 74.5685 18.6351C74.5508 18.616 74.533 18.5954 74.5123 18.5778C74.4916 18.5587 74.4679 18.5411 74.4442 18.5235C74.3243 18.4266 74.1926 18.3444 74.0594 18.2651C73.9469 18.1712 73.8122 18.1022 73.6834 18.0302C73.5872 17.9774 73.488 17.9304 73.3874 17.8908C73.3193 17.8643 73.2497 17.8394 73.1757 17.8218C73.1165 17.8027 73.0544 17.7865 72.9922 17.7733C72.9848 17.7704 72.9774 17.7704 72.97 17.7675C72.8827 17.7058 72.7642 17.7014 72.6606 17.6852C72.5008 17.6588 72.3424 17.6397 72.1796 17.6353H72.0878H72.0863C72.0345 17.6324 71.9827 17.6324 71.9309 17.6339H71.9294C71.8761 17.6353 71.8214 17.6383 71.7681 17.6412H71.7577C71.7163 17.6441 71.6763 17.6471 71.6364 17.6485C71.6319 17.6485 71.629 17.6485 71.6275 17.6485C71.6186 17.6485 71.6112 17.65 71.6023 17.65C71.6008 17.65 71.5979 17.65 71.5964 17.65C71.5964 17.65 71.5964 17.65 71.5964 17.6485C71.5949 17.6485 71.5934 17.65 71.592 17.65C71.5875 17.6515 71.5846 17.6515 71.5801 17.6515C71.5698 17.6515 71.5668 17.653 71.5668 17.6544C71.5653 17.6559 71.5609 17.6559 71.5594 17.6559C71.5579 17.6559 71.5579 17.6559 71.5564 17.6559C71.5224 17.6588 71.4898 17.6618 71.4558 17.6676C71.3344 17.6794 71.1997 17.6985 71.1109 17.7513H71.1139L71.1094 17.7528L71.1109 17.7542C71.1124 17.7601 71.1257 17.763 71.142 17.7601L71.1449 17.7586L71.1464 17.7572L71.1524 17.7542C71.1612 17.7542 71.1686 17.7542 71.1731 17.7528C71.1746 17.7513 71.176 17.7513 71.176 17.7513C71.1849 17.7528 71.1879 17.7498 71.2086 17.7484C71.2086 17.7542 71.2145 17.7586 71.2249 17.7631C71.2545 17.7601 71.2678 17.7689 71.3004 17.7645C71.3921 17.7807 71.5017 17.7748 71.5786 17.7704H71.5801C71.586 17.7704 71.5905 17.7675 71.5905 17.7645C71.5905 17.7616 71.5846 17.7601 71.5786 17.7601C71.5106 17.7645 71.4188 17.7689 71.3374 17.7572C71.4809 17.7396 71.626 17.7234 71.7711 17.7131C71.7755 17.7146 71.7814 17.7161 71.7859 17.7161C71.851 17.7117 71.9161 17.7058 71.9827 17.7014C72.0049 17.7014 72.0256 17.6999 72.0479 17.6999C72.0686 17.6999 72.0893 17.6999 72.11 17.7014C72.1929 17.7073 72.2758 17.7205 72.3587 17.7308C72.3646 17.7366 72.3705 17.741 72.3809 17.7425C72.5481 17.766 72.708 17.8071 72.8649 17.8614C72.893 17.8732 72.9226 17.8834 72.9507 17.8937C72.9951 17.9113 73.041 17.9289 73.084 17.948C73.0943 17.9539 73.1047 17.951 73.1121 17.9451C73.118 17.948 73.1224 17.9495 73.1284 17.9524C73.1402 17.9598 73.152 17.9686 73.1639 17.9759C73.1654 17.9789 73.1668 17.9818 73.1698 17.9847C73.232 18.0361 73.303 18.064 73.377 18.0919L73.4081 18.1051C73.6716 18.2563 73.9128 18.4398 74.1437 18.6395C74.1452 18.6409 74.1482 18.6453 74.1497 18.6468C74.1526 18.6483 74.1526 18.6497 74.1571 18.6512C74.314 18.7877 74.4664 18.9316 74.6189 19.0755C74.6263 19.0843 74.6381 19.0857 74.647 19.0843C74.6736 19.1092 74.7003 19.1327 74.7269 19.1562C74.7846 19.2296 74.8438 19.3103 74.9031 19.4043C74.9312 19.4571 74.9874 19.554 75.0333 19.6245C75.0599 19.7023 75.1103 19.7742 75.1458 19.855C75.1502 19.8667 75.1473 19.8682 75.1532 19.8814C75.1976 19.9856 75.2361 20.0943 75.2701 20.2029C75.2716 20.2161 75.2746 20.2264 75.2775 20.2396C75.3057 20.3996 75.3175 20.564 75.3279 20.7285C75.3264 20.7299 75.3264 20.7314 75.3264 20.7314L75.3279 20.7329V20.7343C75.3338 20.8268 75.3367 20.9208 75.3412 21.0133C75.3515 21.1997 75.3575 21.3847 75.3589 21.5711C75.353 21.6577 75.3441 21.7443 75.3353 21.8309C75.3279 21.8691 75.3205 21.9058 75.3131 21.944C75.3101 21.9454 75.3086 21.9484 75.3131 21.9499C75.2894 22.0614 75.2642 22.1715 75.2361 22.2816C75.2316 22.2846 75.2287 22.289 75.2272 22.2948C75.1562 22.5503 75.0466 22.8013 74.909 23.0406C74.9045 23.0435 74.9031 23.045 74.8986 23.0494C74.8661 23.0949 74.8305 23.1448 74.8009 23.1962C74.7062 23.3078 74.6233 23.4296 74.5419 23.5529C74.5271 23.5705 74.5123 23.5882 74.4975 23.6043C74.496 23.6058 74.496 23.6072 74.4945 23.6072C74.493 23.6072 74.4931 23.6072 74.4916 23.6072C74.4901 23.6102 74.4886 23.6116 74.4871 23.6131C74.4383 23.6645 74.3865 23.7115 74.3347 23.7555C74.3066 23.7805 74.2547 23.8274 74.2163 23.8553C74.2015 23.8671 74.1807 23.873 74.1674 23.8832C74.1097 23.9258 74.0594 23.9772 74.0002 24.0168C74.0401 24.0007 74.0801 23.9831 74.1215 23.9654C74.1704 23.9434 74.2178 23.9214 74.2651 23.8964C74.3717 23.8421 74.4738 23.7849 74.573 23.7232C74.5774 23.7203 74.5819 23.7159 74.5848 23.7129C74.5834 23.7085 74.5804 23.7041 74.5893 23.7085C74.5937 23.7041 74.5967 23.6997 74.6011 23.6939C74.6825 23.6557 74.7447 23.5838 74.8187 23.5309C74.8305 23.5206 74.8527 23.5148 74.8675 23.503C74.906 23.4751 74.9578 23.4281 74.9859 23.4032C75.0392 23.3591 75.0896 23.3122 75.1399 23.2623C75.1399 23.2608 75.1414 23.2593 75.1428 23.2564C75.1443 23.2564 75.1443 23.2549 75.1443 23.2549C75.1458 23.2534 75.1458 23.2535 75.1473 23.252C75.1488 23.252 75.1488 23.252 75.1488 23.252C75.1636 23.2358 75.1784 23.2182 75.1932 23.2006C75.2731 23.0788 75.3575 22.9554 75.4522 22.8439C75.4803 22.7925 75.5158 22.7426 75.5499 22.6971C75.5528 22.6927 75.5558 22.6897 75.5602 22.6868C75.6979 22.449 75.8074 22.1965 75.8785 21.941C75.88 21.9352 75.8829 21.9308 75.8859 21.9278C75.914 21.8177 75.9406 21.7076 75.9643 21.5961C75.9599 21.5931 75.9614 21.5917 75.9643 21.5902C75.9717 21.552 75.9791 21.5153 75.9865 21.4771C75.9969 21.3905 76.0043 21.3039 76.0102 21.2173C76.0117 21.0353 76.0058 20.8503 75.9969 20.6639ZM73.8166 23.754C73.8092 23.7482 73.7989 23.7438 73.7885 23.7452C73.7885 23.7438 73.787 23.7423 73.787 23.7408C73.7589 23.757 73.7293 23.7717 73.6997 23.7863H73.6982C73.6893 23.7907 73.6819 23.7966 73.6716 23.7996C73.6686 23.8025 73.6671 23.804 73.6671 23.8054C73.6568 23.8098 73.6479 23.8142 73.6375 23.8186C73.6361 23.8186 73.6316 23.8186 73.6272 23.8216C73.6272 23.823 73.6272 23.823 73.6257 23.8245C73.5857 23.8451 73.5443 23.8641 73.5028 23.8832C73.4777 23.892 73.454 23.9008 73.4348 23.9097C73.4348 23.9097 73.4318 23.9126 73.4288 23.9155C73.3948 23.9302 73.3593 23.9434 73.3237 23.9566C73.3208 23.9581 73.3163 23.9596 73.3134 23.9596C73.2423 23.9831 73.1816 24.0007 73.1254 24.0168C73.0662 24.0315 73.007 24.0432 72.9463 24.0506C72.8989 24.0535 72.8516 24.0594 72.7953 24.0682V24.0697C72.7879 24.0711 72.779 24.0711 72.7702 24.0726L72.7613 24.0741C72.7568 24.0755 72.7509 24.0755 72.7465 24.077C72.745 24.077 72.7435 24.0785 72.7406 24.0785C72.7391 24.077 72.7361 24.077 72.7332 24.0755C72.7391 24.0726 72.742 24.0711 72.742 24.0682C72.745 24.0785 72.8042 24.0609 72.8264 24.0579H72.8249C72.8323 24.0565 72.8383 24.055 72.8442 24.055C72.8753 24.0535 72.8915 24.0535 72.89 24.0447C72.9063 24.0521 72.9463 24.0388 72.9803 24.0256C72.9892 24.0242 72.9937 24.0242 72.9951 24.0242C72.9996 24.0256 73.007 24.0242 73.0129 24.0212C73.0188 24.0183 73.0203 24.0139 73.0159 24.0139C73.0085 24.0124 72.9981 24.0109 72.9789 24.0153C72.9759 24.0168 72.9729 24.0168 72.97 24.0183L72.9715 24.0168C72.9137 24.0227 72.8886 24.0242 72.8442 24.0432C72.8412 24.0432 72.8368 24.0432 72.8323 24.0447C72.822 24.0418 72.8012 24.0462 72.7953 24.0418C72.7805 24.055 72.7746 24.0477 72.7494 24.0491C72.705 24.0521 72.6488 24.0653 72.5955 24.0667C72.5911 24.0653 72.5851 24.0623 72.5792 24.0623C72.5792 24.0623 72.5807 24.0623 72.5807 24.0609C72.5748 24.0623 72.5689 24.0623 72.5644 24.0623C72.4001 24.0653 72.2358 24.0653 72.07 24.0638C72.07 24.0623 72.07 24.0623 72.07 24.0623C72.0582 24.0609 72.0523 24.0623 72.0493 24.0638C72.0301 24.0638 72.0094 24.0623 71.9901 24.0623C71.5446 24.0007 71.1124 23.8612 70.6935 23.6865C70.658 23.6718 70.6313 23.7115 70.6461 23.735V23.7364C70.6491 23.7408 70.6521 23.7467 70.661 23.7496C70.9777 23.8818 71.3033 23.9933 71.6349 24.0682H71.6319C71.6275 24.0682 71.6245 24.0682 71.6201 24.0667C71.6023 24.0653 71.5846 24.0594 71.5668 24.0579C71.5683 24.0579 71.5683 24.0565 71.5712 24.0565C71.5623 24.0565 71.5579 24.0565 71.5505 24.055C71.4602 24.0388 71.3714 24.0198 71.2826 23.9992C71.2811 23.9977 71.2811 23.9977 71.2796 23.9977L71.2767 23.9963C71.2708 23.9948 71.2663 23.9948 71.2619 23.9948H71.2589C71.1805 23.9757 71.1035 23.9537 71.0251 23.9302C71.0206 23.9287 71.0147 23.9273 71.0103 23.9258C70.9407 23.8994 70.8667 23.873 70.7971 23.8421C70.7823 23.8304 70.7572 23.8172 70.7483 23.8216C70.7468 23.8216 70.7468 23.8201 70.7468 23.8201V23.8172V23.8157L70.7453 23.8142C70.7424 23.8113 70.735 23.8084 70.732 23.8054H70.729C70.7261 23.804 70.7231 23.804 70.7216 23.804C70.7201 23.804 70.7201 23.8054 70.7216 23.8084C70.6846 23.7937 70.6491 23.7775 70.6136 23.7599L70.581 23.7452C70.584 23.7467 70.5869 23.7482 70.5884 23.7511C70.6077 23.7629 70.6254 23.7731 70.6461 23.7849C70.6609 23.7937 70.6757 23.8025 70.6905 23.8098C70.7083 23.8201 70.7261 23.8304 70.7453 23.8407C70.84 23.892 70.9377 23.939 71.0354 23.9816C71.065 23.9948 71.0961 24.008 71.1272 24.0212C71.1301 24.0212 71.1316 24.0242 71.1346 24.0242C71.1583 24.033 71.1834 24.0432 71.2071 24.052C71.3122 24.0932 71.4203 24.1284 71.5298 24.1592C71.549 24.1651 71.5698 24.171 71.5905 24.1754C71.6423 24.19 71.6956 24.2018 71.7489 24.2135C71.7711 24.2194 71.7933 24.2238 71.8155 24.2282C71.8821 24.2414 71.9487 24.2532 72.0153 24.262C72.0168 24.262 72.0182 24.262 72.0197 24.262C72.0478 24.2664 72.0745 24.2693 72.1026 24.2737C72.1085 24.2737 72.1145 24.2752 72.1219 24.2767H72.1233C72.2181 24.2708 72.3113 24.2576 72.3972 24.2267C72.5008 24.2267 72.6088 24.2047 72.7124 24.1798C72.8323 24.171 72.9507 24.1577 73.0677 24.1372C73.1802 24.1181 73.263 24.0491 73.3711 24.0286C73.3829 24.0256 73.3903 24.0183 73.3933 24.0109C73.5413 23.9537 73.6834 23.8847 73.8181 23.8113C73.8388 23.7966 73.8344 23.7687 73.8166 23.754Z" fill="#057832"/>
<path d="M97.5315 66.4617C96.9395 66.4617 96.4244 66.6804 95.9877 67.1135C95.5496 67.5466 95.3335 68.0545 95.3335 68.6432C95.3335 69.2568 95.5466 69.7736 95.9685 70.1934C96.3903 70.6147 96.9113 70.8232 97.5315 70.8232C98.1517 70.8232 98.6727 70.6147 99.0931 70.1934C99.5194 69.7736 99.7296 69.2583 99.7296 68.6432C99.7296 68.053 99.5105 67.5451 99.0753 67.1135C98.6357 66.6804 98.1221 66.4617 97.5315 66.4617Z" fill="black"/>
<path d="M97.5316 71.2533C96.7945 71.2533 96.164 71.0023 95.6578 70.4987C95.153 69.9981 94.897 69.3742 94.897 68.6446C94.897 67.9385 95.1604 67.3234 95.6814 66.8067C96.719 65.7776 98.3398 65.7761 99.3818 66.8067C99.9028 67.3234 100.166 67.9385 100.166 68.6446C100.166 69.3742 99.9073 69.9981 99.4025 70.4987C98.9008 71.0023 98.2687 71.2533 97.5316 71.2533ZM97.5316 66.8948C97.0535 66.8948 96.6509 67.065 96.2972 67.4174C95.9405 67.7697 95.7673 68.1705 95.7673 68.6432C95.7673 69.1423 95.9345 69.546 96.275 69.8866C96.6154 70.2257 97.0269 70.3886 97.5316 70.3886C98.0334 70.3886 98.4464 70.2272 98.7883 69.8866C99.1287 69.5475 99.2945 69.1423 99.2945 68.6432C99.2945 68.169 99.1213 67.7697 98.7646 67.4174C98.4094 67.065 98.0082 66.8948 97.5316 66.8948Z" fill="black"/>
<path d="M89.6263 49.3549H87.853V46.0034H85.7379V51.4996C85.3013 50.7627 84.721 50.3561 84.0046 50.0654V49.3549H67.3929H65.448H45.0737V51.4556H47.4405V52.7093C49.976 53.2701 51.656 53.847 52.47 54.4298C53.6823 55.2974 54.4283 56.8212 54.708 58.9998C54.597 59.6428 54.2447 60.3827 53.6527 61.2209C52.9777 62.1986 52.3546 62.6904 51.7951 62.6904C51.2297 62.6904 50.6805 62.2426 50.1447 61.3471C49.7806 60.7056 49.4254 60.0479 49.0879 59.3771L47.2273 60.3841C49.0213 63.3759 50.6065 64.8704 51.9801 64.8704C53.0147 64.8704 53.9842 64.2524 54.8797 63.0148C55.5532 61.8903 56.2459 60.7394 56.9623 59.5547C57.6757 58.3773 58.3847 57.7843 59.0863 57.7843C59.7021 57.7843 60.4599 58.3744 61.3554 59.5532C62.0866 60.5339 62.6313 61.4587 62.9954 62.3249V72.5423H65.1076V51.4556H65.4465H67.3914H79.1039V53.0895C74.918 54.3183 71.0548 56.2898 67.5187 59.0013L68.916 61.2679C70.5042 61.0124 72.5113 61.8507 74.9417 63.7826C77.2078 65.6 78.6761 67.3176 79.354 68.9383V72.5437H81.3004V51.4571H83.2409C83.6805 51.6567 84.1186 51.9533 84.5627 52.4847C85.3442 53.4213 85.7379 54.054 85.7379 54.3902V72.5452H87.853V51.4586H89.6263H91.022H103.281V53.0088C98.7277 54.6016 94.7846 56.6407 91.4439 59.1275C91.8065 59.6575 92.3157 60.3724 92.964 61.2693C94.6277 61.0433 96.654 61.8698 99.0519 63.74C101.306 65.4723 102.785 67.1781 103.489 68.8546L103.618 72.5452H105.48V51.4586H108.476V49.3578H91.0206H89.6263V49.3549ZM62.9969 58.5799C61.6144 56.6524 60.3592 55.6864 59.2328 55.6864C58.2471 55.6864 57.3323 56.0916 56.4827 56.9034C55.9484 55.34 55.2868 54.1729 54.4978 53.4022C53.7074 52.6344 52.5115 51.9841 50.9026 51.4542H62.9939V58.5799H62.9969ZM79.1054 65.1214C78.4822 63.9749 77.2685 62.7799 75.4671 61.5365C73.6628 60.2902 72.1264 59.5723 70.858 59.3756C71.6217 58.7032 72.9302 57.9076 74.7907 56.9842C76.5639 56.0916 78.0012 55.5074 79.1039 55.2284V65.1214H79.1054ZM103.282 65.2462C102.351 63.878 101.151 62.6493 99.6869 61.5585C98.0528 60.3269 96.4882 59.6017 94.9948 59.3771C97.1661 57.5596 99.9252 56.1621 103.282 55.1844V65.2462Z" fill="black"/>
<path d="M105.915 72.9724H103.199L103.058 68.9471C102.374 67.3704 100.939 65.7336 98.7851 64.0806C96.4938 62.2896 94.5592 61.4866 93.0243 61.6936L92.7653 61.7273L92.6113 61.516C91.9601 60.6205 91.4494 59.9026 91.0838 59.3697L90.85 59.0291L91.1801 58.7825C94.4734 56.3338 98.3943 54.2859 102.844 52.7005V51.8887H88.2849V72.9739H85.3009V54.3872C85.3009 54.3535 85.2713 54.0056 84.2263 52.7577C83.8962 52.3643 83.5499 52.0868 83.1443 51.8872H81.7382V72.9724H78.92V69.0219C78.2583 67.4981 76.827 65.8481 74.669 64.1158C72.354 62.2779 70.4431 61.4528 68.9896 61.6921L68.7025 61.7347L66.9411 58.8926L67.2519 58.6577C70.7303 55.9918 74.5683 54.0129 78.6654 52.768V51.8857H65.5438V72.9709H62.5584V62.4114C62.2091 61.6026 61.6866 60.7262 61.0027 59.8057C59.9533 58.4228 59.3524 58.2129 59.0859 58.2129C58.5575 58.2129 57.9536 58.7561 57.3349 59.7778C56.6215 60.9566 55.9243 62.109 55.2538 63.2335C54.2547 64.6149 53.1594 65.302 51.9797 65.302C50.4271 65.302 48.7486 63.7635 46.854 60.6028L46.6216 60.2153L49.274 58.781L49.4768 59.1818C49.8143 59.8512 50.1665 60.5059 50.5233 61.1343C50.8297 61.6407 51.2974 62.2558 51.7947 62.2558C52.1914 62.2558 52.7228 61.8037 53.2926 60.9772C53.8314 60.2153 54.1556 59.5517 54.268 58.9865C53.9957 56.9768 53.3074 55.5573 52.2136 54.7748C51.4498 54.2287 49.8098 53.6753 47.3454 53.1306L47.0064 53.0543V51.8843H44.6382V48.9233H84.4409V49.7821C84.768 49.9333 85.0537 50.1138 85.3024 50.3179V45.5703H88.2863V48.9247H108.914V51.8857H105.915V72.9724V72.9724ZM104.043 72.1092H105.043V51.0211H108.046V49.7865H87.416V46.4364H86.1757V53.0778L85.3645 51.714C85.0152 51.1312 84.5593 50.7583 83.8444 50.4662L83.5721 50.3546V49.7879H45.507V51.0225H47.8782V52.3687C50.3012 52.9207 51.8894 53.48 52.7272 54.079C54.0327 55.0141 54.8468 56.6524 55.1443 58.9455L55.1502 59.01L55.1384 59.0776C55.017 59.7881 54.647 60.5705 54.012 61.4704C52.4608 63.7121 51.0102 63.6417 49.7713 61.5703C49.4738 61.0491 49.1822 60.5177 48.901 59.9701L47.8338 60.547C49.8276 63.7517 51.1849 64.4373 51.9797 64.4373C52.8604 64.4373 53.7204 63.878 54.5271 62.7623C55.1798 61.6701 55.874 60.5162 56.5889 59.3345C57.3956 58.0015 58.2112 57.3527 59.0859 57.3527C59.8512 57.3527 60.7097 57.9854 61.7028 59.289C62.4518 60.299 63.0231 61.2664 63.3976 62.159L63.4317 62.3234V72.1092H64.675V51.0211H79.5357V53.4125L79.2234 53.5005C75.2359 54.6764 71.4911 56.5614 68.0971 59.1069L69.145 60.804C70.8176 60.6601 72.801 61.5277 75.2137 63.4405C77.5257 65.2976 79.0517 67.0886 79.7562 68.7694L79.7873 68.9353V72.1077H80.8649V51.0196L83.4255 51.0592C83.9954 51.3176 84.4631 51.6802 84.8968 52.2014C86.0217 53.5446 86.1742 54.0613 86.1742 54.3858V72.1092H87.4145V51.0211H103.715V53.3097L103.425 53.4125C99.0915 54.9275 95.2623 56.8844 92.0385 59.2229C92.342 59.6574 92.7224 60.1874 93.1708 60.8084C94.8819 60.6777 96.9586 61.5497 99.3224 63.3965C101.624 65.1669 103.165 66.9476 103.892 68.6843L103.929 68.837L104.043 72.1092ZM79.5372 66.839L78.7187 65.3255C78.134 64.245 76.9558 63.0882 75.2181 61.8888C73.4774 60.6894 71.9869 59.9907 70.7925 59.8072L69.8807 59.6633L70.569 59.057C71.3682 58.3524 72.6796 57.5464 74.5964 56.5996C76.3889 55.6953 77.8705 55.0919 78.9954 54.8086L79.5372 54.6662V66.839ZM71.836 59.1627C72.9712 59.5106 74.2708 60.1874 75.714 61.1812C76.9721 62.0459 77.9564 62.9032 78.6669 63.7415V55.8024C77.6826 56.1122 76.4466 56.6377 74.9872 57.3717C73.6477 58.0367 72.5938 58.6372 71.836 59.1627ZM103.717 66.6599L102.921 65.4855C102.021 64.1657 100.845 62.9634 99.423 61.905C97.857 60.7203 96.3428 60.0156 94.9293 59.8086L93.979 59.6648L94.7117 59.0497C96.9171 57.2014 99.7605 55.7657 103.157 54.7719L103.715 54.6104V66.6599H103.717ZM95.9861 59.148C97.2664 59.5004 98.5926 60.1933 99.9514 61.215C101.059 62.0371 102.03 62.9531 102.844 63.9441V55.7687C100.159 56.6084 97.8585 57.7387 95.9861 59.148ZM63.4331 59.9364L62.6413 58.8324C61.3535 57.0326 60.2064 56.1195 59.2339 56.1195C58.3577 56.1195 57.5584 56.4777 56.7887 57.2146L56.2959 57.6873L56.0723 57.0444C55.5632 55.5514 54.9311 54.4298 54.1926 53.712C53.4569 52.9926 52.3024 52.3702 50.769 51.8637L48.2231 51.0211H63.4317V59.9364H63.4331ZM59.2339 55.2534C60.2893 55.2534 61.3861 55.9272 62.5598 57.313V51.8872H53.0736C53.7737 52.2513 54.3524 52.6535 54.8053 53.0925C55.5351 53.8074 56.1626 54.8394 56.6822 56.1679C57.4711 55.5587 58.3296 55.2534 59.2339 55.2534Z" fill="black"/>
<path d="M163.604 49.3549H160.559H144.326H141.869H117.524V51.4556H127.207C125.093 52.8605 124.035 54.6662 124.035 57.3717C124.035 58.6386 124.457 59.7411 125.298 60.688C126.14 61.6305 127.176 62.1032 128.409 62.1032C129.87 62.1032 131.116 61.5864 132.155 60.5515C132.943 61.2297 133.336 62.0709 133.336 63.0838C133.336 64.1261 132.907 65.0407 132.049 65.829C131.193 66.6129 130.246 67.0078 129.204 67.0078C127.46 67.0078 125.863 65.9875 124.401 63.9367C123.22 62.2573 122.432 60.434 122.04 58.4713C121.813 56.2296 121.717 54.534 121.745 53.3816H119.638C119.638 56.5937 119.916 59.0291 120.484 60.6792C121.244 62.8871 122.299 64.7573 123.65 66.2944C125.344 68.1675 127.216 69.1056 129.276 69.1056C130.91 69.1056 132.348 68.4905 133.587 67.2603C134.825 66.0331 135.446 64.6032 135.446 62.984C135.446 61.9211 135.192 61.0109 134.685 60.2579C134.347 59.7807 133.672 59.1128 132.654 58.2437L131.094 58.5799C130.555 59.5312 129.7 60.0054 128.514 60.0054C127.838 60.0054 127.274 59.7396 126.822 59.2082C126.375 58.6797 126.146 58.0632 126.146 57.3615C126.146 56.441 126.392 55.5338 126.886 54.6383C127.383 53.7442 128.049 53.088 128.893 52.6667C129.963 54.7939 131.357 56.1489 133.077 56.7331C134.121 57.0708 136.149 57.2249 139.167 57.1941C138.769 58.0074 138.388 59.1671 138.025 60.6777C137.658 62.1854 137.475 63.4126 137.475 64.3654C137.475 66.9388 137.92 69.7031 138.828 72.6685L140.854 72.0402C140.007 69.132 139.586 67.1194 139.586 66.0008C139.586 63.0104 140.289 59.8219 141.698 56.441L140.641 55.0567C138.529 55.1403 137.359 55.1844 137.131 55.1844C135.526 55.1844 134.273 54.9466 133.369 54.4695C132.241 53.8558 131.371 53.0205 130.751 51.4541H141.824H144.318H158.015V59.838C156.606 56.9842 154.519 55.5587 151.757 55.5587C149.954 55.5587 148.466 56.2531 147.297 57.6389C146.129 59.0218 145.545 60.619 145.545 62.4364C145.545 64.4799 146.277 66.0022 147.741 67.0078L149.137 65.3739C148.15 64.3947 147.657 63.3921 147.657 62.3542C147.657 60.8465 148.135 59.6868 149.088 58.8735C149.96 58.119 151.151 57.7402 152.663 57.7402C153.62 57.7402 154.606 58.3612 155.616 59.5928C156.455 60.6014 157.256 62.2279 158.015 64.4726V72.6714H160.211V51.4571H160.55H163.595H167.053C165.644 53.044 165.161 54.6618 165.161 56.8095C165.161 57.7857 165.358 59.2934 165.753 61.3325C166.147 63.3642 166.345 64.7749 166.345 65.5559C166.345 67.5671 165.965 68.9706 165.213 69.7824C164.596 70.4533 164.248 70.854 162.261 71.4383L162.855 73.448C165.112 72.6935 165.738 72.14 166.64 71.3267C167.852 70.2154 168.457 68.6388 168.457 66.6026C168.457 65.5134 168.262 63.903 167.864 61.7699C167.472 59.6354 167.275 58.0367 167.275 56.9768C167.275 55.1374 167.982 53.4639 169.843 51.4556H172.56V49.3549H163.604V49.3549Z" fill="black"/>
<path d="M162.572 74L161.732 71.1462L162.148 71.0243C163.989 70.4797 164.301 70.1391 164.874 69.5182C165.573 68.7665 165.916 67.4424 165.916 65.5545C165.916 64.8087 165.722 63.4126 165.331 61.4088C164.935 59.3594 164.733 57.8121 164.733 56.808C164.733 54.7939 165.166 53.2701 166.16 51.8872H160.657V73.1001H157.587V64.5401C156.858 62.3924 156.083 60.8216 155.287 59.8674C154.365 58.7429 153.489 58.1733 152.672 58.1733C151.273 58.1733 150.167 58.5197 149.386 59.2009C148.517 59.9364 148.1 60.9669 148.1 62.3542C148.1 63.2658 148.557 64.1804 149.452 65.0671L149.734 65.346L147.827 67.5848L147.502 67.3601C145.916 66.2753 145.117 64.6164 145.117 62.4349C145.117 60.5207 145.74 58.8148 146.969 57.3585C148.219 55.8788 149.831 55.1301 151.763 55.1301C154.19 55.1301 156.146 56.1738 157.584 58.2393V51.8857H131.424C131.926 52.8722 132.593 53.5505 133.584 54.0936C134.416 54.5296 135.612 54.7543 137.138 54.7543C137.354 54.7543 138.495 54.7102 140.628 54.6265L140.857 54.6192L142.2 56.3794L142.106 56.6069C140.722 59.9202 140.025 63.0809 140.025 66.0008C140.025 67.0709 140.449 69.0631 141.276 71.9169L141.397 72.3221L138.538 73.2087L138.416 72.7889C137.506 69.8044 137.043 66.9682 137.043 64.3639C137.043 63.3833 137.231 62.1076 137.607 60.575C137.892 59.3873 138.193 58.4008 138.504 57.6286H138.479C135.774 57.6286 133.963 57.4686 132.947 57.1427C131.23 56.5585 129.812 55.2504 128.72 53.2642C128.128 53.6386 127.641 54.167 127.272 54.8423C126.815 55.6703 126.586 56.5188 126.586 57.3585C126.586 57.9589 126.772 58.4742 127.158 58.9278C127.528 59.3609 127.968 59.5738 128.517 59.5738C129.535 59.5738 130.261 59.1759 130.715 58.3671L130.811 58.1968L132.777 57.774L132.944 57.9149C133.992 58.8119 134.68 59.4974 135.043 60.0024C135.604 60.8392 135.887 61.8345 135.887 62.981C135.887 64.7133 135.216 66.2547 133.895 67.5627C132.579 68.8693 131.022 69.5314 129.278 69.5314C127.101 69.5314 125.097 68.539 123.328 66.5806C121.942 65.0069 120.847 63.0647 120.07 60.8128C119.496 59.129 119.201 56.6289 119.201 53.3787V52.9457H122.189L122.178 53.389C122.152 54.5223 122.25 56.2135 122.472 58.4272C122.845 60.2799 123.613 62.0621 124.758 63.6901C126.121 65.6044 127.617 66.5733 129.202 66.5733C130.138 66.5733 130.968 66.2254 131.753 65.5075C132.519 64.7999 132.895 64.0042 132.895 63.0809C132.895 62.3219 132.651 61.6848 132.151 61.1446C131.094 62.0665 129.837 62.5304 128.408 62.5304C127.05 62.5304 125.891 62.0063 124.969 60.9684C124.06 59.9525 123.599 58.7355 123.599 57.3688C123.599 55.067 124.345 53.2936 125.93 51.8843H117.087V48.9233H172.996V51.8843H170.043C168.413 53.6811 167.714 55.2093 167.714 56.9739C167.714 58.0059 167.907 59.5914 168.299 61.6907C168.696 63.8369 168.9 65.4914 168.9 66.5997C168.9 68.7504 168.24 70.4474 166.94 71.6482C166.018 72.4718 165.355 73.0678 162.997 73.8561L162.572 74ZM162.809 71.7231L163.156 72.8902C164.988 72.2355 165.542 71.7378 166.354 71.0096C167.464 69.9864 168.031 68.5023 168.031 66.6012C168.031 65.5442 167.836 63.9441 167.444 61.8448C167.048 59.6971 166.847 58.0588 166.847 56.9739C166.847 54.9568 167.677 53.1644 169.531 51.1591L169.661 51.0181H172.131V49.7835H117.964V51.0181H128.639L127.451 51.8094C125.393 53.1791 124.476 54.8952 124.476 57.3688C124.476 58.5374 124.849 59.5283 125.628 60.3973C126.392 61.2547 127.3 61.6672 128.414 61.6672C129.766 61.6672 130.891 61.2018 131.85 60.2417L132.139 59.9569L132.448 60.2197C133.328 60.9772 133.776 61.9402 133.776 63.0794C133.776 64.2406 133.297 65.2712 132.348 66.1402C131.414 67.0005 130.357 67.435 129.21 67.435C127.33 67.435 125.592 66.3413 124.052 64.1833C122.841 62.457 122.022 60.5632 121.617 58.5506C121.415 56.5394 121.313 54.9568 121.313 53.8089H120.077C120.107 56.7537 120.381 59.013 120.9 60.5353C121.642 62.6816 122.681 64.5239 123.988 66.0081C125.581 67.7741 127.363 68.6667 129.284 68.6667C130.811 68.6667 132.12 68.1088 133.288 66.952C134.456 65.7982 135.019 64.4931 135.019 62.981C135.019 62.0092 134.784 61.1724 134.33 60.4942C134.038 60.0832 133.433 59.4828 132.54 58.7106L131.375 58.9601C130.757 59.9393 129.792 60.4355 128.522 60.4355C127.709 60.4355 127.031 60.1155 126.495 59.4842C125.974 58.8779 125.715 58.1615 125.715 57.3585C125.715 56.372 125.985 55.3826 126.512 54.4298C127.043 53.4624 127.784 52.7387 128.705 52.2806L129.097 52.0869L129.29 52.4744C130.307 54.4827 131.631 55.7775 133.228 56.325C134.139 56.6157 135.908 56.7655 138.484 56.7655L139.873 56.7566L139.566 57.3835C139.186 58.1615 138.815 59.3066 138.459 60.7761C138.098 62.2456 137.919 63.4508 137.919 64.3639C137.919 66.7656 138.325 69.3713 139.127 72.1209L140.326 71.7495C139.543 68.9955 139.162 67.1135 139.162 65.9993C139.162 63.0354 139.854 59.838 141.215 56.5041L140.444 55.4971C138.419 55.5764 137.365 55.6116 137.145 55.6116C135.472 55.6116 134.139 55.3561 133.178 54.8511C131.819 54.1113 130.952 53.1115 130.358 51.6097L130.123 51.0196H158.464V61.7009L157.638 60.0259C156.297 57.3116 154.377 55.9918 151.77 55.9918C150.089 55.9918 148.74 56.6201 147.645 57.9134C146.548 59.2068 145.992 60.7291 145.992 62.4335C145.992 64.1848 146.548 65.4972 147.688 66.4177L148.564 65.3857C147.685 64.4182 147.234 63.395 147.234 62.3513C147.234 60.7174 147.768 59.4373 148.819 58.5447C149.765 57.7255 151.066 57.3071 152.678 57.3071C153.769 57.3071 154.873 57.9839 155.967 59.3169C156.835 60.3606 157.672 62.0459 158.44 64.3302L158.465 64.4696V72.234H159.794V51.0196H168.031L167.396 51.7375C166.126 53.1688 165.611 54.6368 165.611 56.8065C165.611 57.7593 165.805 59.2508 166.193 61.2473C166.598 63.3304 166.797 64.7397 166.797 65.553C166.797 67.6919 166.384 69.1717 165.549 70.073C164.881 70.7938 164.442 71.2034 162.809 71.7231Z" fill="black"/>
</svg>
