<svg width="187" height="135" viewBox="0 0 187 135" fill="none" xmlns="http://www.w3.org/2000/svg">
<path d="M154.131 82.8459H24.6831C22.2046 82.8459 20.1943 80.8799 20.1943 78.4561V5.18567C20.1943 2.76188 22.2046 0.795898 24.6831 0.795898H154.131C156.61 0.795898 158.62 2.76188 158.62 5.18567V78.4561C158.62 80.8799 156.61 82.8459 154.131 82.8459Z" fill="#F6F9FF" stroke="#CCCCCC" stroke-width="0.2528" stroke-miterlimit="10"/>
<path d="M152.296 80.7633H26.519C24.1415 80.7633 22.2139 78.8781 22.2139 76.5531V7.09792C22.2139 4.77287 24.1415 2.8877 26.519 2.8877H152.286C154.664 2.8877 156.592 4.77287 156.592 7.09792V76.5531C156.601 78.8781 154.673 80.7633 152.296 80.7633Z" fill="#CECECE"/>
<path d="M89.4083 39.4054C95.0407 39.4054 99.6066 34.9401 99.6066 29.4319C99.6066 23.9238 95.0407 19.4585 89.4083 19.4585C83.7759 19.4585 79.21 23.9238 79.21 29.4319C79.21 34.9401 83.7759 39.4054 89.4083 39.4054Z" fill="url(#paint0_linear)"/>
<path d="M89.4081 40.9506C95.9125 40.9506 101.185 35.794 101.185 29.4331C101.185 23.0721 95.9125 17.9155 89.4081 17.9155C82.9037 17.9155 77.6309 23.0721 77.6309 29.4331C77.6309 35.794 82.9037 40.9506 89.4081 40.9506Z" fill="#079D49"/>
<path d="M89.4095 14.7822C81.1389 14.7822 74.4287 21.3444 74.4287 29.4327C74.4287 37.521 81.1389 44.0832 89.4095 44.0832C97.6802 44.0832 104.39 37.521 104.39 29.4327C104.39 21.3444 97.6802 14.7822 89.4095 14.7822ZM94.8621 22.4307C96.5236 21.4971 98.644 22.0536 99.5987 23.6784C100.553 25.3033 99.9843 27.377 98.3228 28.3106C96.6613 29.2442 94.5408 28.6876 93.5862 27.0718C92.6315 25.4469 93.2007 23.3732 94.8621 22.4307ZM83.957 36.4348C82.2955 37.3684 80.1751 36.8118 79.2112 35.196C78.2474 33.5801 78.8257 31.4974 80.478 30.5638C82.1303 29.6302 84.2599 30.1868 85.2145 31.8027C86.1784 33.4185 85.6093 35.4922 83.957 36.4348ZM85.2237 27.0718C84.2691 28.6966 82.1394 29.2532 80.4871 28.3106C78.8256 27.377 78.2565 25.2943 79.2203 23.6784C80.175 22.0536 82.3047 21.4971 83.957 22.4396C85.6093 23.3733 86.1784 25.4469 85.2237 27.0718ZM89.4095 40.9503C87.491 40.9503 85.9397 39.4331 85.9397 37.5569C85.9397 35.6807 87.491 34.1636 89.4095 34.1636C91.328 34.1636 92.8793 35.6807 92.8793 37.5569C92.8793 39.4241 91.328 40.9503 89.4095 40.9503ZM87.2157 29.2622C87.2157 28.0772 88.1979 27.1166 89.4095 27.1166C90.6212 27.1166 91.6034 28.0772 91.6034 29.2622C91.6034 30.4471 90.6212 31.4077 89.4095 31.4077C88.1979 31.4077 87.2157 30.4471 87.2157 29.2622ZM89.4095 24.7108C87.491 24.7108 85.9397 23.1937 85.9397 21.3175C85.9397 19.4413 87.491 17.9242 89.4095 17.9242C91.328 17.9242 92.8793 19.4413 92.8793 21.3175C92.8793 23.1847 91.328 24.7108 89.4095 24.7108ZM99.6079 35.187C98.6532 36.8118 96.5236 37.3684 94.8713 36.4258C93.2098 35.4922 92.6407 33.4095 93.6046 31.7937C94.5592 30.1688 96.6888 29.6123 98.3411 30.5549C99.9934 31.4885 100.563 33.5711 99.6079 35.187Z" fill="url(#paint1_linear)"/>
<path d="M89.4082 15.2046C81.367 15.2046 74.8496 21.5783 74.8496 29.4421C74.8496 37.306 81.367 43.6797 89.4082 43.6797C97.4494 43.6797 103.967 37.306 103.967 29.4421C103.967 21.5693 97.4494 15.2046 89.4082 15.2046ZM94.7047 22.6375C96.3203 21.7309 98.3765 22.2695 99.3128 23.8405C100.24 25.4204 99.6891 27.4312 98.0827 28.3469C96.4763 29.2626 94.411 28.715 93.4747 27.144C92.5384 25.5641 93.0983 23.5442 94.7047 22.6375ZM84.1024 36.2377C82.4869 37.1444 80.4307 36.6058 79.4944 35.0348C78.5673 33.4548 79.118 31.444 80.7244 30.5283C82.34 29.6216 84.3962 30.1603 85.3325 31.7313C86.2688 33.3022 85.718 35.3221 84.1024 36.2377ZM85.3417 27.135C84.4146 28.715 82.3492 29.2536 80.7336 28.3379C79.118 27.4312 78.5673 25.4114 79.5036 23.8315C80.4399 22.2515 82.496 21.7129 84.1116 22.6285C85.718 23.5442 86.2688 25.564 85.3417 27.135ZM89.4082 40.6185C87.5447 40.6185 86.0393 39.1463 86.0393 37.3239C86.0393 35.5016 87.5447 34.0294 89.4082 34.0294C91.2716 34.0294 92.777 35.5016 92.777 37.3239C92.777 39.1463 91.2716 40.6185 89.4082 40.6185ZM87.2693 29.2626C87.2693 28.1135 88.224 27.1799 89.399 27.1799C90.574 27.1799 91.5286 28.1135 91.5286 29.2626C91.5286 30.4116 90.574 31.3452 89.399 31.3452C88.224 31.3452 87.2693 30.4206 87.2693 29.2626ZM89.4082 24.8459C87.5447 24.8459 86.0393 23.3736 86.0393 21.5513C86.0393 19.729 87.5447 18.2567 89.4082 18.2567C91.2716 18.2567 92.777 19.729 92.777 21.5513C92.777 23.3646 91.2716 24.8459 89.4082 24.8459ZM99.3128 35.0258C98.3856 36.6058 96.3203 37.1444 94.7047 36.2287C93.0891 35.3221 92.5384 33.3022 93.4747 31.7223C94.4018 30.1423 96.4672 29.6037 98.0827 30.5194C99.6891 31.435 100.24 33.4458 99.3128 35.0258Z" fill="#E6E6E6"/>
<path opacity="0.2" d="M75.8318 30.2685C75.8318 22.4046 82.3492 16.0309 90.3904 16.0309C93.4196 16.022 96.3845 16.9556 98.8446 18.6792C96.2101 16.4798 92.8688 15.2769 89.4082 15.2769C81.367 15.2769 74.8496 21.6505 74.8496 29.5144C74.8496 34.1106 77.1169 38.4286 80.9447 41.0948C77.7044 38.4017 75.8318 34.4428 75.8318 30.2685Z" fill="white"/>
<path opacity="0.2" d="M89.4069 31.6589C90.7605 31.6589 91.8578 30.5858 91.8578 29.2621C91.8578 27.9383 90.7605 26.8652 89.4069 26.8652C88.0533 26.8652 86.9561 27.9383 86.9561 29.2621C86.9561 30.5858 88.0533 31.6589 89.4069 31.6589Z" stroke="white" stroke-width="0.8084" stroke-miterlimit="10"/>
<path d="M40.7838 59.1553H28.0795C23.7468 59.1553 20.2402 62.5845 20.2402 66.8217V104.696H23.2695V101.814H45.5847V104.696H48.6139V66.8217C48.6231 62.5935 45.1165 59.1553 40.7838 59.1553Z" fill="#4C495E"/>
<path d="M70.1393 59.1553H57.4349C53.1022 59.1553 49.5957 62.5845 49.5957 66.8217V104.696H52.6249V101.814H74.9401V104.696H77.9693V66.8217C77.9785 62.5935 74.4628 59.1553 70.1393 59.1553Z" fill="#4C495E"/>
<path d="M99.486 59.1553H86.7817C82.449 59.1553 78.9424 62.5845 78.9424 66.8217V104.696H81.9716V101.814H104.287V104.696H107.316V66.8217C107.325 62.5935 103.819 59.1553 99.486 59.1553Z" fill="#4C495E"/>
<path d="M128.842 59.1553H116.138C111.805 59.1553 108.299 62.5845 108.299 66.8217V104.696H111.328V101.814H133.643V104.696H136.672V66.8217C136.682 62.5935 133.175 59.1553 128.842 59.1553Z" fill="#4C495E"/>
<path d="M158.189 59.1553H145.485C141.152 59.1553 137.646 62.5845 137.646 66.8217V104.696H140.675V101.814H162.99V104.696H166.019V66.8217C166.038 62.5935 162.522 59.1553 158.189 59.1553Z" fill="#4C495E"/>
<path opacity="0.1" d="M40.7838 59.1553H28.0795C23.7468 59.1553 20.2402 62.5845 20.2402 66.8217V104.696H23.2695V101.814H45.5847V104.696H48.6139V66.8217C48.6231 62.5935 45.1165 59.1553 40.7838 59.1553Z" fill="black"/>
<path opacity="0.1" d="M70.1393 59.1553H57.4349C53.1022 59.1553 49.5957 62.5845 49.5957 66.8217V104.696H52.6249V101.814H74.9401V104.696H77.9693V66.8217C77.9785 62.5935 74.4628 59.1553 70.1393 59.1553Z" fill="black"/>
<path opacity="0.1" d="M99.486 59.1553H86.7817C82.449 59.1553 78.9424 62.5845 78.9424 66.8217V104.696H81.9716V101.814H104.287V104.696H107.316V66.8217C107.325 62.5935 103.819 59.1553 99.486 59.1553Z" fill="black"/>
<path opacity="0.1" d="M128.842 59.1553H116.138C111.805 59.1553 108.299 62.5845 108.299 66.8217V104.696H111.328V101.814H133.643V104.696H136.672V66.8217C136.682 62.5935 133.175 59.1553 128.842 59.1553Z" fill="black"/>
<path opacity="0.1" d="M158.189 59.1553H145.485C141.152 59.1553 137.646 62.5845 137.646 66.8217V104.696H140.675V101.814H162.99V104.696H166.019V66.8217C166.038 62.5935 162.522 59.1553 158.189 59.1553Z" fill="black"/>
<path opacity="0.1" d="M40.7838 59.1553H28.0795C23.7468 59.1553 20.2402 62.5845 20.2402 66.8217V104.696H23.2695V101.814H45.5847V104.696H48.6139V66.8217C48.6231 62.5935 45.1165 59.1553 40.7838 59.1553Z" fill="black"/>
<path opacity="0.1" d="M70.1393 59.1553H57.4349C53.1022 59.1553 49.5957 62.5845 49.5957 66.8217V104.696H52.6249V101.814H74.9401V104.696H77.9693V66.8217C77.9785 62.5935 74.4628 59.1553 70.1393 59.1553Z" fill="black"/>
<path opacity="0.1" d="M99.486 59.1553H86.7817C82.449 59.1553 78.9424 62.5845 78.9424 66.8217V104.696H81.9716V101.814H104.287V104.696H107.316V66.8217C107.325 62.5935 103.819 59.1553 99.486 59.1553Z" fill="black"/>
<path opacity="0.1" d="M128.842 59.1553H116.138C111.805 59.1553 108.299 62.5845 108.299 66.8217V104.696H111.328V101.814H133.643V104.696H136.672V66.8217C136.682 62.5935 133.175 59.1553 128.842 59.1553Z" fill="black"/>
<path d="M65.8726 64.0299C66.5266 64.0299 67.0567 63.5114 67.0567 62.8719C67.0567 62.2323 66.5266 61.7139 65.8726 61.7139C65.2186 61.7139 64.6885 62.2323 64.6885 62.8719C64.6885 63.5114 65.2186 64.0299 65.8726 64.0299Z" fill="url(#paint2_linear)"/>
<path d="M65.8726 63.8954C66.4506 63.8954 66.9191 63.4372 66.9191 62.872C66.9191 62.3068 66.4506 61.8486 65.8726 61.8486C65.2947 61.8486 64.8262 62.3068 64.8262 62.872C64.8262 63.4372 65.2947 63.8954 65.8726 63.8954Z" fill="#FDD835"/>
<path opacity="0.2" d="M65.0834 63.1681C65.0834 62.6026 65.5516 62.1447 66.1299 62.1447C66.4053 62.1447 66.6623 62.2524 66.8643 62.432C66.6164 61.9203 65.983 61.7048 65.469 61.9562C64.9457 62.1986 64.7255 62.818 64.9825 63.3207C65.0376 63.4284 65.1018 63.5272 65.1936 63.608C65.1202 63.4733 65.0834 63.3207 65.0834 63.1681Z" fill="white"/>
<path d="M69.2779 64.0299C69.9319 64.0299 70.4621 63.5114 70.4621 62.8719C70.4621 62.2323 69.9319 61.7139 69.2779 61.7139C68.6239 61.7139 68.0938 62.2323 68.0938 62.8719C68.0938 63.5114 68.6239 64.0299 69.2779 64.0299Z" fill="url(#paint3_linear)"/>
<path d="M69.2789 63.8954C69.8568 63.8954 70.3254 63.4372 70.3254 62.872C70.3254 62.3068 69.8568 61.8486 69.2789 61.8486C68.7009 61.8486 68.2324 62.3068 68.2324 62.872C68.2324 63.4372 68.7009 63.8954 69.2789 63.8954Z" fill="#FDD835"/>
<path opacity="0.2" d="M68.4985 63.1681C68.4985 62.6026 68.9666 62.1447 69.5449 62.1447C69.8203 62.1447 70.0773 62.2524 70.2793 62.432C70.0314 61.9203 69.3981 61.7048 68.8841 61.9562C68.3608 62.1986 68.1405 62.818 68.3975 63.3207C68.4526 63.4284 68.5168 63.5272 68.6086 63.608C68.526 63.4733 68.4985 63.3207 68.4985 63.1681Z" fill="white"/>
<path d="M59.5846 64.0299C60.2386 64.0299 60.7687 63.5114 60.7687 62.8719C60.7687 62.2323 60.2386 61.7139 59.5846 61.7139C58.9306 61.7139 58.4004 62.2323 58.4004 62.8719C58.4004 63.5114 58.9306 64.0299 59.5846 64.0299Z" fill="url(#paint4_linear)"/>
<path d="M59.5855 63.8954C60.1635 63.8954 60.6319 63.4372 60.6319 62.872C60.6319 62.3068 60.1635 61.8486 59.5855 61.8486C59.0076 61.8486 58.5391 62.3068 58.5391 62.872C58.5391 63.4372 59.0076 63.8954 59.5855 63.8954Z" fill="#FDD835"/>
<path opacity="0.2" d="M58.7963 63.1681C58.7963 62.6026 59.2645 62.1447 59.8428 62.1447C60.1182 62.1447 60.3752 62.2524 60.5771 62.432C60.3293 61.9203 59.696 61.7048 59.1819 61.9562C58.6587 62.1986 58.4383 62.818 58.6954 63.3207C58.7504 63.4284 58.8147 63.5182 58.9065 63.608C58.8331 63.4733 58.7963 63.3207 58.7963 63.1681Z" fill="white"/>
<path d="M64.0376 61.1217C64.6916 61.1217 65.2218 60.6033 65.2218 59.9637C65.2218 59.3242 64.6916 58.8057 64.0376 58.8057C63.3837 58.8057 62.8535 59.3242 62.8535 59.9637C62.8535 60.6033 63.3837 61.1217 64.0376 61.1217Z" fill="url(#paint5_linear)"/>
<path d="M64.0367 60.9867C64.6146 60.9867 65.0832 60.5285 65.0832 59.9633C65.0832 59.3981 64.6146 58.9399 64.0367 58.9399C63.4588 58.9399 62.9902 59.3981 62.9902 59.9633C62.9902 60.5285 63.4588 60.9867 64.0367 60.9867Z" fill="#FDD835"/>
<path opacity="0.2" d="M63.2564 60.2598C63.2564 59.6942 63.7246 59.2364 64.3029 59.2364C64.5782 59.2364 64.8353 59.3442 65.0373 59.5237C64.7894 59.012 64.1652 58.7875 63.642 59.0299C63.1187 59.2723 62.8893 59.8827 63.1371 60.3944C63.1922 60.5022 63.2656 60.6099 63.3574 60.6907C63.284 60.565 63.2564 60.4124 63.2564 60.2598Z" fill="white"/>
<path d="M70.9859 61.5881C71.6399 61.5881 72.17 61.0696 72.17 60.43C72.17 59.7904 71.6399 59.272 70.9859 59.272C70.3319 59.272 69.8018 59.7904 69.8018 60.43C69.8018 61.0696 70.3319 61.5881 70.9859 61.5881Z" fill="url(#paint6_linear)"/>
<path d="M70.9859 61.454C71.5639 61.454 72.0324 60.9958 72.0324 60.4306C72.0324 59.8654 71.5639 59.4072 70.9859 59.4072C70.408 59.4072 69.9395 59.8654 69.9395 60.4306C69.9395 60.9958 70.408 61.454 70.9859 61.454Z" fill="#FDD835"/>
<path opacity="0.2" d="M70.1959 60.7354C70.1959 60.1698 70.6641 59.712 71.2424 59.712C71.5177 59.712 71.7748 59.8197 71.9767 59.9992C71.7289 59.4875 71.1046 59.2631 70.5814 59.5055C70.0582 59.7479 69.8287 60.3583 70.0766 60.87C70.1316 60.9778 70.2051 61.0854 70.2969 61.1662C70.2326 61.0316 70.1959 60.888 70.1959 60.7354Z" fill="white"/>
<path d="M69.2779 60.5651C69.9319 60.5651 70.4621 60.0467 70.4621 59.4071C70.4621 58.7675 69.9319 58.249 69.2779 58.249C68.6239 58.249 68.0938 58.7675 68.0938 59.4071C68.0938 60.0467 68.6239 60.5651 69.2779 60.5651Z" fill="url(#paint7_linear)"/>
<path d="M69.2789 60.4305C69.8568 60.4305 70.3254 59.9724 70.3254 59.4072C70.3254 58.842 69.8568 58.3838 69.2789 58.3838C68.7009 58.3838 68.2324 58.842 68.2324 59.4072C68.2324 59.9724 68.7009 60.4305 69.2789 60.4305Z" fill="#FDD835"/>
<path opacity="0.2" d="M68.4976 59.7129C68.4976 59.1473 68.9658 58.6895 69.5441 58.6895C69.8195 58.6895 70.0765 58.7972 70.2785 58.9768C70.0306 58.4651 69.4064 58.2407 68.8832 58.483C68.36 58.7254 68.1305 59.3359 68.3783 59.8476C68.4334 59.9553 68.5069 60.063 68.5987 60.1438C68.5252 60.0092 68.4976 59.8565 68.4976 59.7129Z" fill="white"/>
<path d="M70.1148 63.007C70.7688 63.007 71.299 62.4885 71.299 61.8489C71.299 61.2094 70.7688 60.6909 70.1148 60.6909C69.4608 60.6909 68.9307 61.2094 68.9307 61.8489C68.9307 62.4885 69.4608 63.007 70.1148 63.007Z" fill="url(#paint8_linear)"/>
<path d="M70.1139 62.8725C70.6918 62.8725 71.1603 62.4143 71.1603 61.8491C71.1603 61.2839 70.6918 60.8257 70.1139 60.8257C69.5359 60.8257 69.0674 61.2839 69.0674 61.8491C69.0674 62.4143 69.5359 62.8725 70.1139 62.8725Z" fill="#FDD835"/>
<path opacity="0.2" d="M69.3248 62.1445C69.3248 61.579 69.793 61.1211 70.3713 61.1211C70.6467 61.1211 70.9037 61.2289 71.1056 61.4084C70.8578 60.8967 70.2336 60.6723 69.7103 60.9147C69.1871 61.1571 68.9576 61.7675 69.2055 62.2792C69.2605 62.3959 69.334 62.4946 69.4258 62.5754C69.3615 62.4408 69.3248 62.2971 69.3248 62.1445Z" fill="white"/>
<path d="M67.0572 61.1217C67.7112 61.1217 68.2414 60.6033 68.2414 59.9637C68.2414 59.3242 67.7112 58.8057 67.0572 58.8057C66.4032 58.8057 65.873 59.3242 65.873 59.9637C65.873 60.6033 66.4032 61.1217 67.0572 61.1217Z" fill="url(#paint9_linear)"/>
<path d="M67.0562 60.9867C67.6341 60.9867 68.1026 60.5285 68.1026 59.9633C68.1026 59.3981 67.6341 58.9399 67.0562 58.9399C66.4782 58.9399 66.0098 59.3981 66.0098 59.9633C66.0098 60.5285 66.4782 60.9867 67.0562 60.9867Z" fill="#FDD835"/>
<path opacity="0.2" d="M66.2672 60.2598C66.2672 59.6942 66.7353 59.2364 67.3136 59.2364C67.589 59.2364 67.846 59.3442 68.048 59.5237C67.8001 59.012 67.176 58.7875 66.6528 59.0299C66.1295 59.2723 65.9 59.8827 66.1478 60.3944C66.2029 60.5022 66.2763 60.6099 66.3681 60.6907C66.3039 60.565 66.2672 60.4124 66.2672 60.2598Z" fill="white"/>
<path d="M66.9185 57.8717C67.5725 57.8717 68.1026 57.3533 68.1026 56.7137C68.1026 56.0742 67.5725 55.5557 66.9185 55.5557C66.2645 55.5557 65.7344 56.0742 65.7344 56.7137C65.7344 57.3533 66.2645 57.8717 66.9185 57.8717Z" fill="url(#paint10_linear)"/>
<path d="M66.9195 57.7376C67.4975 57.7376 67.966 57.2795 67.966 56.7143C67.966 56.1491 67.4975 55.6909 66.9195 55.6909C66.3416 55.6909 65.873 56.1491 65.873 56.7143C65.873 57.2795 66.3416 57.7376 66.9195 57.7376Z" fill="#FDD835"/>
<path opacity="0.2" d="M66.1392 57.019C66.1392 56.4535 66.6074 55.9957 67.1857 55.9957C67.4611 55.9957 67.7181 56.1034 67.92 56.2829C67.6722 55.7712 67.048 55.5468 66.5248 55.7892C66.0016 56.0316 65.7721 56.642 66.0199 57.1537C66.075 57.2614 66.1484 57.3692 66.2402 57.45C66.1668 57.3153 66.1392 57.1627 66.1392 57.019Z" fill="white"/>
<path d="M72.7388 59.5416C73.3928 59.5416 73.923 59.0232 73.923 58.3836C73.923 57.744 73.3928 57.2256 72.7388 57.2256C72.0848 57.2256 71.5547 57.744 71.5547 58.3836C71.5547 59.0232 72.0848 59.5416 72.7388 59.5416Z" fill="url(#paint11_linear)"/>
<path d="M72.7388 59.4071C73.3167 59.4071 73.7853 58.9489 73.7853 58.3837C73.7853 57.8185 73.3167 57.3604 72.7388 57.3604C72.1609 57.3604 71.6924 57.8185 71.6924 58.3837C71.6924 58.9489 72.1609 59.4071 72.7388 59.4071Z" fill="#FDD835"/>
<path opacity="0.2" d="M71.9498 58.6797C71.9498 58.1141 72.418 57.6563 72.9963 57.6563C73.2717 57.6563 73.5287 57.764 73.7306 57.9436C73.4828 57.4319 72.8586 57.2075 72.3353 57.4498C71.8121 57.6922 71.5826 58.3026 71.8305 58.8143C71.8855 58.922 71.959 59.0298 72.0508 59.1106C71.9865 58.9849 71.9498 58.8323 71.9498 58.6797Z" fill="white"/>
<path d="M72.1695 61.7233C72.8235 61.7233 73.3537 61.2048 73.3537 60.5652C73.3537 59.9257 72.8235 59.4072 72.1695 59.4072C71.5155 59.4072 70.9854 59.9257 70.9854 60.5652C70.9854 61.2048 71.5155 61.7233 72.1695 61.7233Z" fill="url(#paint12_linear)"/>
<path d="M72.1695 61.5883C72.7474 61.5883 73.2159 61.1301 73.2159 60.5649C73.2159 59.9997 72.7474 59.5415 72.1695 59.5415C71.5915 59.5415 71.123 59.9997 71.123 60.5649C71.123 61.1301 71.5915 61.5883 72.1695 61.5883Z" fill="#FDD835"/>
<path opacity="0.2" d="M71.3805 60.8613C71.3805 60.2958 71.8486 59.8379 72.4269 59.8379C72.7023 59.8379 72.9593 59.9457 73.1613 60.1252C72.9134 59.6135 72.2892 59.3891 71.766 59.6315C71.2428 59.8739 71.0133 60.4843 71.2611 60.996C71.3162 61.1037 71.3896 61.2114 71.4814 61.2922C71.4172 61.1665 71.3805 61.0139 71.3805 60.8613Z" fill="white"/>
<path d="M74.7867 61.2922C75.4407 61.2922 75.9708 60.7737 75.9708 60.1341C75.9708 59.4946 75.4407 58.9761 74.7867 58.9761C74.1327 58.9761 73.6025 59.4946 73.6025 60.1341C73.6025 60.7737 74.1327 61.2922 74.7867 61.2922Z" fill="url(#paint13_linear)"/>
<path d="M74.7867 61.1571C75.3646 61.1571 75.8332 60.6989 75.8332 60.1337C75.8332 59.5685 75.3646 59.1104 74.7867 59.1104C74.2088 59.1104 73.7402 59.5685 73.7402 60.1337C73.7402 60.6989 74.2088 61.1571 74.7867 61.1571Z" fill="#FDD835"/>
<path opacity="0.2" d="M74.0055 60.4307C74.0055 59.8651 74.4736 59.4073 75.0519 59.4073C75.3273 59.4073 75.5843 59.5151 75.7863 59.6946C75.5384 59.1829 74.9143 58.9584 74.391 59.2008C73.8678 59.4432 73.6383 60.0536 73.8861 60.5653C73.9412 60.682 74.0147 60.7808 74.1065 60.8706C74.033 60.7359 74.0055 60.5833 74.0055 60.4307Z" fill="white"/>
<path d="M73.6119 62.3605C74.2658 62.3605 74.796 61.8421 74.796 61.2025C74.796 60.5629 74.2658 60.0444 73.6119 60.0444C72.9579 60.0444 72.4277 60.5629 72.4277 61.2025C72.4277 61.8421 72.9579 62.3605 73.6119 62.3605Z" fill="url(#paint14_linear)"/>
<path d="M73.6099 62.2259C74.1879 62.2259 74.6564 61.7678 74.6564 61.2026C74.6564 60.6374 74.1879 60.1792 73.6099 60.1792C73.032 60.1792 72.5635 60.6374 72.5635 61.2026C72.5635 61.7678 73.032 62.2259 73.6099 62.2259Z" fill="#FDD835"/>
<path opacity="0.2" d="M72.8219 61.5078C72.8219 60.9423 73.29 60.4844 73.8683 60.4844C74.1437 60.4844 74.4007 60.5922 74.6027 60.7717C74.3548 60.26 73.7306 60.0356 73.2074 60.278C72.6842 60.5203 72.4547 61.1308 72.7025 61.6425C72.7576 61.7502 72.831 61.858 72.9228 61.9388C72.8586 61.8041 72.8219 61.6514 72.8219 61.5078Z" fill="white"/>
<path d="M65.7447 59.5416C66.3987 59.5416 66.9289 59.0232 66.9289 58.3836C66.9289 57.744 66.3987 57.2256 65.7447 57.2256C65.0907 57.2256 64.5605 57.744 64.5605 58.3836C64.5605 59.0232 65.0907 59.5416 65.7447 59.5416Z" fill="url(#paint15_linear)"/>
<path d="M65.7447 59.4071C66.3226 59.4071 66.7911 58.9489 66.7911 58.3837C66.7911 57.8185 66.3226 57.3604 65.7447 57.3604C65.1667 57.3604 64.6982 57.8185 64.6982 58.3837C64.6982 58.9489 65.1667 59.4071 65.7447 59.4071Z" fill="#FDD835"/>
<path opacity="0.2" d="M64.9537 58.6797C64.9537 58.1141 65.4219 57.6563 66.0002 57.6563C66.2756 57.6563 66.5326 57.764 66.7345 57.9436C66.4867 57.4319 65.8625 57.2075 65.3392 57.4498C64.816 57.6922 64.5865 58.3026 64.8344 58.8143C64.8895 58.922 64.9629 59.0298 65.0547 59.1106C64.9904 58.9849 64.9537 58.8323 64.9537 58.6797Z" fill="white"/>
<path d="M64.0376 63.8952C64.6916 63.8952 65.2218 63.3767 65.2218 62.7371C65.2218 62.0976 64.6916 61.5791 64.0376 61.5791C63.3837 61.5791 62.8535 62.0976 62.8535 62.7371C62.8535 63.3767 63.3837 63.8952 64.0376 63.8952Z" fill="url(#paint16_linear)"/>
<path d="M64.0367 63.7606C64.6146 63.7606 65.0832 63.3024 65.0832 62.7372C65.0832 62.172 64.6146 61.7139 64.0367 61.7139C63.4588 61.7139 62.9902 62.172 62.9902 62.7372C62.9902 63.3024 63.4588 63.7606 64.0367 63.7606Z" fill="#FBC02D"/>
<path opacity="0.2" d="M63.2564 63.0425C63.2564 62.4769 63.7246 62.0191 64.3029 62.0191C64.5782 62.0191 64.8353 62.1268 65.0373 62.3064C64.7894 61.7947 64.1652 61.5703 63.642 61.8126C63.1187 62.055 62.8893 62.6654 63.1371 63.1771C63.1922 63.2848 63.2656 63.3926 63.3574 63.4734C63.284 63.3387 63.2564 63.1951 63.2564 63.0425Z" fill="white"/>
<path d="M61.3746 64.0299C62.0286 64.0299 62.5587 63.5114 62.5587 62.8719C62.5587 62.2323 62.0286 61.7139 61.3746 61.7139C60.7206 61.7139 60.1904 62.2323 60.1904 62.8719C60.1904 63.5114 60.7206 64.0299 61.3746 64.0299Z" fill="url(#paint17_linear)"/>
<path d="M61.3756 63.8954C61.9535 63.8954 62.422 63.4372 62.422 62.872C62.422 62.3068 61.9535 61.8486 61.3756 61.8486C60.7976 61.8486 60.3291 62.3068 60.3291 62.872C60.3291 63.4372 60.7976 63.8954 61.3756 63.8954Z" fill="#FBC02D"/>
<path opacity="0.2" d="M60.5854 63.1681C60.5854 62.6026 61.0536 62.1447 61.6319 62.1447C61.9072 62.1447 62.1643 62.2524 62.3662 62.432C62.1184 61.9203 61.485 61.7048 60.971 61.9562C60.4477 62.1986 60.2274 62.818 60.4844 63.3207C60.5395 63.4284 60.6037 63.5272 60.6955 63.608C60.6221 63.4733 60.5854 63.3207 60.5854 63.1681Z" fill="white"/>
<path d="M62.7232 63.3028C63.3772 63.3028 63.9073 62.7844 63.9073 62.1448C63.9073 61.5053 63.3772 60.9868 62.7232 60.9868C62.0692 60.9868 61.5391 61.5053 61.5391 62.1448C61.5391 62.7844 62.0692 63.3028 62.7232 63.3028Z" fill="url(#paint18_linear)"/>
<path d="M62.7242 63.1684C63.3021 63.1684 63.7707 62.7102 63.7707 62.145C63.7707 61.5798 63.3021 61.1216 62.7242 61.1216C62.1463 61.1216 61.6777 61.5798 61.6777 62.145C61.6777 62.7102 62.1463 63.1684 62.7242 63.1684Z" fill="#FBC02D"/>
<path opacity="0.2" d="M61.9439 62.4414C61.9439 61.8759 62.4121 61.418 62.9904 61.418C63.2657 61.418 63.5228 61.5257 63.7248 61.7053C63.4769 61.1936 62.8527 60.9692 62.3295 61.2116C61.8062 61.4539 61.5768 62.0643 61.8246 62.576C61.8797 62.6838 61.9531 62.7915 62.0449 62.8723C61.9806 62.7466 61.9439 62.594 61.9439 62.4414Z" fill="white"/>
<path d="M68.4986 62.0197C69.1526 62.0197 69.6828 61.5012 69.6828 60.8617C69.6828 60.2221 69.1526 59.7036 68.4986 59.7036C67.8446 59.7036 67.3145 60.2221 67.3145 60.8617C67.3145 61.5012 67.8446 62.0197 68.4986 62.0197Z" fill="url(#paint19_linear)"/>
<path d="M68.4976 61.8847C69.0755 61.8847 69.5441 61.4265 69.5441 60.8613C69.5441 60.2961 69.0755 59.8379 68.4976 59.8379C67.9196 59.8379 67.4512 60.2961 67.4512 60.8613C67.4512 61.4265 67.9196 61.8847 68.4976 61.8847Z" fill="#FBC02D"/>
<path opacity="0.2" d="M67.7076 61.1577C67.7076 60.5922 68.1758 60.1344 68.7541 60.1344C69.0295 60.1344 69.2865 60.2421 69.4884 60.4216C69.2406 59.91 68.6164 59.6855 68.0931 59.9279C67.5699 60.1702 67.3404 60.7807 67.5883 61.2924C67.6434 61.4001 67.7168 61.5078 67.8086 61.5886C67.7443 61.463 67.7076 61.3103 67.7076 61.1577Z" fill="white"/>
<path d="M68.4986 59.2814C69.1526 59.2814 69.6828 58.763 69.6828 58.1234C69.6828 57.4838 69.1526 56.9653 68.4986 56.9653C67.8446 56.9653 67.3145 57.4838 67.3145 58.1234C67.3145 58.763 67.8446 59.2814 68.4986 59.2814Z" fill="url(#paint20_linear)"/>
<path d="M68.4976 59.1468C69.0755 59.1468 69.5441 58.6887 69.5441 58.1235C69.5441 57.5583 69.0755 57.1001 68.4976 57.1001C67.9196 57.1001 67.4512 57.5583 67.4512 58.1235C67.4512 58.6887 67.9196 59.1468 68.4976 59.1468Z" fill="#FBC02D"/>
<path opacity="0.2" d="M67.7076 58.4282C67.7076 57.8627 68.1758 57.4048 68.7541 57.4048C69.0295 57.4048 69.2865 57.5126 69.4884 57.6921C69.2406 57.1804 68.6164 56.956 68.0931 57.1984C67.5699 57.4408 67.3404 58.0512 67.5883 58.5629C67.6434 58.6706 67.7168 58.7783 67.8086 58.8591C67.7443 58.7245 67.7076 58.5808 67.7076 58.4282Z" fill="white"/>
<path d="M69.8111 61.4626C70.4651 61.4626 70.9953 60.9441 70.9953 60.3046C70.9953 59.665 70.4651 59.1465 69.8111 59.1465C69.1571 59.1465 68.627 59.665 68.627 60.3046C68.627 60.9441 69.1571 61.4626 69.8111 61.4626Z" fill="url(#paint21_linear)"/>
<path d="M69.8101 61.328C70.388 61.328 70.8566 60.8698 70.8566 60.3046C70.8566 59.7394 70.388 59.2812 69.8101 59.2812C69.2321 59.2812 68.7637 59.7394 68.7637 60.3046C68.7637 60.8698 69.2321 61.328 69.8101 61.328Z" fill="#FBC02D"/>
<path opacity="0.2" d="M69.0211 60.6006C69.0211 60.035 69.4892 59.5772 70.0676 59.5772C70.3429 59.5772 70.5999 59.685 70.8019 59.8645C70.5541 59.3528 69.9299 59.1284 69.4067 59.3707C68.8834 59.6131 68.6539 60.2236 68.9017 60.7353C68.9568 60.843 69.0302 60.9507 69.122 61.0315C69.0578 60.9058 69.0211 60.7532 69.0211 60.6006Z" fill="white"/>
<path d="M68.6265 57.1091C69.2805 57.1091 69.8106 56.5905 69.8106 55.951C69.8106 55.3114 69.2805 54.793 68.6265 54.793C67.9725 54.793 67.4424 55.3114 67.4424 55.951C67.4424 56.5905 67.9725 57.1091 68.6265 57.1091Z" fill="url(#paint22_linear)"/>
<path d="M68.6265 56.9745C69.2045 56.9745 69.673 56.5163 69.673 55.9511C69.673 55.3859 69.2045 54.9277 68.6265 54.9277C68.0486 54.9277 67.5801 55.3859 67.5801 55.9511C67.5801 56.5163 68.0486 56.9745 68.6265 56.9745Z" fill="#FBC02D"/>
<path opacity="0.2" d="M67.8365 56.2471C67.8365 55.6815 68.3047 55.2237 68.883 55.2237C69.1584 55.2237 69.4154 55.3314 69.6173 55.511C69.3695 54.9993 68.7453 54.7748 68.222 55.0172C67.6988 55.2596 67.4693 55.8701 67.7172 56.3818C67.7723 56.4895 67.8457 56.5972 67.9375 56.678C67.8732 56.5433 67.8365 56.3997 67.8365 56.2471Z" fill="white"/>
<path d="M68.8921 58.2585C69.5461 58.2585 70.0763 57.74 70.0763 57.1005C70.0763 56.4609 69.5461 55.9424 68.8921 55.9424C68.2381 55.9424 67.708 56.4609 67.708 57.1005C67.708 57.74 68.2381 58.2585 68.8921 58.2585Z" fill="url(#paint23_linear)"/>
<path d="M68.8931 58.1234C69.471 58.1234 69.9396 57.6653 69.9396 57.1001C69.9396 56.5349 69.471 56.0767 68.8931 56.0767C68.3152 56.0767 67.8467 56.5349 67.8467 57.1001C67.8467 57.6653 68.3152 58.1234 68.8931 58.1234Z" fill="#FBC02D"/>
<path opacity="0.2" d="M68.1041 57.4048C68.1041 56.8392 68.5723 56.3815 69.1506 56.3815C69.4259 56.3815 69.683 56.4891 69.8849 56.6687C69.6371 56.157 69.0129 55.9326 68.4897 56.1749C67.9664 56.4173 67.7369 57.0278 67.9848 57.5395C68.0398 57.6472 68.1133 57.7549 68.2051 57.8357C68.1408 57.7011 68.1041 57.5484 68.1041 57.4048Z" fill="white"/>
<path d="M70.2886 59.0294C70.9426 59.0294 71.4728 58.511 71.4728 57.8714C71.4728 57.2318 70.9426 56.7134 70.2886 56.7134C69.6346 56.7134 69.1045 57.2318 69.1045 57.8714C69.1045 58.511 69.6346 59.0294 70.2886 59.0294Z" fill="url(#paint24_linear)"/>
<path d="M70.2877 58.8954C70.8656 58.8954 71.3341 58.4372 71.3341 57.872C71.3341 57.3068 70.8656 56.8486 70.2877 56.8486C69.7097 56.8486 69.2412 57.3068 69.2412 57.872C69.2412 58.4372 69.7097 58.8954 70.2877 58.8954Z" fill="#FBC02D"/>
<path opacity="0.2" d="M69.5064 58.168C69.5064 57.6024 69.9746 57.1446 70.562 57.1446C70.8282 57.1446 71.0945 57.2523 71.2873 57.4319C71.0394 56.9202 70.4152 56.6957 69.892 56.9381C69.3687 57.1805 69.1393 57.7909 69.3871 58.3026C69.4422 58.4103 69.5156 58.5181 69.6074 58.5989C69.534 58.4732 69.5064 58.3206 69.5064 58.168Z" fill="white"/>
<path d="M71.729 58.8141C72.383 58.8141 72.9132 58.2956 72.9132 57.6561C72.9132 57.0165 72.383 56.498 71.729 56.498C71.0751 56.498 70.5449 57.0165 70.5449 57.6561C70.5449 58.2956 71.0751 58.8141 71.729 58.8141Z" fill="url(#paint25_linear)"/>
<path d="M71.7301 58.6801C72.308 58.6801 72.7765 58.2219 72.7765 57.6567C72.7765 57.0915 72.308 56.6333 71.7301 56.6333C71.1521 56.6333 70.6836 57.0915 70.6836 57.6567C70.6836 58.2219 71.1521 58.6801 71.7301 58.6801Z" fill="#FBC02D"/>
<path opacity="0.2" d="M70.9391 57.9526C70.9391 57.3871 71.4072 56.9292 71.9855 56.9292C72.2609 56.9292 72.5179 57.037 72.7199 57.2165C72.472 56.7048 71.8478 56.4804 71.3246 56.7228C70.8014 56.9652 70.5719 57.5756 70.8197 58.0873C70.8748 58.195 70.9482 58.3027 71.04 58.3835C70.9758 58.2578 70.9391 58.1052 70.9391 57.9526Z" fill="white"/>
<path d="M71.3345 59.9723C71.9885 59.9723 72.5186 59.4538 72.5186 58.8143C72.5186 58.1747 71.9885 57.6562 71.3345 57.6562C70.6805 57.6562 70.1504 58.1747 70.1504 58.8143C70.1504 59.4538 70.6805 59.9723 71.3345 59.9723Z" fill="url(#paint26_linear)"/>
<path d="M71.3346 59.8373C71.9125 59.8373 72.381 59.3791 72.381 58.8139C72.381 58.2487 71.9125 57.7905 71.3346 57.7905C70.7566 57.7905 70.2881 58.2487 70.2881 58.8139C70.2881 59.3791 70.7566 59.8373 71.3346 59.8373Z" fill="#FBC02D"/>
<path opacity="0.2" d="M70.5543 59.1108C70.5543 58.5453 71.0224 58.0875 71.6007 58.0875C71.8761 58.0875 72.1331 58.1952 72.3351 58.3747C72.0872 57.863 71.463 57.6386 70.9398 57.881C70.4166 58.1234 70.1871 58.7338 70.435 59.2455C70.49 59.3532 70.5635 59.4609 70.6553 59.5417C70.5818 59.416 70.5543 59.2635 70.5543 59.1108Z" fill="white"/>
<path d="M66.3951 58.4733C67.049 58.4733 67.5792 57.9548 67.5792 57.3152C67.5792 56.6757 67.049 56.1572 66.3951 56.1572C65.7411 56.1572 65.2109 56.6757 65.2109 57.3152C65.2109 57.9548 65.7411 58.4733 66.3951 58.4733Z" fill="url(#paint27_linear)"/>
<path d="M66.3961 58.3393C66.974 58.3393 67.4425 57.8811 67.4425 57.3159C67.4425 56.7507 66.974 56.2925 66.3961 56.2925C65.8181 56.2925 65.3496 56.7507 65.3496 57.3159C65.3496 57.8811 65.8181 58.3393 66.3961 58.3393Z" fill="#FBC02D"/>
<path opacity="0.2" d="M65.6158 57.6118C65.6158 57.0463 66.0839 56.5884 66.6622 56.5884C66.9376 56.5884 67.1947 56.6962 67.3966 56.8757C67.1488 56.364 66.5246 56.1396 66.0013 56.382C65.4781 56.6244 65.2486 57.2348 65.4965 57.7464C65.5516 57.8542 65.625 57.9619 65.7168 58.0427C65.6433 57.917 65.6158 57.7644 65.6158 57.6118Z" fill="white"/>
<path d="M62.9908 61.9748C63.6448 61.9748 64.1749 61.4563 64.1749 60.8168C64.1749 60.1772 63.6448 59.6587 62.9908 59.6587C62.3368 59.6587 61.8066 60.1772 61.8066 60.8168C61.8066 61.4563 62.3368 61.9748 62.9908 61.9748Z" fill="url(#paint28_linear)"/>
<path d="M62.9898 61.8397C63.5677 61.8397 64.0362 61.3816 64.0362 60.8164C64.0362 60.2512 63.5677 59.793 62.9898 59.793C62.4118 59.793 61.9434 60.2512 61.9434 60.8164C61.9434 61.3816 62.4118 61.8397 62.9898 61.8397Z" fill="#FBC02D"/>
<path opacity="0.2" d="M62.2008 61.1216C62.2008 60.556 62.6689 60.0982 63.2472 60.0982C63.5226 60.0982 63.7796 60.2059 63.9816 60.3855C63.7337 59.8738 63.1095 59.6494 62.5863 59.8917C62.0631 60.1341 61.8336 60.7446 62.0814 61.2563C62.1365 61.373 62.2099 61.4717 62.3017 61.5615C62.2375 61.4178 62.2008 61.2652 62.2008 61.1216Z" fill="white"/>
<path d="M65.0465 60.0529C65.7005 60.0529 66.2306 59.5345 66.2306 58.8949C66.2306 58.2553 65.7005 57.7368 65.0465 57.7368C64.3925 57.7368 63.8623 58.2553 63.8623 58.8949C63.8623 59.5345 64.3925 60.0529 65.0465 60.0529Z" fill="url(#paint29_linear)"/>
<path d="M65.0455 59.9184C65.6234 59.9184 66.0919 59.4602 66.0919 58.895C66.0919 58.3298 65.6234 57.8716 65.0455 57.8716C64.4676 57.8716 63.999 58.3298 63.999 58.895C63.999 59.4602 64.4676 59.9184 65.0455 59.9184Z" fill="#FBC02D"/>
<path opacity="0.2" d="M64.2564 59.1915C64.2564 58.6259 64.7246 58.1681 65.3029 58.1681C65.5783 58.1681 65.8353 58.2758 66.0372 58.4553C65.7894 57.9436 65.1744 57.7192 64.642 57.9616C64.1188 58.2039 63.8893 58.8054 64.1371 59.3261C64.1922 59.4428 64.2656 59.5505 64.3666 59.6313C64.2931 59.4967 64.2564 59.3441 64.2564 59.1915Z" fill="white"/>
<path d="M60.8512 63.3483C61.5052 63.3483 62.0353 62.8298 62.0353 62.1902C62.0353 61.5507 61.5052 61.0322 60.8512 61.0322C60.1972 61.0322 59.667 61.5507 59.667 62.1902C59.667 62.8298 60.1972 63.3483 60.8512 63.3483Z" fill="url(#paint30_linear)"/>
<path d="M60.8512 63.2138C61.4291 63.2138 61.8976 62.7556 61.8976 62.1904C61.8976 61.6252 61.4291 61.167 60.8512 61.167C60.2732 61.167 59.8047 61.6252 59.8047 62.1904C59.8047 62.7556 60.2732 63.2138 60.8512 63.2138Z" fill="#FBC02D"/>
<path opacity="0.2" d="M60.0624 62.4859C60.0624 61.9203 60.5306 61.4625 61.1089 61.4625C61.3843 61.4625 61.6413 61.5702 61.8433 61.7497C61.5954 61.238 60.9712 61.0226 60.448 61.265C59.9248 61.5074 59.7044 62.1178 59.9523 62.6295C60.0074 62.7372 60.0808 62.8359 60.1635 62.9167C60.0992 62.7821 60.0624 62.6385 60.0624 62.4859Z" fill="white"/>
<path d="M72.1695 62.4503C72.8235 62.4503 73.3537 61.9319 73.3537 61.2923C73.3537 60.6527 72.8235 60.1343 72.1695 60.1343C71.5155 60.1343 70.9854 60.6527 70.9854 61.2923C70.9854 61.9319 71.5155 62.4503 72.1695 62.4503Z" fill="url(#paint31_linear)"/>
<path d="M72.1695 62.3158C72.7474 62.3158 73.2159 61.8576 73.2159 61.2924C73.2159 60.7272 72.7474 60.269 72.1695 60.269C71.5915 60.269 71.123 60.7272 71.123 61.2924C71.123 61.8576 71.5915 62.3158 72.1695 62.3158Z" fill="#FBC02D"/>
<path opacity="0.2" d="M71.3805 61.5894C71.3805 61.0238 71.8486 60.566 72.4269 60.566C72.7023 60.566 72.9593 60.6737 73.1613 60.8532C72.9134 60.3415 72.2892 60.1171 71.766 60.3595C71.2428 60.6019 71.0133 61.2123 71.2611 61.724C71.3162 61.8317 71.3896 61.9394 71.4814 62.0202C71.4172 61.8856 71.3805 61.742 71.3805 61.5894Z" fill="white"/>
<path d="M66.8814 55.9508C67.5354 55.9508 68.0656 55.4323 68.0656 54.7928C68.0656 54.1532 67.5354 53.6348 66.8814 53.6348C66.2275 53.6348 65.6973 54.1532 65.6973 54.7928C65.6973 55.4323 66.2275 55.9508 66.8814 55.9508Z" fill="url(#paint32_linear)"/>
<path d="M66.8824 55.8158C67.4603 55.8158 67.9288 55.3576 67.9288 54.7924C67.9288 54.2272 67.4603 53.769 66.8824 53.769C66.3045 53.769 65.8359 54.2272 65.8359 54.7924C65.8359 55.3576 66.3045 55.8158 66.8824 55.8158Z" fill="#FBC02D"/>
<path opacity="0.2" d="M66.0927 55.0889C66.0927 54.5234 66.5609 54.0655 67.1392 54.0655C67.4146 54.0655 67.6716 54.1733 67.8735 54.3528C67.6257 53.8411 67.0015 53.6256 66.4783 53.868C65.9551 54.1104 65.7347 54.7209 65.9826 55.2325C66.0376 55.3403 66.1111 55.439 66.1937 55.5288C66.1295 55.3941 66.0927 55.2415 66.0927 55.0889Z" fill="white"/>
<path d="M64.7339 58.5988C65.3879 58.5988 65.9181 58.0804 65.9181 57.4408C65.9181 56.8012 65.3879 56.2827 64.7339 56.2827C64.0799 56.2827 63.5498 56.8012 63.5498 57.4408C63.5498 58.0804 64.0799 58.5988 64.7339 58.5988Z" fill="url(#paint33_linear)"/>
<path d="M64.7349 58.4637C65.3129 58.4637 65.7814 58.0056 65.7814 57.4404C65.7814 56.8752 65.3129 56.417 64.7349 56.417C64.157 56.417 63.6885 56.8752 63.6885 57.4404C63.6885 58.0056 64.157 58.4637 64.7349 58.4637Z" fill="#FBC02D"/>
<path opacity="0.2" d="M63.9556 57.7369C63.9556 57.1714 64.4237 56.7136 65.002 56.7136C65.2774 56.7136 65.5344 56.8213 65.7364 57.0008C65.4885 56.4891 64.8551 56.2737 64.3411 56.525C63.8179 56.7674 63.5975 57.3868 63.8545 57.8896C63.9096 57.9973 63.9739 58.087 64.0565 58.1678C63.9831 58.0422 63.9556 57.8895 63.9556 57.7369Z" fill="white"/>
<path d="M63.0367 60.5651C63.6907 60.5651 64.2208 60.0467 64.2208 59.4071C64.2208 58.7675 63.6907 58.249 63.0367 58.249C62.3827 58.249 61.8525 58.7675 61.8525 59.4071C61.8525 60.0467 62.3827 60.5651 63.0367 60.5651Z" fill="url(#paint34_linear)"/>
<path d="M63.0347 60.4305C63.6127 60.4305 64.0812 59.9724 64.0812 59.4072C64.0812 58.842 63.6127 58.3838 63.0347 58.3838C62.4568 58.3838 61.9883 58.842 61.9883 59.4072C61.9883 59.9724 62.4568 60.4305 63.0347 60.4305Z" fill="#FBC02D"/>
<path opacity="0.2" d="M62.2467 59.7129C62.2467 59.1473 62.7148 58.6895 63.2931 58.6895C63.5685 58.6895 63.8255 58.7972 64.0275 58.9768C63.7796 58.4651 63.1555 58.2407 62.6322 58.483C62.109 58.7254 61.8795 59.3359 62.1273 59.8476C62.1824 59.9553 62.2559 60.063 62.3477 60.1438C62.2834 60.0092 62.2467 59.8565 62.2467 59.7129Z" fill="white"/>
<path d="M64.2564 62.7467C64.9104 62.7467 65.4406 62.2283 65.4406 61.5887C65.4406 60.9492 64.9104 60.4307 64.2564 60.4307C63.6024 60.4307 63.0723 60.9492 63.0723 61.5887C63.0723 62.2283 63.6024 62.7467 64.2564 62.7467Z" fill="url(#paint35_linear)"/>
<path d="M64.2573 62.6117C64.8353 62.6117 65.3038 62.1535 65.3038 61.5883C65.3038 61.0231 64.8353 60.5649 64.2573 60.5649C63.6794 60.5649 63.2109 61.0231 63.2109 61.5883C63.2109 62.1535 63.6794 62.6117 64.2573 62.6117Z" fill="#FBC02D"/>
<path opacity="0.2" d="M63.4664 61.8848C63.4664 61.3193 63.9346 60.8614 64.5129 60.8614C64.7883 60.8614 65.0453 60.9692 65.2472 61.1487C64.9994 60.637 64.3752 60.4125 63.8519 60.6549C63.3287 60.8973 63.0992 61.5077 63.3471 62.0194C63.4021 62.1272 63.4756 62.2349 63.5674 62.3157C63.5031 62.19 63.4664 62.0374 63.4664 61.8848Z" fill="white"/>
<path d="M65.9185 61.2922C66.5725 61.2922 67.1027 60.7737 67.1027 60.1341C67.1027 59.4946 66.5725 58.9761 65.9185 58.9761C65.2645 58.9761 64.7344 59.4946 64.7344 60.1341C64.7344 60.7737 65.2645 61.2922 65.9185 61.2922Z" fill="url(#paint36_linear)"/>
<path d="M65.9195 61.1571C66.4974 61.1571 66.9659 60.6989 66.9659 60.1337C66.9659 59.5685 66.4974 59.1104 65.9195 59.1104C65.3415 59.1104 64.873 59.5685 64.873 60.1337C64.873 60.6989 65.3415 61.1571 65.9195 61.1571Z" fill="#FBC02D"/>
<path opacity="0.2" d="M65.1295 60.4307C65.1295 59.8651 65.5977 59.4073 66.176 59.4073C66.4513 59.4073 66.7084 59.5151 66.9103 59.6946C66.6625 59.1829 66.0382 58.9584 65.515 59.2008C64.9918 59.4432 64.7623 60.0536 65.0102 60.5653C65.0652 60.6731 65.1387 60.7808 65.2305 60.8616C65.1662 60.7359 65.1295 60.5833 65.1295 60.4307Z" fill="white"/>
<path d="M66.7906 62.7467C67.4446 62.7467 67.9747 62.2283 67.9747 61.5887C67.9747 60.9492 67.4446 60.4307 66.7906 60.4307C66.1366 60.4307 65.6064 60.9492 65.6064 61.5887C65.6064 62.2283 66.1366 62.7467 66.7906 62.7467Z" fill="url(#paint37_linear)"/>
<path d="M66.7906 62.6117C67.3686 62.6117 67.8371 62.1535 67.8371 61.5883C67.8371 61.0231 67.3686 60.5649 66.7906 60.5649C66.2127 60.5649 65.7441 61.0231 65.7441 61.5883C65.7441 62.1535 66.2127 62.6117 66.7906 62.6117Z" fill="#FBC02D"/>
<path opacity="0.2" d="M66.0006 61.8848C66.0006 61.3193 66.4688 60.8614 67.0471 60.8614C67.3224 60.8614 67.5794 60.9692 67.7814 61.1487C67.5336 60.637 66.9093 60.4125 66.3861 60.6549C65.8629 60.8973 65.6334 61.5077 65.8812 62.0194C65.9363 62.1272 66.0098 62.2349 66.1015 62.3157C66.0373 62.19 66.0006 62.0374 66.0006 61.8848Z" fill="white"/>
<path d="M75.8423 64.0299C76.4963 64.0299 77.0265 63.5114 77.0265 62.8719C77.0265 62.2323 76.4963 61.7139 75.8423 61.7139C75.1883 61.7139 74.6582 62.2323 74.6582 62.8719C74.6582 63.5114 75.1883 64.0299 75.8423 64.0299Z" fill="url(#paint38_linear)"/>
<path d="M75.8423 63.8954C76.4203 63.8954 76.8888 63.4372 76.8888 62.872C76.8888 62.3068 76.4203 61.8486 75.8423 61.8486C75.2644 61.8486 74.7959 62.3068 74.7959 62.872C74.7959 63.4372 75.2644 63.8954 75.8423 63.8954Z" fill="#FBC02D"/>
<path opacity="0.2" d="M75.0522 63.1681C75.0522 62.6026 75.5204 62.1447 76.0987 62.1447C76.374 62.1447 76.6311 62.2524 76.833 62.432C76.5852 61.9203 75.9518 61.7048 75.4377 61.9562C74.9145 62.1986 74.6942 62.818 74.9512 63.3207C75.0063 63.4284 75.0706 63.5182 75.1623 63.608C75.0797 63.4733 75.0522 63.3207 75.0522 63.1681Z" fill="white"/>
<path d="M74.1802 63.7697C74.8342 63.7697 75.3644 63.2512 75.3644 62.6117C75.3644 61.9721 74.8342 61.4536 74.1802 61.4536C73.5262 61.4536 72.9961 61.9721 72.9961 62.6117C72.9961 63.2512 73.5262 63.7697 74.1802 63.7697Z" fill="url(#paint39_linear)"/>
<path d="M74.1802 63.6356C74.7581 63.6356 75.2267 63.1775 75.2267 62.6123C75.2267 62.0471 74.7581 61.5889 74.1802 61.5889C73.6023 61.5889 73.1338 62.0471 73.1338 62.6123C73.1338 63.1775 73.6023 63.6356 74.1802 63.6356Z" fill="#FBC02D"/>
<path opacity="0.2" d="M73.3912 62.917C73.3912 62.3514 73.8594 61.8936 74.4377 61.8936C74.7131 61.8936 74.9701 62.0013 75.172 62.1809C74.9242 61.6692 74.3 61.4448 73.7767 61.6871C73.2535 61.9295 73.024 62.54 73.2719 63.0517C73.327 63.1594 73.4004 63.2671 73.4922 63.3479C73.4279 63.2132 73.3912 63.0606 73.3912 62.917Z" fill="white"/>
<path d="M70.9859 63.8952C71.6399 63.8952 72.17 63.3767 72.17 62.7371C72.17 62.0976 71.6399 61.5791 70.9859 61.5791C70.3319 61.5791 69.8018 62.0976 69.8018 62.7371C69.8018 63.3767 70.3319 63.8952 70.9859 63.8952Z" fill="url(#paint40_linear)"/>
<path d="M70.9859 63.7606C71.5639 63.7606 72.0324 63.3024 72.0324 62.7372C72.0324 62.172 71.5639 61.7139 70.9859 61.7139C70.408 61.7139 69.9395 62.172 69.9395 62.7372C69.9395 63.3024 70.408 63.7606 70.9859 63.7606Z" fill="#FBC02D"/>
<path d="M71.2066 62.5668C71.7846 62.5668 72.2531 62.1086 72.2531 61.5434C72.2531 60.9782 71.7846 60.52 71.2066 60.52C70.6287 60.52 70.1602 60.9782 70.1602 61.5434C70.1602 62.1086 70.6287 62.5668 71.2066 62.5668Z" fill="#FBC02D"/>
<path opacity="0.2" d="M70.1959 63.0425C70.1959 62.4769 70.6641 62.0191 71.2424 62.0191C71.5177 62.0191 71.7748 62.1268 71.9767 62.3064C71.7289 61.7947 71.1046 61.5703 70.5814 61.8126C70.0582 62.055 69.8287 62.6654 70.0766 63.1771C70.1316 63.2848 70.2051 63.3926 70.2969 63.4734C70.2326 63.3387 70.1959 63.1951 70.1959 63.0425Z" fill="white"/>
<path d="M67.4518 64.0299C68.1057 64.0299 68.6359 63.5114 68.6359 62.8719C68.6359 62.2323 68.1057 61.7139 67.4518 61.7139C66.7978 61.7139 66.2676 62.2323 66.2676 62.8719C66.2676 63.5114 66.7978 64.0299 67.4518 64.0299Z" fill="url(#paint41_linear)"/>
<path d="M67.4508 63.8954C68.0287 63.8954 68.4972 63.4372 68.4972 62.872C68.4972 62.3068 68.0287 61.8486 67.4508 61.8486C66.8728 61.8486 66.4043 62.3068 66.4043 62.872C66.4043 63.4372 66.8728 63.8954 67.4508 63.8954Z" fill="#FBC02D"/>
<path opacity="0.2" d="M66.6616 63.1681C66.6616 62.6026 67.1297 62.1447 67.708 62.1447C67.9834 62.1447 68.2404 62.2524 68.4424 62.432C68.1945 61.9203 67.5612 61.7048 67.0471 61.9562C66.5239 62.1986 66.3036 62.818 66.5606 63.3207C66.6157 63.4284 66.6799 63.5272 66.7717 63.608C66.6891 63.4733 66.6616 63.3207 66.6616 63.1681Z" fill="white"/>
<path d="M67.0924 59.4162C67.7464 59.4162 68.2765 58.8977 68.2765 58.2581C68.2765 57.6185 67.7464 57.1001 67.0924 57.1001C66.4384 57.1001 65.9082 57.6185 65.9082 58.2581C65.9082 58.8977 66.4384 59.4162 67.0924 59.4162Z" fill="url(#paint42_linear)"/>
<path d="M67.0933 59.2812C67.6713 59.2812 68.1398 58.823 68.1398 58.2578C68.1398 57.6926 67.6713 57.2344 67.0933 57.2344C66.5154 57.2344 66.0469 57.6926 66.0469 58.2578C66.0469 58.823 66.5154 59.2812 67.0933 59.2812Z" fill="#FDD835"/>
<path opacity="0.2" d="M66.314 58.5542C66.314 57.9887 66.7822 57.5308 67.3605 57.5218C67.6359 57.5218 67.9021 57.6296 68.0948 57.8181C67.847 57.3064 67.2228 57.082 66.6996 57.3244C66.1764 57.5667 65.9469 58.1771 66.1947 58.6888C66.2498 58.7965 66.3232 58.9043 66.415 58.9851C66.3416 58.8504 66.314 58.7068 66.314 58.5542Z" fill="white"/>
<path d="M68.2779 60.8703C68.9319 60.8703 69.4621 60.3518 69.4621 59.7122C69.4621 59.0726 68.9319 58.5542 68.2779 58.5542C67.6239 58.5542 67.0938 59.0726 67.0938 59.7122C67.0938 60.3518 67.6239 60.8703 68.2779 60.8703Z" fill="url(#paint43_linear)"/>
<path d="M68.2769 60.7353C68.8549 60.7353 69.3234 60.2771 69.3234 59.7119C69.3234 59.1467 68.8549 58.6885 68.2769 58.6885C67.699 58.6885 67.2305 59.1467 67.2305 59.7119C67.2305 60.2771 67.699 60.7353 68.2769 60.7353Z" fill="#FDD835"/>
<path opacity="0.2" d="M67.4889 60.0088C67.4889 59.4432 67.957 58.9854 68.5353 58.9854C68.8107 58.9854 69.0677 59.0931 69.2697 59.2727C69.0218 58.761 68.3976 58.5366 67.8744 58.7789C67.3512 59.0213 67.1217 59.6318 67.3695 60.1435C67.4246 60.2512 67.498 60.3589 67.5898 60.4397C67.5256 60.305 67.4889 60.1614 67.4889 60.0088Z" fill="white"/>
<path d="M66.313 57.3156C66.967 57.3156 67.4972 56.7971 67.4972 56.1576C67.4972 55.518 66.967 54.9995 66.313 54.9995C65.659 54.9995 65.1289 55.518 65.1289 56.1576C65.1289 56.7971 65.659 57.3156 66.313 57.3156Z" fill="url(#paint44_linear)"/>
<path d="M66.313 57.1805C66.891 57.1805 67.3595 56.7224 67.3595 56.1572C67.3595 55.592 66.891 55.1338 66.313 55.1338C65.7351 55.1338 65.2666 55.592 65.2666 56.1572C65.2666 56.7224 65.7351 57.1805 66.313 57.1805Z" fill="#FDD835"/>
<path opacity="0.2" d="M65.524 56.4629C65.524 55.8973 65.9922 55.4395 66.5705 55.4395C66.8459 55.4395 67.1029 55.5472 67.3048 55.7268C67.057 55.2151 66.4328 54.9907 65.9095 55.233C65.3863 55.4754 65.1568 56.0859 65.4047 56.5976C65.4598 56.7053 65.5332 56.813 65.625 56.8938C65.5607 56.7591 65.524 56.6155 65.524 56.4629Z" fill="white"/>
<path d="M67.6266 57.4499C68.2806 57.4499 68.8107 56.9314 68.8107 56.2918C68.8107 55.6522 68.2806 55.1338 67.6266 55.1338C66.9726 55.1338 66.4424 55.6522 66.4424 56.2918C66.4424 56.9314 66.9726 57.4499 67.6266 57.4499Z" fill="url(#paint45_linear)"/>
<path d="M67.6256 57.3158C68.2035 57.3158 68.672 56.8576 68.672 56.2924C68.672 55.7272 68.2035 55.269 67.6256 55.269C67.0476 55.269 66.5791 55.7272 66.5791 56.2924C66.5791 56.8576 67.0476 57.3158 67.6256 57.3158Z" fill="#FDD835"/>
<path opacity="0.2" d="M66.8373 56.5885C66.8373 56.0229 67.3055 55.5651 67.8838 55.5651C68.1592 55.5651 68.4162 55.6728 68.6182 55.8524C68.3703 55.3407 67.737 55.1252 67.2229 55.3766C66.6997 55.619 66.4794 56.2384 66.7364 56.7411C66.7915 56.8488 66.8557 56.9386 66.9475 57.0283C66.8649 56.8847 66.8373 56.7411 66.8373 56.5885Z" fill="white"/>
<path d="M69.8111 58.0422C70.4651 58.0422 70.9953 57.5237 70.9953 56.8841C70.9953 56.2446 70.4651 55.7261 69.8111 55.7261C69.1571 55.7261 68.627 56.2446 68.627 56.8841C68.627 57.5237 69.1571 58.0422 69.8111 58.0422Z" fill="url(#paint46_linear)"/>
<path d="M69.8101 57.9076C70.388 57.9076 70.8566 57.4494 70.8566 56.8842C70.8566 56.319 70.388 55.8608 69.8101 55.8608C69.2321 55.8608 68.7637 56.319 68.7637 56.8842C68.7637 57.4494 69.2321 57.9076 69.8101 57.9076Z" fill="#FDD835"/>
<path opacity="0.2" d="M69.0211 57.1895C69.0211 56.6239 69.4892 56.1661 70.0676 56.1661C70.3429 56.1661 70.5999 56.2738 70.8019 56.4533C70.5541 55.9416 69.9299 55.7172 69.4067 55.9596C68.8834 56.202 68.6539 56.8124 68.9017 57.3241C68.9568 57.4319 69.0302 57.5396 69.122 57.6204C69.0578 57.4857 69.0211 57.3331 69.0211 57.1895Z" fill="white"/>
<path d="M63.9087 59.9274C64.5627 59.9274 65.0929 59.4089 65.0929 58.7693C65.0929 58.1298 64.5627 57.6113 63.9087 57.6113C63.2547 57.6113 62.7246 58.1298 62.7246 58.7693C62.7246 59.4089 63.2547 59.9274 63.9087 59.9274Z" fill="url(#paint47_linear)"/>
<path d="M63.9087 59.7924C64.4867 59.7924 64.9552 59.3342 64.9552 58.769C64.9552 58.2038 64.4867 57.7456 63.9087 57.7456C63.3308 57.7456 62.8623 58.2038 62.8623 58.769C62.8623 59.3342 63.3308 59.7924 63.9087 59.7924Z" fill="#FDD835"/>
<path opacity="0.2" d="M63.1197 59.0659C63.1197 58.5004 63.5879 58.0425 64.1662 58.0425C64.4416 58.0425 64.6986 58.1503 64.9005 58.3298C64.6527 57.8181 64.0285 57.5937 63.5052 57.8361C62.982 58.0785 62.7525 58.6889 63.0004 59.2005C63.0555 59.3083 63.1289 59.416 63.2207 59.4968C63.1564 59.3711 63.1197 59.2185 63.1197 59.0659Z" fill="white"/>
<path d="M64.7339 61.4181C65.3879 61.4181 65.9181 60.8996 65.9181 60.2601C65.9181 59.6205 65.3879 59.1021 64.7339 59.1021C64.0799 59.1021 63.5498 59.6205 63.5498 60.2601C63.5498 60.8996 64.0799 61.4181 64.7339 61.4181Z" fill="url(#paint48_linear)"/>
<path d="M64.7349 61.2835C65.3129 61.2835 65.7814 60.8254 65.7814 60.2602C65.7814 59.695 65.3129 59.2368 64.7349 59.2368C64.157 59.2368 63.6885 59.695 63.6885 60.2602C63.6885 60.8254 64.157 61.2835 64.7349 61.2835Z" fill="#FDD835"/>
<path opacity="0.2" d="M63.9539 60.5562C63.9539 59.9907 64.422 59.5328 65.0003 59.5328C65.2757 59.5328 65.5328 59.6406 65.7347 59.8201C65.4777 59.3084 64.8535 59.102 64.3302 59.3444C63.807 59.5957 63.5959 60.2061 63.8437 60.7178C63.8988 60.8255 63.9631 60.9153 64.0457 60.9961C63.9814 60.8614 63.9539 60.7088 63.9539 60.5562Z" fill="white"/>
<path d="M65.3033 63.1774C65.9573 63.1774 66.4874 62.6589 66.4874 62.0193C66.4874 61.3798 65.9573 60.8613 65.3033 60.8613C64.6493 60.8613 64.1191 61.3798 64.1191 62.0193C64.1191 62.6589 64.6493 63.1774 65.3033 63.1774Z" fill="url(#paint49_linear)"/>
<path d="M65.3043 63.0429C65.8822 63.0429 66.3507 62.5847 66.3507 62.0195C66.3507 61.4543 65.8822 60.9961 65.3043 60.9961C64.7263 60.9961 64.2578 61.4543 64.2578 62.0195C64.2578 62.5847 64.7263 63.0429 65.3043 63.0429Z" fill="#FDD835"/>
<path opacity="0.2" d="M64.5133 62.3149C64.5133 61.7494 64.9814 61.2916 65.5597 61.2916C65.8351 61.2916 66.0921 61.3993 66.2941 61.5788C66.0462 61.0671 65.422 60.8427 64.8988 61.0851C64.3756 61.3275 64.1461 61.9379 64.3939 62.4496C64.449 62.5573 64.5224 62.665 64.6142 62.7458C64.55 62.6112 64.5133 62.4676 64.5133 62.3149Z" fill="white"/>
<path d="M68.6265 62.6207C69.2805 62.6207 69.8106 62.1023 69.8106 61.4627C69.8106 60.8231 69.2805 60.3047 68.6265 60.3047C67.9725 60.3047 67.4424 60.8231 67.4424 61.4627C67.4424 62.1023 67.9725 62.6207 68.6265 62.6207Z" fill="url(#paint50_linear)"/>
<path d="M68.6265 62.4862C69.2045 62.4862 69.673 62.028 69.673 61.4628C69.673 60.8976 69.2045 60.4395 68.6265 60.4395C68.0486 60.4395 67.5801 60.8976 67.5801 61.4628C67.5801 62.028 68.0486 62.4862 68.6265 62.4862Z" fill="#FDD835"/>
<path opacity="0.2" d="M67.8365 61.7588C67.8365 61.1932 68.3047 60.7354 68.883 60.7354C69.1584 60.7354 69.4154 60.8431 69.6173 61.0227C69.3695 60.511 68.7453 60.2866 68.222 60.5289C67.6988 60.7713 67.4693 61.3817 67.7172 61.8934C67.7723 62.0011 67.8457 62.1089 67.9375 62.1897C67.8732 62.055 67.8365 61.9114 67.8365 61.7588Z" fill="white"/>
<path d="M72.0318 61.5881C72.6858 61.5881 73.216 61.0696 73.216 60.43C73.216 59.7904 72.6858 59.272 72.0318 59.272C71.3779 59.272 70.8477 59.7904 70.8477 60.43C70.8477 61.0696 71.3779 61.5881 72.0318 61.5881Z" fill="url(#paint51_linear)"/>
<path d="M72.0318 61.454C72.6098 61.454 73.0783 60.9958 73.0783 60.4306C73.0783 59.8654 72.6098 59.4072 72.0318 59.4072C71.4539 59.4072 70.9854 59.8654 70.9854 60.4306C70.9854 60.9958 71.4539 61.454 72.0318 61.454Z" fill="#FDD835"/>
<path opacity="0.2" d="M71.2516 60.7354C71.2516 60.1698 71.7197 59.712 72.298 59.712C72.5734 59.712 72.8304 59.8197 73.0324 59.9992C72.7845 59.4875 72.1604 59.2631 71.6371 59.5055C71.1139 59.7479 70.8844 60.3583 71.1322 60.87C71.1873 60.9778 71.2608 61.0854 71.3526 61.1662C71.2791 61.0316 71.2516 60.888 71.2516 60.7354Z" fill="white"/>
<path d="M73.1256 60.6999C73.7796 60.6999 74.3097 60.1814 74.3097 59.5418C74.3097 58.9022 73.7796 58.3838 73.1256 58.3838C72.4716 58.3838 71.9414 58.9022 71.9414 59.5418C71.9414 60.1814 72.4716 60.6999 73.1256 60.6999Z" fill="url(#paint52_linear)"/>
<path d="M73.1246 60.5648C73.7025 60.5648 74.171 60.1066 74.171 59.5414C74.171 58.9762 73.7025 58.5181 73.1246 58.5181C72.5467 58.5181 72.0781 58.9762 72.0781 59.5414C72.0781 60.1066 72.5467 60.5648 73.1246 60.5648Z" fill="#FDD835"/>
<path d="M70.4635 60.475C71.0414 60.475 71.5099 60.0168 71.5099 59.4516C71.5099 58.8864 71.0414 58.4282 70.4635 58.4282C69.8855 58.4282 69.417 58.8864 69.417 59.4516C69.417 60.0168 69.8855 60.475 70.4635 60.475Z" fill="#FDD835"/>
<path opacity="0.2" d="M72.3443 59.8379C72.3443 59.2723 72.8125 58.8145 73.3908 58.8145C73.6662 58.8145 73.9232 58.9222 74.1251 59.1018C73.8773 58.5901 73.2531 58.3657 72.7299 58.608C72.2067 58.8504 71.9771 59.4609 72.225 59.9726C72.2801 60.0803 72.3535 60.188 72.4453 60.2688C72.3719 60.1341 72.3443 59.9905 72.3443 59.8379Z" fill="white"/>
<path d="M74.8326 62.7467C75.4865 62.7467 76.0167 62.2283 76.0167 61.5887C76.0167 60.9492 75.4865 60.4307 74.8326 60.4307C74.1786 60.4307 73.6484 60.9492 73.6484 61.5887C73.6484 62.2283 74.1786 62.7467 74.8326 62.7467Z" fill="url(#paint53_linear)"/>
<path d="M74.8316 62.6117C75.4096 62.6117 75.8781 62.1535 75.8781 61.5883C75.8781 61.0231 75.4096 60.5649 74.8316 60.5649C74.2537 60.5649 73.7852 61.0231 73.7852 61.5883C73.7852 62.1535 74.2537 62.6117 74.8316 62.6117Z" fill="#FDD835"/>
<path opacity="0.2" d="M74.0416 61.8848C74.0416 61.3193 74.5097 60.8614 75.088 60.8614C75.3634 60.8614 75.6205 60.9692 75.8224 61.1487C75.5746 60.637 74.9503 60.4125 74.4271 60.6549C73.9039 60.8973 73.6744 61.5077 73.9223 62.0194C73.9773 62.1272 74.0508 62.2349 74.1426 62.3157C74.0783 62.19 74.0416 62.0374 74.0416 61.8848Z" fill="white"/>
<path d="M69.3248 64.1559C69.9787 64.1559 70.5089 63.6375 70.5089 62.9979C70.5089 62.3583 69.9787 61.8398 69.3248 61.8398C68.6708 61.8398 68.1406 62.3583 68.1406 62.9979C68.1406 63.6375 68.6708 64.1559 69.3248 64.1559Z" fill="url(#paint54_linear)"/>
<path d="M69.3238 64.0213C69.9018 64.0213 70.3703 63.5632 70.3703 62.998C70.3703 62.4328 69.9018 61.9746 69.3238 61.9746C68.7459 61.9746 68.2773 62.4328 68.2773 62.998C68.2773 63.5632 68.7459 64.0213 69.3238 64.0213Z" fill="#FDD835"/>
<path opacity="0.2" d="M68.5445 63.2939C68.5445 62.7284 69.0126 62.2706 69.5909 62.2706C69.8663 62.2706 70.1234 62.3783 70.3253 62.5579C70.0775 62.0462 69.4533 61.8217 68.9301 62.0641C68.4068 62.3065 68.1773 62.9169 68.4252 63.4286C68.4803 63.5363 68.5537 63.6441 68.6455 63.7249C68.5721 63.5992 68.5445 63.4465 68.5445 63.2939Z" fill="white"/>
<path d="M63.2564 63.6442C63.9104 63.6442 64.4406 63.1258 64.4406 62.4862C64.4406 61.8466 63.9104 61.3281 63.2564 61.3281C62.6025 61.3281 62.0723 61.8466 62.0723 62.4862C62.0723 63.1258 62.6025 63.6442 63.2564 63.6442Z" fill="url(#paint55_linear)"/>
<path d="M63.2555 63.5097C63.8334 63.5097 64.3019 63.0515 64.3019 62.4863C64.3019 61.9211 63.8334 61.4629 63.2555 61.4629C62.6775 61.4629 62.209 61.9211 62.209 62.4863C62.209 63.0515 62.6775 63.5097 63.2555 63.5097Z" fill="#FDD835"/>
<path opacity="0.2" d="M62.4673 62.7828C62.4673 62.2172 62.9355 61.7594 63.5138 61.7594C63.7892 61.7594 64.0462 61.8671 64.2481 62.0466C64.0003 61.535 63.3761 61.3105 62.8529 61.5529C62.3297 61.7952 62.1002 62.4057 62.348 62.9174C62.4031 63.0341 62.4765 63.1329 62.5683 63.2226C62.5041 63.088 62.4673 62.9354 62.4673 62.7828Z" fill="white"/>
<path d="M61.5494 62.1452C62.2033 62.1452 62.7335 61.6267 62.7335 60.9872C62.7335 60.3476 62.2033 59.8291 61.5494 59.8291C60.8954 59.8291 60.3652 60.3476 60.3652 60.9872C60.3652 61.6267 60.8954 62.1452 61.5494 62.1452Z" fill="url(#paint56_linear)"/>
<path d="M61.5493 62.0101C62.1273 62.0101 62.5958 61.552 62.5958 60.9868C62.5958 60.4216 62.1273 59.9634 61.5493 59.9634C60.9714 59.9634 60.5029 60.4216 60.5029 60.9868C60.5029 61.552 60.9714 62.0101 61.5493 62.0101Z" fill="#FDD835"/>
<path opacity="0.2" d="M60.7594 61.292C60.7594 60.7264 61.2275 60.2686 61.8058 60.2686C62.0812 60.2686 62.3382 60.3763 62.5402 60.5559C62.2923 60.0442 61.6682 59.8198 61.1449 60.0621C60.6217 60.3045 60.3922 60.915 60.64 61.4267C60.6951 61.5344 60.7685 61.6421 60.8603 61.7229C60.7961 61.5882 60.7594 61.4356 60.7594 61.292Z" fill="white"/>
<path d="M63.7799 61.4181C64.4339 61.4181 64.964 60.8996 64.964 60.2601C64.964 59.6205 64.4339 59.1021 63.7799 59.1021C63.1259 59.1021 62.5957 59.6205 62.5957 60.2601C62.5957 60.8996 63.1259 61.4181 63.7799 61.4181Z" fill="url(#paint57_linear)"/>
<path d="M63.7789 61.2835C64.3568 61.2835 64.8253 60.8254 64.8253 60.2602C64.8253 59.695 64.3568 59.2368 63.7789 59.2368C63.2009 59.2368 62.7324 59.695 62.7324 60.2602C62.7324 60.8254 63.2009 61.2835 63.7789 61.2835Z" fill="#FDD835"/>
<path opacity="0.2" d="M62.9898 60.5557C62.9898 59.9901 63.458 59.5323 64.0363 59.5323C64.3117 59.5323 64.5687 59.64 64.7706 59.8195C64.5228 59.3079 63.8986 59.0834 63.3754 59.3258C62.8522 59.5682 62.6227 60.1787 62.8705 60.6903C62.9256 60.7981 62.9991 60.9058 63.0908 60.9866C63.0266 60.8609 62.9898 60.7083 62.9898 60.5557Z" fill="white"/>
<path d="M62.5494 59.6672C63.2033 59.6672 63.7335 59.1487 63.7335 58.5091C63.7335 57.8696 63.2033 57.3511 62.5494 57.3511C61.8954 57.3511 61.3652 57.8696 61.3652 58.5091C61.3652 59.1487 61.8954 59.6672 62.5494 59.6672Z" fill="url(#paint58_linear)"/>
<path d="M62.5494 59.5326C63.1273 59.5326 63.5959 59.0744 63.5959 58.5092C63.5959 57.944 63.1273 57.4858 62.5494 57.4858C61.9715 57.4858 61.5029 57.944 61.5029 58.5092C61.5029 59.0744 61.9715 59.5326 62.5494 59.5326Z" fill="#FDD835"/>
<path opacity="0.2" d="M61.7681 58.8058C61.7681 58.2402 62.2362 57.7824 62.8145 57.7824C63.0899 57.7824 63.3469 57.8901 63.5489 58.0697C63.301 57.558 62.6676 57.3425 62.1536 57.5939C61.6304 57.8363 61.41 58.4557 61.667 58.9584C61.7221 59.0661 61.7864 59.1649 61.8782 59.2457C61.7956 59.111 61.7681 58.9584 61.7681 58.8058Z" fill="white"/>
<path d="M63.6061 58.0422C64.26 58.0422 64.7902 57.5237 64.7902 56.8841C64.7902 56.2446 64.26 55.7261 63.6061 55.7261C62.9521 55.7261 62.4219 56.2446 62.4219 56.8841C62.4219 57.5237 62.9521 58.0422 63.6061 58.0422Z" fill="url(#paint59_linear)"/>
<path d="M63.6051 57.9076C64.183 57.9076 64.6515 57.4494 64.6515 56.8842C64.6515 56.319 64.183 55.8608 63.6051 55.8608C63.0271 55.8608 62.5586 56.319 62.5586 56.8842C62.5586 57.4494 63.0271 57.9076 63.6051 57.9076Z" fill="#FDD835"/>
<path opacity="0.2" d="M62.8164 57.1895C62.8164 56.6239 63.2845 56.1661 63.8628 56.1661C64.1382 56.1661 64.3953 56.2738 64.588 56.4533C64.3402 55.9416 63.716 55.7172 63.1927 55.9596C62.6695 56.202 62.44 56.8124 62.6879 57.3241C62.743 57.4319 62.8164 57.5396 62.9082 57.6204C62.8531 57.4857 62.8164 57.3331 62.8164 57.1895Z" fill="white"/>
<path d="M72.7388 64.0299C73.3928 64.0299 73.923 63.5114 73.923 62.8719C73.923 62.2323 73.3928 61.7139 72.7388 61.7139C72.0848 61.7139 71.5547 62.2323 71.5547 62.8719C71.5547 63.5114 72.0848 64.0299 72.7388 64.0299Z" fill="url(#paint60_linear)"/>
<path d="M72.7388 63.8954C73.3167 63.8954 73.7853 63.4372 73.7853 62.872C73.7853 62.3068 73.3167 61.8486 72.7388 61.8486C72.1609 61.8486 71.6924 62.3068 71.6924 62.872C71.6924 63.4372 72.1609 63.8954 72.7388 63.8954Z" fill="#FDD835"/>
<path opacity="0.2" d="M71.9506 63.1681C71.9506 62.6026 72.4188 62.1447 72.9971 62.1447C73.2725 62.1447 73.5295 62.2524 73.7314 62.432C73.4836 61.9203 72.8502 61.7048 72.3362 61.9562C71.8129 62.1986 71.5927 62.818 71.8497 63.3207C71.9048 63.4284 71.969 63.5272 72.0608 63.608C71.9782 63.4733 71.9506 63.3207 71.9506 63.1681Z" fill="white"/>
<path d="M74.3636 81.9303H61.3196L58.0059 62.8721H77.7141L74.3636 81.9303Z" fill="url(#paint61_linear)"/>
<path d="M74.1798 81.6701H61.5949L58.4004 63.1685H77.411L74.1798 81.6701Z" fill="white"/>
<path d="M58.4004 63.1685H61.6316L64.6975 81.6701H61.5489L58.4004 63.1685Z" fill="#079D49"/>
<path d="M77.411 63.1685H74.1339L70.9854 81.6701H74.1798L77.411 63.1685Z" fill="#079D49"/>
<path d="M69.4161 63.1685H66.2676V81.6701H69.4161V63.1685Z" fill="#079D49"/>
<path d="M61.9439 60.8703C62.5979 60.8703 63.1281 60.3518 63.1281 59.7122C63.1281 59.0726 62.5979 58.5542 61.9439 58.5542C61.29 58.5542 60.7598 59.0726 60.7598 59.7122C60.7598 60.3518 61.29 60.8703 61.9439 60.8703Z" fill="url(#paint62_linear)"/>
<path d="M61.943 60.7353C62.5209 60.7353 62.9894 60.2771 62.9894 59.7119C62.9894 59.1467 62.5209 58.6885 61.943 58.6885C61.365 58.6885 60.8965 59.1467 60.8965 59.7119C60.8965 60.2771 61.365 60.7353 61.943 60.7353Z" fill="#FBC02D"/>
<path opacity="0.2" d="M61.1539 60.0088C61.1539 59.4432 61.6221 58.9854 62.2004 58.9854C62.4757 58.9854 62.7328 59.0931 62.9347 59.2727C62.6869 58.761 62.0627 58.5366 61.5395 58.7789C61.0162 59.0213 60.7867 59.6318 61.0346 60.1435C61.0896 60.2512 61.1631 60.3589 61.2549 60.4397C61.1907 60.305 61.1539 60.1614 61.1539 60.0088Z" fill="white"/>
<path d="M64.9087 57.6203C65.5627 57.6203 66.0929 57.1018 66.0929 56.4622C66.0929 55.8226 65.5627 55.3042 64.9087 55.3042C64.2547 55.3042 63.7246 55.8226 63.7246 56.4622C63.7246 57.1018 64.2547 57.6203 64.9087 57.6203Z" fill="url(#paint63_linear)"/>
<path d="M64.9088 57.4862C65.4867 57.4862 65.9552 57.028 65.9552 56.4628C65.9552 55.8976 65.4867 55.4395 64.9088 55.4395C64.3308 55.4395 63.8623 55.8976 63.8623 56.4628C63.8623 57.028 64.3308 57.4862 64.9088 57.4862Z" fill="#FBC02D"/>
<path opacity="0.2" d="M64.1295 56.7588C64.1295 56.1932 64.5976 55.7354 65.1759 55.7354C65.4513 55.7354 65.7083 55.8431 65.9102 56.0227C65.6624 55.511 65.0382 55.2866 64.515 55.5289C63.9918 55.7713 63.7623 56.3817 64.0102 56.8934C64.0652 57.0011 64.1387 57.1089 64.2305 57.1897C64.157 57.064 64.1295 56.9114 64.1295 56.7588Z" fill="white"/>
<path d="M60.7593 62.6207C61.4133 62.6207 61.9435 62.1023 61.9435 61.4627C61.9435 60.8231 61.4133 60.3047 60.7593 60.3047C60.1053 60.3047 59.5752 60.8231 59.5752 61.4627C59.5752 62.1023 60.1053 62.6207 60.7593 62.6207Z" fill="url(#paint64_linear)"/>
<path d="M60.7594 62.4862C61.3373 62.4862 61.8058 62.028 61.8058 61.4628C61.8058 60.8976 61.3373 60.4395 60.7594 60.4395C60.1814 60.4395 59.7129 60.8976 59.7129 61.4628C59.7129 62.028 60.1814 62.4862 60.7594 62.4862Z" fill="#FBC02D"/>
<path opacity="0.2" d="M59.9697 61.7593C59.9697 61.1937 60.4378 60.7359 61.0161 60.7359C61.2915 60.7359 61.5485 60.8436 61.7505 61.0232C61.5026 60.5115 60.8784 60.2961 60.3552 60.5384C59.832 60.7808 59.6117 61.3912 59.8595 61.9029C59.9146 62.0106 59.988 62.1094 60.0706 62.1992C60.0064 62.0555 59.9697 61.9119 59.9697 61.7593Z" fill="white"/>
<path opacity="0.1" d="M158.189 59.1553H145.485C141.152 59.1553 137.646 62.5845 137.646 66.8217V104.696H140.675V101.814H162.99V104.696H166.019V66.8217C166.038 62.5935 162.522 59.1553 158.189 59.1553Z" fill="black"/>
<path d="M30.1907 66.687H14.9253C9.7206 66.687 5.49805 70.8165 5.49805 75.9064V121.447H9.14231V117.973H35.9738V121.447H39.618V75.9064C39.618 70.8165 35.3955 66.687 30.1907 66.687Z" fill="#4C495E"/>
<path d="M65.4851 66.687H50.2105C45.0058 66.687 40.7832 70.8165 40.7832 75.9064V121.447H44.4275V117.973H71.2589V121.447H74.9032V75.9064C74.9032 70.8165 70.6898 66.687 65.4851 66.687Z" fill="#4C495E"/>
<path d="M89.2711 59.1281C89.2711 59.1281 90.3359 62.1623 87.9493 62.4586C85.5626 62.7548 95.0175 68.8053 97.4592 62.4586C97.4592 62.4586 96.6422 60.2502 96.9635 58.8049C97.2939 57.3686 89.0691 58.1855 89.2711 59.1281Z" fill="#F8BDC5"/>
<path d="M78.1172 71.0051C78.1172 71.0051 79.4298 64.1646 82.9272 63.3118C86.4246 62.459 87.9575 62.459 87.9575 62.459C87.9575 62.459 89.4997 64.1646 93.4285 64.3801C97.3573 64.5955 97.4674 62.459 97.4674 62.459C97.4674 62.459 103.37 62.8899 104.793 64.0659C106.215 65.2419 108.18 71.0141 108.18 71.0141H78.1172V71.0051Z" fill="#079D49"/>
<path d="M100.157 55.4118C100.377 55.2771 100.487 54.9899 100.588 54.7205C101.02 53.6074 101.46 52.4584 101.561 51.2195C101.598 50.5193 101.589 49.8101 101.515 49.1099C101.451 48.2481 101.956 46.8836 101.58 46.1475C101.02 45.0074 99.3123 44.9805 98.275 44.5855C97.2377 44.1995 96.485 42.9966 95.411 42.6644C94.4013 42.3233 93.0244 42.9247 91.9687 42.826C90.1237 42.7183 88.297 43.2479 86.7824 44.3431C86.1307 44.783 85.5707 45.3575 85.1392 46.0308C84.6895 46.7669 84.4875 47.6467 84.5793 48.5174C84.6619 49.1907 84.9557 49.8011 85.1025 50.4565C85.3412 51.5247 85.1943 52.6648 85.0842 53.76C85.0107 54.1999 85.2953 54.4243 85.4055 54.8552C85.5432 55.2861 85.9562 55.6272 85.9562 55.6272C87.8288 61.1212 97.6325 62.369 100.157 55.4118Z" fill="#3F3D56"/>
<path d="M100.772 66.687H85.5064C80.3017 66.687 76.0791 70.8165 76.0791 75.9064V121.447H79.7234V117.973H106.555V121.447H110.199V75.9064C110.199 70.8165 105.977 66.687 100.772 66.687Z" fill="#4C495E"/>
<path d="M133.589 46.3008L132.607 43.9937L122.207 48.168C121.729 48.3655 121.408 48.8233 121.408 49.326V60.3139L124.41 60.655V50.1698L133.589 46.3008Z" fill="url(#paint65_linear)"/>
<path d="M133.094 46.2562L132.359 44.5146L122.629 48.4197C122.179 48.5992 121.886 49.0301 121.886 49.5059V59.7935H123.804V49.9817L133.094 46.2562Z" fill="#F2F2F2"/>
<path d="M131.846 42.6294H129.753V49.1198H131.846V42.6294Z" fill="#079D49"/>
<path d="M128.523 43.9941H126.43V50.4846H128.523V43.9941Z" fill="#079D49"/>
<path d="M125.291 49.5509L123.813 49.9729L123.198 43.0605H125.291V49.5509Z" fill="#079D49"/>
<path d="M126.512 50.3228H119.875V52.3695H126.512V50.3228Z" fill="#079D49"/>
<path d="M126.512 53.1416H119.875V55.1884H126.512V53.1416Z" fill="#079D49"/>
<path d="M126.512 55.96H119.875V58.0067H126.512V55.96Z" fill="#079D49"/>
<path d="M134.902 58.0068H111.577V61.6066H113.174L116.415 90.728H130.349L133.231 61.4361H134.902V58.0068Z" fill="url(#paint66_linear)"/>
<path d="M129.753 90.1264H116.911L113.763 59.3711H132.544L129.753 90.1264Z" fill="#079D49"/>
<path d="M133.948 58.8604H112.459V60.9071H133.948V58.8604Z" fill="#079D49"/>
<path d="M123.199 78.2503C126.139 78.2503 128.523 75.9192 128.523 73.0436C128.523 70.1681 126.139 67.8369 123.199 67.8369C120.259 67.8369 117.875 70.1681 117.875 73.0436C117.875 75.9192 120.259 78.2503 123.199 78.2503Z" fill="url(#paint67_linear)"/>
<path d="M123.198 77.8283C125.9 77.8283 128.091 75.6861 128.091 73.0436C128.091 70.401 125.9 68.2588 123.198 68.2588C120.496 68.2588 118.306 70.401 118.306 73.0436C118.306 75.6861 120.496 77.8283 123.198 77.8283Z" fill="white"/>
<path d="M136.066 66.687H120.792C115.587 66.687 111.364 70.8165 111.364 75.9064V121.447H115.009V117.973H141.84V121.447H145.484V75.9064C145.493 70.8165 141.271 66.687 136.066 66.687Z" fill="#4C495E"/>
<path d="M171.362 66.687H156.096C150.891 66.687 146.669 70.8165 146.669 75.9064V121.447H150.313V117.973H177.145V121.447H180.789V75.9064C180.789 70.8165 176.566 66.687 171.362 66.687Z" fill="#4C495E"/>
<path opacity="0.1" d="M30.1907 66.687H14.9253C9.7206 66.687 5.49805 70.8165 5.49805 75.9064V121.447H9.14231V117.973H35.9738V121.447H39.618V75.9064C39.618 70.8165 35.3955 66.687 30.1907 66.687Z" fill="black"/>
<path opacity="0.1" d="M65.4851 66.687H50.2105C45.0058 66.687 40.7832 70.8165 40.7832 75.9064V121.447H44.4275V117.973H71.2589V121.447H74.9032V75.9064C74.9032 70.8165 70.6898 66.687 65.4851 66.687Z" fill="black"/>
<path opacity="0.1" d="M100.772 66.687H85.5064C80.3017 66.687 76.0791 70.8165 76.0791 75.9064V121.447H79.7234V117.973H106.555V121.447H110.199V75.9064C110.199 70.8165 105.977 66.687 100.772 66.687Z" fill="black"/>
<path opacity="0.1" d="M136.066 66.687H120.792C115.587 66.687 111.364 70.8165 111.364 75.9064V121.447H115.009V117.973H141.84V121.447H145.484V75.9064C145.493 70.8165 141.271 66.687 136.066 66.687Z" fill="black"/>
<path opacity="0.1" d="M171.362 66.687H156.096C150.891 66.687 146.669 70.8165 146.669 75.9064V121.447H150.313V117.973H177.145V121.447H180.789V75.9064C180.789 70.8165 176.566 66.687 171.362 66.687Z" fill="black"/>
<path d="M26.244 76.4009H10.0148C4.47959 76.4009 0 80.7906 0 86.1948V134.59H3.87375V130.9H32.3851V134.59H36.2587V86.1948C36.2679 80.7816 31.7792 76.4009 26.244 76.4009Z" fill="#525066"/>
<path d="M63.7498 76.4009H47.5206C41.9854 76.4009 37.5059 80.7906 37.5059 86.1948V134.59H41.3796V130.9H69.8909V134.59H73.7646V86.1948C73.7646 80.7816 69.285 76.4009 63.7498 76.4009Z" fill="#525066"/>
<path d="M101.249 76.4009H85.0196C79.4844 76.4009 75.0049 80.7906 75.0049 86.1948V134.59H78.8786V130.9H107.39V134.59H111.264V86.1948C111.273 80.7816 106.784 76.4009 101.249 76.4009Z" fill="#525066"/>
<path d="M138.757 76.4009H122.527C116.992 76.4009 112.513 80.7906 112.513 86.1948V134.59H116.386V130.9H144.898V134.59H148.771V86.1948C148.771 80.7816 144.292 76.4009 138.757 76.4009Z" fill="#525066"/>
<path d="M176.254 76.4009H160.024C154.489 76.4009 150.01 80.7906 150.01 86.1948V134.59H153.883V130.9H182.395V134.59H186.269V86.1948C186.278 80.7816 181.789 76.4009 176.254 76.4009Z" fill="#525066"/>
<defs>
<linearGradient id="paint0_linear" x1="89.4072" y1="39.4085" x2="89.4072" y2="19.4567" gradientUnits="userSpaceOnUse">
<stop stop-color="#808080" stop-opacity="0.25"/>
<stop offset="0.54" stop-color="#808080" stop-opacity="0.12"/>
<stop offset="1" stop-color="#808080" stop-opacity="0.1"/>
</linearGradient>
<linearGradient id="paint1_linear" x1="89.4084" y1="44.084" x2="89.4084" y2="14.7827" gradientUnits="userSpaceOnUse">
<stop stop-color="#808080" stop-opacity="0.25"/>
<stop offset="0.54" stop-color="#808080" stop-opacity="0.12"/>
<stop offset="1" stop-color="#808080" stop-opacity="0.1"/>
</linearGradient>
<linearGradient id="paint2_linear" x1="65.874" y1="64.0244" x2="65.874" y2="61.7164" gradientUnits="userSpaceOnUse">
<stop stop-color="#808080" stop-opacity="0.25"/>
<stop offset="0.54" stop-color="#808080" stop-opacity="0.12"/>
<stop offset="1" stop-color="#808080" stop-opacity="0.1"/>
</linearGradient>
<linearGradient id="paint3_linear" x1="69.2821" y1="64.0244" x2="69.2821" y2="61.7164" gradientUnits="userSpaceOnUse">
<stop stop-color="#808080" stop-opacity="0.25"/>
<stop offset="0.54" stop-color="#808080" stop-opacity="0.12"/>
<stop offset="1" stop-color="#808080" stop-opacity="0.1"/>
</linearGradient>
<linearGradient id="paint4_linear" x1="59.5816" y1="64.0244" x2="59.5816" y2="61.7164" gradientUnits="userSpaceOnUse">
<stop stop-color="#808080" stop-opacity="0.25"/>
<stop offset="0.54" stop-color="#808080" stop-opacity="0.12"/>
<stop offset="1" stop-color="#808080" stop-opacity="0.1"/>
</linearGradient>
<linearGradient id="paint5_linear" x1="64.0402" y1="61.1184" x2="64.0402" y2="58.8104" gradientUnits="userSpaceOnUse">
<stop stop-color="#808080" stop-opacity="0.25"/>
<stop offset="0.54" stop-color="#808080" stop-opacity="0.12"/>
<stop offset="1" stop-color="#808080" stop-opacity="0.1"/>
</linearGradient>
<linearGradient id="paint6_linear" x1="70.9873" y1="61.5882" x2="70.9873" y2="59.2802" gradientUnits="userSpaceOnUse">
<stop stop-color="#808080" stop-opacity="0.25"/>
<stop offset="0.54" stop-color="#808080" stop-opacity="0.12"/>
<stop offset="1" stop-color="#808080" stop-opacity="0.1"/>
</linearGradient>
<linearGradient id="paint7_linear" x1="69.2821" y1="60.5627" x2="69.2821" y2="58.2547" gradientUnits="userSpaceOnUse">
<stop stop-color="#808080" stop-opacity="0.25"/>
<stop offset="0.54" stop-color="#808080" stop-opacity="0.12"/>
<stop offset="1" stop-color="#808080" stop-opacity="0.1"/>
</linearGradient>
<linearGradient id="paint8_linear" x1="70.1145" y1="62.9989" x2="70.1145" y2="60.6909" gradientUnits="userSpaceOnUse">
<stop stop-color="#808080" stop-opacity="0.25"/>
<stop offset="0.54" stop-color="#808080" stop-opacity="0.12"/>
<stop offset="1" stop-color="#808080" stop-opacity="0.1"/>
</linearGradient>
<linearGradient id="paint9_linear" x1="67.0544" y1="61.1184" x2="67.0544" y2="58.8104" gradientUnits="userSpaceOnUse">
<stop stop-color="#808080" stop-opacity="0.25"/>
<stop offset="0.54" stop-color="#808080" stop-opacity="0.12"/>
<stop offset="1" stop-color="#808080" stop-opacity="0.1"/>
</linearGradient>
<linearGradient id="paint10_linear" x1="66.9225" y1="57.8703" x2="66.9225" y2="55.5622" gradientUnits="userSpaceOnUse">
<stop stop-color="#808080" stop-opacity="0.25"/>
<stop offset="0.54" stop-color="#808080" stop-opacity="0.12"/>
<stop offset="1" stop-color="#808080" stop-opacity="0.1"/>
</linearGradient>
<linearGradient id="paint11_linear" x1="72.7344" y1="59.5374" x2="72.7344" y2="57.2294" gradientUnits="userSpaceOnUse">
<stop stop-color="#808080" stop-opacity="0.25"/>
<stop offset="0.54" stop-color="#808080" stop-opacity="0.12"/>
<stop offset="1" stop-color="#808080" stop-opacity="0.1"/>
</linearGradient>
<linearGradient id="paint12_linear" x1="72.1668" y1="61.7169" x2="72.1668" y2="59.4088" gradientUnits="userSpaceOnUse">
<stop stop-color="#808080" stop-opacity="0.25"/>
<stop offset="0.54" stop-color="#808080" stop-opacity="0.12"/>
<stop offset="1" stop-color="#808080" stop-opacity="0.1"/>
</linearGradient>
<linearGradient id="paint13_linear" x1="74.789" y1="61.289" x2="74.789" y2="58.981" gradientUnits="userSpaceOnUse">
<stop stop-color="#808080" stop-opacity="0.25"/>
<stop offset="0.54" stop-color="#808080" stop-opacity="0.12"/>
<stop offset="1" stop-color="#808080" stop-opacity="0.1"/>
</linearGradient>
<linearGradient id="paint14_linear" x1="73.6099" y1="62.3577" x2="73.6099" y2="60.0497" gradientUnits="userSpaceOnUse">
<stop stop-color="#808080" stop-opacity="0.25"/>
<stop offset="0.54" stop-color="#808080" stop-opacity="0.12"/>
<stop offset="1" stop-color="#808080" stop-opacity="0.1"/>
</linearGradient>
<linearGradient id="paint15_linear" x1="65.7437" y1="59.5374" x2="65.7437" y2="57.2294" gradientUnits="userSpaceOnUse">
<stop stop-color="#808080" stop-opacity="0.25"/>
<stop offset="0.54" stop-color="#808080" stop-opacity="0.12"/>
<stop offset="1" stop-color="#808080" stop-opacity="0.1"/>
</linearGradient>
<linearGradient id="paint16_linear" x1="64.0402" y1="63.8955" x2="64.0402" y2="61.5875" gradientUnits="userSpaceOnUse">
<stop stop-color="#808080" stop-opacity="0.25"/>
<stop offset="0.54" stop-color="#808080" stop-opacity="0.12"/>
<stop offset="1" stop-color="#808080" stop-opacity="0.1"/>
</linearGradient>
<linearGradient id="paint17_linear" x1="61.3736" y1="64.0244" x2="61.3736" y2="61.7164" gradientUnits="userSpaceOnUse">
<stop stop-color="#808080" stop-opacity="0.25"/>
<stop offset="0.54" stop-color="#808080" stop-opacity="0.12"/>
<stop offset="1" stop-color="#808080" stop-opacity="0.1"/>
</linearGradient>
<linearGradient id="paint18_linear" x1="62.7274" y1="63.2974" x2="62.7274" y2="60.9893" gradientUnits="userSpaceOnUse">
<stop stop-color="#808080" stop-opacity="0.25"/>
<stop offset="0.54" stop-color="#808080" stop-opacity="0.12"/>
<stop offset="1" stop-color="#808080" stop-opacity="0.1"/>
</linearGradient>
<linearGradient id="paint19_linear" x1="68.4966" y1="62.0166" x2="68.4966" y2="59.7086" gradientUnits="userSpaceOnUse">
<stop stop-color="#808080" stop-opacity="0.25"/>
<stop offset="0.54" stop-color="#808080" stop-opacity="0.12"/>
<stop offset="1" stop-color="#808080" stop-opacity="0.1"/>
</linearGradient>
<linearGradient id="paint20_linear" x1="68.4966" y1="59.2807" x2="68.4966" y2="56.9726" gradientUnits="userSpaceOnUse">
<stop stop-color="#808080" stop-opacity="0.25"/>
<stop offset="0.54" stop-color="#808080" stop-opacity="0.12"/>
<stop offset="1" stop-color="#808080" stop-opacity="0.1"/>
</linearGradient>
<linearGradient id="paint21_linear" x1="69.8074" y1="61.4604" x2="69.8074" y2="59.1523" gradientUnits="userSpaceOnUse">
<stop stop-color="#808080" stop-opacity="0.25"/>
<stop offset="0.54" stop-color="#808080" stop-opacity="0.12"/>
<stop offset="1" stop-color="#808080" stop-opacity="0.1"/>
</linearGradient>
<linearGradient id="paint22_linear" x1="68.627" y1="57.1015" x2="68.627" y2="54.7935" gradientUnits="userSpaceOnUse">
<stop stop-color="#808080" stop-opacity="0.25"/>
<stop offset="0.54" stop-color="#808080" stop-opacity="0.12"/>
<stop offset="1" stop-color="#808080" stop-opacity="0.1"/>
</linearGradient>
<linearGradient id="paint23_linear" x1="68.889" y1="58.2559" x2="68.889" y2="55.9479" gradientUnits="userSpaceOnUse">
<stop stop-color="#808080" stop-opacity="0.25"/>
<stop offset="0.54" stop-color="#808080" stop-opacity="0.12"/>
<stop offset="1" stop-color="#808080" stop-opacity="0.1"/>
</linearGradient>
<linearGradient id="paint24_linear" x1="70.2886" y1="59.0239" x2="70.2886" y2="56.7159" gradientUnits="userSpaceOnUse">
<stop stop-color="#808080" stop-opacity="0.25"/>
<stop offset="0.54" stop-color="#808080" stop-opacity="0.12"/>
<stop offset="1" stop-color="#808080" stop-opacity="0.1"/>
</linearGradient>
<linearGradient id="paint25_linear" x1="71.7297" y1="58.8106" x2="71.7297" y2="56.5026" gradientUnits="userSpaceOnUse">
<stop stop-color="#808080" stop-opacity="0.25"/>
<stop offset="0.54" stop-color="#808080" stop-opacity="0.12"/>
<stop offset="1" stop-color="#808080" stop-opacity="0.1"/>
</linearGradient>
<linearGradient id="paint26_linear" x1="71.3364" y1="59.9641" x2="71.3364" y2="57.6561" gradientUnits="userSpaceOnUse">
<stop stop-color="#808080" stop-opacity="0.25"/>
<stop offset="0.54" stop-color="#808080" stop-opacity="0.12"/>
<stop offset="1" stop-color="#808080" stop-opacity="0.1"/>
</linearGradient>
<linearGradient id="paint27_linear" x1="66.3977" y1="58.4687" x2="66.3977" y2="56.1606" gradientUnits="userSpaceOnUse">
<stop stop-color="#808080" stop-opacity="0.25"/>
<stop offset="0.54" stop-color="#808080" stop-opacity="0.12"/>
<stop offset="1" stop-color="#808080" stop-opacity="0.1"/>
</linearGradient>
<linearGradient id="paint28_linear" x1="62.9907" y1="61.9731" x2="62.9907" y2="59.6651" gradientUnits="userSpaceOnUse">
<stop stop-color="#808080" stop-opacity="0.25"/>
<stop offset="0.54" stop-color="#808080" stop-opacity="0.12"/>
<stop offset="1" stop-color="#808080" stop-opacity="0.1"/>
</linearGradient>
<linearGradient id="paint29_linear" x1="65.0439" y1="60.0499" x2="65.0439" y2="57.7419" gradientUnits="userSpaceOnUse">
<stop stop-color="#808080" stop-opacity="0.25"/>
<stop offset="0.54" stop-color="#808080" stop-opacity="0.12"/>
<stop offset="1" stop-color="#808080" stop-opacity="0.1"/>
</linearGradient>
<linearGradient id="paint30_linear" x1="60.8489" y1="63.3413" x2="60.8489" y2="61.0333" gradientUnits="userSpaceOnUse">
<stop stop-color="#808080" stop-opacity="0.25"/>
<stop offset="0.54" stop-color="#808080" stop-opacity="0.12"/>
<stop offset="1" stop-color="#808080" stop-opacity="0.1"/>
</linearGradient>
<linearGradient id="paint31_linear" x1="72.1668" y1="62.4431" x2="72.1668" y2="60.1352" gradientUnits="userSpaceOnUse">
<stop stop-color="#808080" stop-opacity="0.25"/>
<stop offset="0.54" stop-color="#808080" stop-opacity="0.12"/>
<stop offset="1" stop-color="#808080" stop-opacity="0.1"/>
</linearGradient>
<linearGradient id="paint32_linear" x1="66.8786" y1="55.9473" x2="66.8786" y2="53.6393" gradientUnits="userSpaceOnUse">
<stop stop-color="#808080" stop-opacity="0.25"/>
<stop offset="0.54" stop-color="#808080" stop-opacity="0.12"/>
<stop offset="1" stop-color="#808080" stop-opacity="0.1"/>
</linearGradient>
<linearGradient id="paint33_linear" x1="64.738" y1="58.5966" x2="64.738" y2="56.2885" gradientUnits="userSpaceOnUse">
<stop stop-color="#808080" stop-opacity="0.25"/>
<stop offset="0.54" stop-color="#808080" stop-opacity="0.12"/>
<stop offset="1" stop-color="#808080" stop-opacity="0.1"/>
</linearGradient>
<linearGradient id="paint34_linear" x1="63.0344" y1="60.5627" x2="63.0344" y2="58.2547" gradientUnits="userSpaceOnUse">
<stop stop-color="#808080" stop-opacity="0.25"/>
<stop offset="0.54" stop-color="#808080" stop-opacity="0.12"/>
<stop offset="1" stop-color="#808080" stop-opacity="0.1"/>
</linearGradient>
<linearGradient id="paint35_linear" x1="64.2569" y1="62.7429" x2="64.2569" y2="60.4349" gradientUnits="userSpaceOnUse">
<stop stop-color="#808080" stop-opacity="0.25"/>
<stop offset="0.54" stop-color="#808080" stop-opacity="0.12"/>
<stop offset="1" stop-color="#808080" stop-opacity="0.1"/>
</linearGradient>
<linearGradient id="paint36_linear" x1="65.9177" y1="61.289" x2="65.9177" y2="58.981" gradientUnits="userSpaceOnUse">
<stop stop-color="#808080" stop-opacity="0.25"/>
<stop offset="0.54" stop-color="#808080" stop-opacity="0.12"/>
<stop offset="1" stop-color="#808080" stop-opacity="0.1"/>
</linearGradient>
<linearGradient id="paint37_linear" x1="66.7922" y1="62.7429" x2="66.7922" y2="60.4349" gradientUnits="userSpaceOnUse">
<stop stop-color="#808080" stop-opacity="0.25"/>
<stop offset="0.54" stop-color="#808080" stop-opacity="0.12"/>
<stop offset="1" stop-color="#808080" stop-opacity="0.1"/>
</linearGradient>
<linearGradient id="paint38_linear" x1="75.8381" y1="64.0244" x2="75.8381" y2="61.7164" gradientUnits="userSpaceOnUse">
<stop stop-color="#808080" stop-opacity="0.25"/>
<stop offset="0.54" stop-color="#808080" stop-opacity="0.12"/>
<stop offset="1" stop-color="#808080" stop-opacity="0.1"/>
</linearGradient>
<linearGradient id="paint39_linear" x1="74.1766" y1="63.7676" x2="74.1766" y2="61.4596" gradientUnits="userSpaceOnUse">
<stop stop-color="#808080" stop-opacity="0.25"/>
<stop offset="0.54" stop-color="#808080" stop-opacity="0.12"/>
<stop offset="1" stop-color="#808080" stop-opacity="0.1"/>
</linearGradient>
<linearGradient id="paint40_linear" x1="70.9873" y1="63.8955" x2="70.9873" y2="61.5875" gradientUnits="userSpaceOnUse">
<stop stop-color="#808080" stop-opacity="0.25"/>
<stop offset="0.54" stop-color="#808080" stop-opacity="0.12"/>
<stop offset="1" stop-color="#808080" stop-opacity="0.1"/>
</linearGradient>
<linearGradient id="paint41_linear" x1="67.4479" y1="64.0244" x2="67.4479" y2="61.7164" gradientUnits="userSpaceOnUse">
<stop stop-color="#808080" stop-opacity="0.25"/>
<stop offset="0.54" stop-color="#808080" stop-opacity="0.12"/>
<stop offset="1" stop-color="#808080" stop-opacity="0.1"/>
</linearGradient>
<linearGradient id="paint42_linear" x1="67.0966" y1="59.4096" x2="67.0966" y2="57.1015" gradientUnits="userSpaceOnUse">
<stop stop-color="#808080" stop-opacity="0.25"/>
<stop offset="0.54" stop-color="#808080" stop-opacity="0.12"/>
<stop offset="1" stop-color="#808080" stop-opacity="0.1"/>
</linearGradient>
<linearGradient id="paint43_linear" x1="68.278" y1="60.8622" x2="68.278" y2="58.5542" gradientUnits="userSpaceOnUse">
<stop stop-color="#808080" stop-opacity="0.25"/>
<stop offset="0.54" stop-color="#808080" stop-opacity="0.12"/>
<stop offset="1" stop-color="#808080" stop-opacity="0.1"/>
</linearGradient>
<linearGradient id="paint44_linear" x1="66.311" y1="57.3158" x2="66.311" y2="55.0078" gradientUnits="userSpaceOnUse">
<stop stop-color="#808080" stop-opacity="0.25"/>
<stop offset="0.54" stop-color="#808080" stop-opacity="0.12"/>
<stop offset="1" stop-color="#808080" stop-opacity="0.1"/>
</linearGradient>
<linearGradient id="paint45_linear" x1="67.6229" y1="57.4435" x2="67.6229" y2="55.1354" gradientUnits="userSpaceOnUse">
<stop stop-color="#808080" stop-opacity="0.25"/>
<stop offset="0.54" stop-color="#808080" stop-opacity="0.12"/>
<stop offset="1" stop-color="#808080" stop-opacity="0.1"/>
</linearGradient>
<linearGradient id="paint46_linear" x1="69.8074" y1="58.0416" x2="69.8074" y2="55.7336" gradientUnits="userSpaceOnUse">
<stop stop-color="#808080" stop-opacity="0.25"/>
<stop offset="0.54" stop-color="#808080" stop-opacity="0.12"/>
<stop offset="1" stop-color="#808080" stop-opacity="0.1"/>
</linearGradient>
<linearGradient id="paint47_linear" x1="63.908" y1="59.9213" x2="63.908" y2="57.6133" gradientUnits="userSpaceOnUse">
<stop stop-color="#808080" stop-opacity="0.25"/>
<stop offset="0.54" stop-color="#808080" stop-opacity="0.12"/>
<stop offset="1" stop-color="#808080" stop-opacity="0.1"/>
</linearGradient>
<linearGradient id="paint48_linear" x1="64.738" y1="61.4181" x2="64.738" y2="59.1101" gradientUnits="userSpaceOnUse">
<stop stop-color="#808080" stop-opacity="0.25"/>
<stop offset="0.54" stop-color="#808080" stop-opacity="0.12"/>
<stop offset="1" stop-color="#808080" stop-opacity="0.1"/>
</linearGradient>
<linearGradient id="paint49_linear" x1="65.3064" y1="63.1695" x2="65.3064" y2="60.8615" gradientUnits="userSpaceOnUse">
<stop stop-color="#808080" stop-opacity="0.25"/>
<stop offset="0.54" stop-color="#808080" stop-opacity="0.12"/>
<stop offset="1" stop-color="#808080" stop-opacity="0.1"/>
</linearGradient>
<linearGradient id="paint50_linear" x1="68.627" y1="62.6137" x2="68.627" y2="60.3058" gradientUnits="userSpaceOnUse">
<stop stop-color="#808080" stop-opacity="0.25"/>
<stop offset="0.54" stop-color="#808080" stop-opacity="0.12"/>
<stop offset="1" stop-color="#808080" stop-opacity="0.1"/>
</linearGradient>
<linearGradient id="paint51_linear" x1="72.0351" y1="61.5882" x2="72.0351" y2="59.2802" gradientUnits="userSpaceOnUse">
<stop stop-color="#808080" stop-opacity="0.25"/>
<stop offset="0.54" stop-color="#808080" stop-opacity="0.12"/>
<stop offset="1" stop-color="#808080" stop-opacity="0.1"/>
</linearGradient>
<linearGradient id="paint52_linear" x1="73.1292" y1="60.6916" x2="73.1292" y2="58.3836" gradientUnits="userSpaceOnUse">
<stop stop-color="#808080" stop-opacity="0.25"/>
<stop offset="0.54" stop-color="#808080" stop-opacity="0.12"/>
<stop offset="1" stop-color="#808080" stop-opacity="0.1"/>
</linearGradient>
<linearGradient id="paint53_linear" x1="74.8327" y1="62.7429" x2="74.8327" y2="60.4349" gradientUnits="userSpaceOnUse">
<stop stop-color="#808080" stop-opacity="0.25"/>
<stop offset="0.54" stop-color="#808080" stop-opacity="0.12"/>
<stop offset="1" stop-color="#808080" stop-opacity="0.1"/>
</linearGradient>
<linearGradient id="paint54_linear" x1="69.3267" y1="64.1528" x2="69.3267" y2="61.8448" gradientUnits="userSpaceOnUse">
<stop stop-color="#808080" stop-opacity="0.25"/>
<stop offset="0.54" stop-color="#808080" stop-opacity="0.12"/>
<stop offset="1" stop-color="#808080" stop-opacity="0.1"/>
</linearGradient>
<linearGradient id="paint55_linear" x1="63.2527" y1="63.6398" x2="63.2527" y2="61.3318" gradientUnits="userSpaceOnUse">
<stop stop-color="#808080" stop-opacity="0.25"/>
<stop offset="0.54" stop-color="#808080" stop-opacity="0.12"/>
<stop offset="1" stop-color="#808080" stop-opacity="0.1"/>
</linearGradient>
<linearGradient id="paint56_linear" x1="61.5486" y1="62.1445" x2="61.5486" y2="59.8364" gradientUnits="userSpaceOnUse">
<stop stop-color="#808080" stop-opacity="0.25"/>
<stop offset="0.54" stop-color="#808080" stop-opacity="0.12"/>
<stop offset="1" stop-color="#808080" stop-opacity="0.1"/>
</linearGradient>
<linearGradient id="paint57_linear" x1="63.7767" y1="61.4181" x2="63.7767" y2="59.1101" gradientUnits="userSpaceOnUse">
<stop stop-color="#808080" stop-opacity="0.25"/>
<stop offset="0.54" stop-color="#808080" stop-opacity="0.12"/>
<stop offset="1" stop-color="#808080" stop-opacity="0.1"/>
</linearGradient>
<linearGradient id="paint58_linear" x1="62.5526" y1="59.6654" x2="62.5526" y2="57.3573" gradientUnits="userSpaceOnUse">
<stop stop-color="#808080" stop-opacity="0.25"/>
<stop offset="0.54" stop-color="#808080" stop-opacity="0.12"/>
<stop offset="1" stop-color="#808080" stop-opacity="0.1"/>
</linearGradient>
<linearGradient id="paint59_linear" x1="63.6027" y1="58.0416" x2="63.6027" y2="55.7336" gradientUnits="userSpaceOnUse">
<stop stop-color="#808080" stop-opacity="0.25"/>
<stop offset="0.54" stop-color="#808080" stop-opacity="0.12"/>
<stop offset="1" stop-color="#808080" stop-opacity="0.1"/>
</linearGradient>
<linearGradient id="paint60_linear" x1="72.7344" y1="64.0244" x2="72.7344" y2="61.7164" gradientUnits="userSpaceOnUse">
<stop stop-color="#808080" stop-opacity="0.25"/>
<stop offset="0.54" stop-color="#808080" stop-opacity="0.12"/>
<stop offset="1" stop-color="#808080" stop-opacity="0.1"/>
</linearGradient>
<linearGradient id="paint61_linear" x1="67.8627" y1="81.9293" x2="67.8627" y2="62.8698" gradientUnits="userSpaceOnUse">
<stop stop-color="#808080" stop-opacity="0.25"/>
<stop offset="0.54" stop-color="#808080" stop-opacity="0.12"/>
<stop offset="1" stop-color="#808080" stop-opacity="0.1"/>
</linearGradient>
<linearGradient id="paint62_linear" x1="61.942" y1="60.8622" x2="61.942" y2="58.5542" gradientUnits="userSpaceOnUse">
<stop stop-color="#808080" stop-opacity="0.25"/>
<stop offset="0.54" stop-color="#808080" stop-opacity="0.12"/>
<stop offset="1" stop-color="#808080" stop-opacity="0.1"/>
</linearGradient>
<linearGradient id="paint63_linear" x1="64.913" y1="57.6141" x2="64.913" y2="55.306" gradientUnits="userSpaceOnUse">
<stop stop-color="#808080" stop-opacity="0.25"/>
<stop offset="0.54" stop-color="#808080" stop-opacity="0.12"/>
<stop offset="1" stop-color="#808080" stop-opacity="0.1"/>
</linearGradient>
<linearGradient id="paint64_linear" x1="60.7616" y1="62.6137" x2="60.7616" y2="60.3058" gradientUnits="userSpaceOnUse">
<stop stop-color="#808080" stop-opacity="0.25"/>
<stop offset="0.54" stop-color="#808080" stop-opacity="0.12"/>
<stop offset="1" stop-color="#808080" stop-opacity="0.1"/>
</linearGradient>
<linearGradient id="paint65_linear" x1="127.505" y1="60.6664" x2="127.505" y2="43.9981" gradientUnits="userSpaceOnUse">
<stop stop-color="#808080" stop-opacity="0.25"/>
<stop offset="0.54" stop-color="#808080" stop-opacity="0.12"/>
<stop offset="1" stop-color="#808080" stop-opacity="0.1"/>
</linearGradient>
<linearGradient id="paint66_linear" x1="123.242" y1="90.726" x2="123.242" y2="58.0072" gradientUnits="userSpaceOnUse">
<stop stop-color="#808080" stop-opacity="0.25"/>
<stop offset="0.54" stop-color="#808080" stop-opacity="0.12"/>
<stop offset="1" stop-color="#808080" stop-opacity="0.1"/>
</linearGradient>
<linearGradient id="paint67_linear" x1="123.199" y1="78.2535" x2="123.199" y2="67.8315" gradientUnits="userSpaceOnUse">
<stop stop-opacity="0.12"/>
<stop offset="0.55" stop-opacity="0.09"/>
<stop offset="1" stop-opacity="0.02"/>
</linearGradient>
</defs>
</svg>
