<svg width="17" height="21" viewBox="0 0 17 21" fill="none" xmlns="http://www.w3.org/2000/svg">
<path d="M15.1485 0H1.68317C0.757425 0 0 0.757425 0 1.68317V10.2673L1.17821 9.59405L1.51484 7.40593C1.68316 6.05939 2.94555 5.0495 4.29208 5.0495H12.7079C14.0545 5.0495 15.2327 6.05939 15.4851 7.40593L15.8218 9.59405L17 10.2673V1.68317C16.8317 0.757425 16.0742 0 15.1485 0Z" fill="white"/>
<path d="M14.5594 7.57428C14.3911 6.64854 13.5495 5.89111 12.6238 5.89111H4.20792C3.28218 5.89111 2.4406 6.64854 2.27229 7.57428L1.93563 10.099L0 11.2773V16.8317H0.841584V18.5149C0.841584 19.4406 1.59901 20.198 2.52475 20.198C3.45049 20.198 4.20792 19.4406 4.20792 18.5149V16.8317H12.6238V18.5149C12.6238 19.4406 13.3812 20.198 14.3069 20.198C15.2327 20.198 15.9901 19.4406 15.9901 18.5149V16.8317H16.8317V11.2773L14.896 10.099L14.5594 7.57428ZM2.10396 15.1485C1.43069 15.1485 0.841584 14.5594 0.841584 13.8862C0.841584 13.2129 1.43069 12.6238 2.10396 12.6238C2.77723 12.6238 3.36633 13.2129 3.36633 13.8862C3.36633 14.5594 2.77723 15.1485 2.10396 15.1485ZM12.6238 15.1485H4.20792V13.4654C4.20792 12.5396 4.96534 11.7822 5.89109 11.7822H10.9406C11.8663 11.7822 12.6238 12.5396 12.6238 13.4654V15.1485ZM2.77722 10.099L3.11387 7.65844C3.19803 7.15349 3.70297 6.7327 4.20792 6.7327H12.6238C13.1287 6.7327 13.6336 7.15349 13.7178 7.65844L14.0545 10.099H2.77722ZM15.9901 13.8862C15.9901 14.5594 15.401 15.1485 14.7277 15.1485C14.0544 15.1485 13.4653 14.5594 13.4653 13.8862C13.4653 13.2129 14.0544 12.6238 14.7277 12.6238C15.401 12.6238 15.9901 13.2129 15.9901 13.8862Z" fill="white"/>
</svg>
