<svg width="22" height="19" viewBox="0 0 22 19" fill="none" xmlns="http://www.w3.org/2000/svg">
<path fill-rule="evenodd" clip-rule="evenodd" d="M21.7043 3.05426C20.9069 3.41744 20.0482 3.66304 19.1475 3.77277C20.0673 3.20841 20.7731 2.31354 21.1056 1.24752C20.2444 1.77008 19.2928 2.15023 18.2761 2.35403C17.4659 1.46699 16.3079 0.913086 15.0263 0.913086C12.5688 0.913086 10.5751 2.95758 10.5751 5.47891C10.5751 5.83686 10.6133 6.18437 10.6897 6.5188C6.98891 6.32807 3.70848 4.51219 1.51091 1.74656C1.12745 2.42327 0.908322 3.20841 0.908322 4.0445C0.908322 5.62785 1.69436 7.02568 2.88933 7.84479C2.16063 7.82258 1.47269 7.61486 0.871381 7.2752V7.33137C0.871381 9.5444 2.4065 11.3903 4.44482 11.8084C4.07155 11.9155 3.6779 11.9691 3.27151 11.9691C2.98487 11.9691 2.7046 11.9416 2.43325 11.8881C3.00016 13.7013 4.64355 15.0221 6.5927 15.0574C5.06905 16.2828 3.14794 17.013 1.06247 17.013C0.703219 17.013 0.347789 16.9921 0 16.9503C1.97081 18.2436 4.31233 19 6.82584 19C15.0174 19 19.4953 12.0435 19.4953 6.00931C19.4953 5.81074 19.4915 5.61217 19.4838 5.41751C20.354 4.77346 21.1094 3.97004 21.7043 3.05426Z" fill="#00AAEC"/>
</svg>
